<svg height="36" width="36" viewBox="0 0 55 55" fill="none" xmlns="http://www.w3.org/2000/svg">
<g clip-path="url(#clip0)">
<path d="M54.0483 8.57051C53.2638 7.61907 52.101 7.0738 50.8583 7.0738H18.9459C18.2923 7.0738 17.7618 7.60425 17.7618 8.25791C17.7618 8.91157 18.2923 9.44202 18.9459 9.44202H50.8577C51.3983 9.44202 51.8826 9.6676 52.2207 10.0773C52.5641 10.4941 52.7014 11.0436 52.5978 11.5782L47.8655 35.2413C47.6819 36.0868 46.965 36.6771 46.1218 36.6771H19.8003L8.93296 3.9589C8.34558 2.28097 6.75531 1.15369 4.93408 1.15369C4.93354 1.15369 4.9329 1.15369 4.93226 1.15369C3.38753 1.20697 1.821 1.20643 1.43729 1.18033C1.05541 1.0974 0.642693 1.20396 0.346746 1.50001C-0.115704 1.96246 -0.115704 2.71194 0.346746 3.1744C0.713269 3.54092 0.837019 3.66467 4.97318 3.52137C5.74877 3.52137 6.44207 4.01164 6.69139 4.7232L17.8222 38.2347C17.9832 38.7184 18.4356 39.0452 18.9459 39.0452H46.1217C48.0886 39.0452 49.757 37.6876 50.1838 35.7249L54.9221 12.0357C55.1613 10.7973 54.8435 9.5344 54.0483 8.57051Z" fill="black" fill-opacity="0.66"/>
<path d="M45.589 45.5587H24.0378C23.3089 45.5587 22.6239 45.0566 22.377 44.352L20.068 37.484C19.8596 36.864 19.1864 36.5295 18.5683 36.7391C17.9484 36.947 17.615 37.6189 17.8234 38.2388L20.1372 45.1204C20.7251 46.7988 22.2923 47.9261 24.0377 47.9261H45.5889C46.2425 47.9261 46.773 47.3962 46.773 46.7426C46.773 46.0889 46.2426 45.5587 45.589 45.5587Z" fill="black" fill-opacity="0.66"/>
<path d="M24.8666 45.558C22.5812 45.558 20.7222 47.4177 20.7222 49.7025C20.7222 51.9872 22.5812 53.8469 24.8666 53.8469C27.152 53.8469 29.0111 51.9872 29.0111 49.7025C29.0111 47.4177 27.152 45.558 24.8666 45.558ZM24.8666 51.4787C23.8874 51.4787 23.0904 50.6817 23.0904 49.7025C23.0904 48.7232 23.8874 47.9262 24.8666 47.9262C25.8459 47.9262 26.6428 48.7232 26.6428 49.7025C26.6428 50.6818 25.8459 51.4787 24.8666 51.4787Z" fill="black" fill-opacity="0.66"/>
<path d="M45.589 45.558C43.3042 45.558 41.4445 47.4177 41.4445 49.7025C41.4445 51.9872 43.3042 53.8469 45.589 53.8469C47.8737 53.8469 49.7334 51.9872 49.7334 49.7025C49.7334 47.4177 47.8737 45.558 45.589 45.558ZM45.589 51.4787C44.6097 51.4787 43.8127 50.6817 43.8127 49.7025C43.8127 48.7232 44.6097 47.9262 45.589 47.9262C46.5682 47.9262 47.3652 48.7232 47.3652 49.7025C47.3652 50.6818 46.5682 51.4787 45.589 51.4787Z" fill="black" fill-opacity="0.66"/>
</g>
<defs>
<clipPath id="clip0">
<rect width="55" height="55" fill="white"/>
</clipPath>
</defs>
</svg>
