<svg width="36" height="36" viewBox="0 0 79 79" fill="none" xmlns="http://www.w3.org/2000/svg">
<g clip-path="url(#clip0)">
<path d="M60.1739 66.4322L46.8566 57.554C46.2608 57.1607 45.4629 57.2902 45.0222 57.8517L41.1446 62.8369C39.8878 64.4747 37.6198 64.9422 35.8179 63.9347L35.1011 63.541C32.5146 62.1299 29.2946 60.3745 22.9026 53.9825C16.5106 47.5906 14.7539 44.3706 13.3442 41.7827L12.9491 41.0658C11.9418 39.2645 12.4092 36.9967 14.0469 35.7406L19.0307 31.8616C19.5928 31.4211 19.7224 30.6229 19.3284 30.0272L10.4515 16.7085C10.0478 16.1041 9.24111 15.9223 8.61714 16.295L3.04497 19.6363C1.84951 20.3341 0.970276 21.4672 0.591235 22.7984C-1.23884 29.4628 0.300627 41.1321 18.0246 58.8576C35.7486 76.5831 47.4152 78.1254 54.0852 76.2938C55.4168 75.9143 56.5497 75.0346 57.2473 73.8385L60.5872 68.2663C60.9608 67.6428 60.7789 66.8357 60.1739 66.4322Z" fill="black" fill-opacity="0.66"/>
<path d="M78.7751 2.33904C78.6291 2.19305 78.4303 2.11202 78.2238 2.11434H19.1012C18.8947 2.11202 18.696 2.19305 18.55 2.33904C18.404 2.48504 18.3229 2.68382 18.3253 2.89032V23.4323L21.6778 28.4612C22.887 30.2882 22.4896 32.7374 20.7649 34.0885L15.7854 37.9674C15.2523 38.3718 15.0974 39.1064 15.4213 39.6918L15.8277 40.4326C17.1233 42.8967 18.7037 45.2002 20.5364 47.2959H78.2238C78.6471 47.299 78.9936 46.9601 79 46.5368V2.89032C79.0023 2.68382 78.9212 2.48504 78.7751 2.33904ZM38.6851 28.0011V27.994L24.2305 43.4802C23.699 44.0503 22.806 44.0815 22.236 43.5501C21.6659 43.0186 21.6348 42.1256 22.1661 41.5557L36.6207 26.0766C37.1523 25.5065 38.0452 25.4753 38.6152 26.0067C39.1853 26.5382 39.2166 27.4312 38.6851 28.0011ZM48.6625 26.8893C47.6456 26.8939 46.6548 26.5671 45.8404 25.9581L22.2564 8.0745C21.6354 7.60147 21.5153 6.71452 21.9883 6.09333C22.4614 5.4723 23.3483 5.35223 23.9695 5.82526L47.5438 23.7088C48.211 24.1936 49.1144 24.1936 49.7817 23.7088L73.3628 5.82526C73.9838 5.35424 74.8693 5.47585 75.3404 6.09688C75.8116 6.71792 75.6898 7.60332 75.0688 8.0745L51.4847 25.9581C50.6702 26.5671 49.6796 26.8939 48.6625 26.8893ZM75.1788 43.5495C74.9052 43.8051 74.5411 43.9414 74.1669 43.9284C73.7926 43.9154 73.4389 43.7543 73.1836 43.4804L58.7304 27.9942C58.2393 27.4187 58.2896 26.5583 58.8441 26.0439C59.3988 25.5293 60.2605 25.5438 60.7975 26.0766L75.248 41.5557C75.7792 42.1253 75.7483 43.0178 75.1788 43.5495Z" fill="black" fill-opacity="0.66"/>
</g>
<defs>
<clipPath id="clip0">
<rect width="79" height="79" fill="white"/>
</clipPath>
</defs>
</svg>
