<svg width="36" height="36" viewBox="0 0 36 36" fill="none" xmlns="http://www.w3.org/2000/svg">
            <path d="M36 6.00027H0V29.9998H36V6.00027Z" fill="#F0F0F0" />
            <path d="M14.8695 21.1305H0V29.9997H14.8695V21.1305Z" fill="#D80027" />
            <path d="M14.8695 6.00027H0V14.8703H14.8695V6.00027Z" fill="#0052B4" />
            <path d="M36 6.00027H21.1304V14.8703H36V6.00027Z" fill="#D80027" />
            <path d="M36 21.1305H21.1304V29.9997H36V21.1305Z" fill="#0052B4" />
            <path d="M21.1304 18.0004C21.1304 19.7293 19.7289 21.1308 18 21.1308C16.2711 21.1308 14.8696 19.7293 14.8696 18.0004C14.8696 16.2715 18 14.87 18 14.87C18 14.87 21.1304 16.2715 21.1304 18.0004Z" fill="#496E2D" />
            <path d="M14.8696 18.0004C14.8696 16.2716 16.2711 14.87 18 14.87C19.7289 14.87 21.1304 16.2715 21.1304 18.0004" fill="#0052B4" />
            <path d="M16.2392 16.4352V18.3916C16.2392 19.3641 17.0275 20.1524 18 20.1524C18.9726 20.1524 19.7608 19.364 19.7608 18.3916V16.4352H16.2392Z" fill="#D80027" />
        </svg>