<svg width="100%" height="100%" viewBox="0 0 154 154" fill="none" xmlns="http://www.w3.org/2000/svg">
<path d="M88.5187 106.89C88.1265 109.292 87.5033 111.611 86.6635 113.83L94.1975 120.657C93.1411 122.88 91.938 125.017 90.5496 127.024L80.8765 123.905C79.3509 125.77 77.6425 127.476 75.7776 129.001L78.8961 138.675C76.8893 140.063 74.7526 141.264 72.5292 142.322L65.7027 134.788C63.4841 135.628 61.1669 136.251 58.763 136.644L56.6143 146.596C55.3991 146.692 54.1791 146.781 52.9375 146.781C51.6959 146.781 50.4759 146.692 49.2583 146.596L47.1096 136.644C44.7081 136.251 42.3885 135.628 40.1699 134.788L33.3434 142.322C31.12 141.266 28.9833 140.063 26.9765 138.675L30.095 129.001C28.2301 127.476 26.5241 125.767 24.9985 123.905L15.3254 127.024C13.937 125.017 12.7363 122.88 11.6775 120.657L19.2115 113.83C18.3717 111.611 17.7485 109.294 17.3563 106.89L7.40403 104.742C7.30778 103.524 7.21875 102.304 7.21875 101.062C7.21875 99.8209 7.30778 98.6009 7.40403 97.3833L17.3563 95.2346C17.7485 92.8331 18.3717 90.5135 19.2115 88.2949L11.6775 81.4684C12.7339 79.245 13.937 77.1083 15.3254 75.1015L24.9985 78.22C26.5241 76.3551 28.2325 74.6491 30.0974 73.1235L26.9789 63.4504C28.9857 62.062 31.1224 60.8613 33.3458 59.8025L40.1723 67.3365C42.3909 66.4967 44.7081 65.8735 47.112 65.4813L49.2607 55.529C50.4759 55.4328 51.6959 55.3438 52.9375 55.3438C54.1791 55.3438 55.3991 55.4328 56.6167 55.529L58.7654 65.4813C61.1669 65.8735 63.4865 66.4967 65.7051 67.3365L72.5316 59.8025C74.755 60.8589 76.8917 62.062 78.8985 63.4504L75.78 73.1235C77.6449 74.6491 79.3509 76.3575 80.8765 78.2224L90.5496 75.1039C91.938 77.1107 93.1387 79.2474 94.1975 81.4708L86.6635 88.2973C87.5033 90.5159 88.1265 92.8331 88.5187 95.237L98.471 97.3857C98.5672 98.6009 98.6562 99.8209 98.6562 101.062C98.6562 102.304 98.5672 103.524 98.471 104.742L88.5187 106.89ZM52.9375 77C39.6478 77 28.875 87.7728 28.875 101.062C28.875 114.352 39.6478 125.125 52.9375 125.125C66.2272 125.125 77 114.352 77 101.062C77 87.7728 66.2272 77 52.9375 77Z" fill="black" fill-opacity="0.66"/>
<path d="M121.898 39.2339C121.523 40.4779 121.032 41.6714 120.428 42.7952L124.227 50.0765C122.945 51.6983 121.482 53.1613 119.86 54.4438L112.579 50.6443C111.455 51.2507 110.262 51.7416 109.018 52.1146L106.554 59.9589C105.538 60.0792 104.513 60.1562 103.469 60.1562C102.424 60.1562 101.399 60.0793 100.386 59.9613L97.9223 52.117C96.6783 51.744 95.4848 51.2507 94.3611 50.6468L87.0798 54.4462C85.458 53.1637 83.995 51.7007 82.7124 50.0789L86.5119 42.7976C85.9055 41.6738 85.4147 40.4803 85.0417 39.2363L77.1973 36.7723C77.077 35.7569 77 34.7318 77 33.6875C77 32.6432 77.077 31.6181 77.1949 30.6051L85.0393 28.1411C85.4122 26.8971 85.9055 25.7036 86.5095 24.5798L82.71 17.2985C83.9926 15.6767 85.4556 14.2137 87.0774 12.9312L94.3587 16.7307C95.4824 16.1243 96.6759 15.6334 97.9199 15.2604L100.384 7.41606C101.399 7.29575 102.424 7.21875 103.469 7.21875C104.513 7.21875 105.538 7.29575 106.551 7.41366L109.015 15.258C110.259 15.631 111.453 16.1243 112.576 16.7283L119.858 12.9288C121.48 14.2113 122.943 15.6743 124.225 17.2961L120.426 24.5774C121.032 25.7012 121.523 26.8947 121.896 28.1387L129.74 30.6027C129.86 31.6181 129.938 32.6432 129.938 33.6875C129.938 34.7318 129.86 35.7569 129.743 36.7699L121.898 39.2339ZM103.469 24.0625C98.1533 24.0625 93.8438 28.3721 93.8438 33.6875C93.8438 39.0029 98.1533 43.3125 103.469 43.3125C108.784 43.3125 113.094 39.0029 113.094 33.6875C113.094 28.3721 108.784 24.0625 103.469 24.0625Z" fill="black" fill-opacity="0.66"/>
<path d="M141.341 93.5333C140.97 94.8688 140.448 96.1345 139.779 97.316L142.173 102.355C141.086 103.743 139.837 104.992 138.448 106.08L133.41 103.685C132.231 104.354 130.963 104.876 129.627 105.247L127.755 110.512C126.891 110.618 126.018 110.688 125.125 110.688C124.232 110.688 123.359 110.618 122.495 110.512L120.623 105.247C119.287 104.876 118.022 104.354 116.84 103.685L111.802 106.08C110.413 104.992 109.164 103.743 108.077 102.355L110.471 97.316C109.802 96.1369 109.28 94.8688 108.909 93.5358L103.644 91.6637C103.539 90.7974 103.469 89.924 103.469 89.0312C103.469 88.1385 103.539 87.2651 103.644 86.4012L108.909 84.5292C109.28 83.1937 109.802 81.928 110.471 80.7489L108.077 75.7103C109.164 74.3218 110.413 73.073 111.802 71.9854L116.84 74.3796C118.019 73.7107 119.287 73.1885 120.623 72.8179L122.495 67.5531C123.359 67.4448 124.232 67.375 125.125 67.375C126.018 67.375 126.891 67.4448 127.755 67.5507L129.627 72.8155C130.963 73.1861 132.228 73.7082 133.41 74.3772L138.448 71.983C139.837 73.0706 141.086 74.3194 142.173 75.7078L139.779 80.7465C140.448 81.9256 140.97 83.1937 141.341 84.5292L146.606 86.4012C146.711 87.2651 146.781 88.1385 146.781 89.0312C146.781 89.924 146.711 90.7974 146.606 91.6613L141.341 93.5333ZM125.125 81.8125C121.138 81.8125 117.906 85.0441 117.906 89.0312C117.906 93.0184 121.138 96.25 125.125 96.25C129.112 96.25 132.344 93.0184 132.344 89.0312C132.344 85.0441 129.112 81.8125 125.125 81.8125Z" fill="black" fill-opacity="0.66"/>
<path d="M147.253 12.0794L132.861 9.20148L129.983 23.5909L134.702 24.5365L135.999 18.0589C138.33 22.9099 139.562 28.2566 139.562 33.6875C139.562 41.9842 136.824 49.7853 131.646 56.2461L135.402 59.2563C141.189 52.0351 144.375 42.9563 144.375 33.6875C144.375 27.3855 142.919 21.1726 140.15 15.566L146.31 16.798L147.253 12.0794Z" fill="black" fill-opacity="0.66"/>
<path d="M57.045 31.9863L53.6425 35.3887L56.9126 38.6588C55.5892 38.5746 54.2633 38.5 52.9375 38.5C34.3227 38.5 16.8004 46.7077 4.86542 61.0201L8.56142 64.1025C19.5796 50.8898 35.752 43.3125 52.9375 43.3125C54.1623 43.3125 55.3846 43.3823 56.607 43.4593L53.6425 46.4238L57.045 49.8262L65.9649 40.9062L57.045 31.9863Z" fill="black" fill-opacity="0.66"/>
</svg>