<svg width="100%" height="100%" viewBox="0 0 582 571" fill="none" xmlns="http://www.w3.org/2000/svg">
<path d="M12.928 20.2H31.104C35.4133 20.2 38.848 21.2453 41.408 23.336C43.968 25.4267 45.248 28.2213 45.248 31.72C45.248 34.024 44.6293 36.0293 43.392 37.736C42.1973 39.4427 40.5333 40.744 38.4 41.64C41.088 42.4507 43.2 43.816 44.736 45.736C46.3147 47.6133 47.104 49.832 47.104 52.392C47.104 56.232 45.696 59.304 42.88 61.608C40.1067 63.8693 36.4373 65 31.872 65H12.928V20.2ZM30.848 24.488H17.856V39.72H30.848C33.7493 39.72 36.0533 39.0373 37.76 37.672C39.5093 36.264 40.384 34.408 40.384 32.104C40.384 29.8 39.5093 27.9653 37.76 26.6C36.0533 25.192 33.7493 24.488 30.848 24.488ZM31.488 60.712C34.688 60.712 37.248 59.944 39.168 58.408C41.1307 56.872 42.112 54.824 42.112 52.264C42.112 49.704 41.1307 47.656 39.168 46.12C37.248 44.584 34.688 43.816 31.488 43.816H17.856V60.712H31.488ZM58.1635 32.936V52.264C58.1635 55.08 58.9742 57.32 60.5955 58.984C62.2168 60.648 64.3928 61.48 67.1235 61.48C69.0435 61.48 70.7502 61.0533 72.2435 60.2C73.7795 59.304 75.0168 58.0667 75.9555 56.488V32.936H80.6915V65H75.9555V61.288C74.7182 62.7387 73.2462 63.8267 71.5395 64.552C69.8755 65.2773 67.9982 65.64 65.9075 65.64C62.2382 65.64 59.2515 64.488 56.9475 62.184C54.6435 59.88 53.4915 56.8933 53.4915 53.224V32.936H58.1635ZM91.2625 26.792C90.4092 26.792 89.6625 26.472 89.0225 25.832C88.3825 25.192 88.0625 24.4453 88.0625 23.592C88.0625 22.696 88.3825 21.9493 89.0225 21.352C89.6625 20.712 90.4092 20.392 91.2625 20.392C92.1585 20.392 92.9052 20.712 93.5025 21.352C94.1425 21.9493 94.4625 22.696 94.4625 23.592C94.4625 24.4453 94.1425 25.192 93.5025 25.832C92.9052 26.472 92.1585 26.792 91.2625 26.792ZM93.6305 32.936V65H88.8945V32.936H93.6305ZM106.593 19.112V65H101.857V20.2L106.593 19.112ZM139.844 65V61.608C138.478 62.888 136.899 63.8693 135.108 64.552C133.358 65.192 131.481 65.512 129.476 65.512C127.214 65.512 125.102 65.0853 123.139 64.232C121.177 63.3787 119.47 62.2267 118.019 60.776C116.569 59.2827 115.417 57.512 114.563 55.464C113.753 53.416 113.347 51.24 113.347 48.936C113.347 46.632 113.753 44.4773 114.563 42.472C115.417 40.424 116.569 38.6747 118.019 37.224C119.47 35.7307 121.177 34.5573 123.139 33.704C125.145 32.8507 127.278 32.424 129.539 32.424C131.374 32.424 133.166 32.744 134.915 33.384C136.707 33.9813 138.329 34.8773 139.779 36.072V20.2L144.515 19.112V65H139.844ZM118.019 48.872C118.019 50.6213 118.318 52.264 118.915 53.8C119.555 55.336 120.409 56.6587 121.475 57.768C122.542 58.8773 123.801 59.752 125.251 60.392C126.702 61.032 128.259 61.352 129.924 61.352C131.929 61.352 133.785 60.968 135.491 60.2C137.241 59.3893 138.67 58.28 139.779 56.872V41C138.67 39.6347 137.241 38.568 135.491 37.8C133.742 36.9893 131.886 36.584 129.924 36.584C126.595 36.584 123.779 37.7573 121.475 40.104C119.171 42.4507 118.019 45.3733 118.019 48.872ZM165.147 48.936C165.147 46.632 165.574 44.456 166.427 42.408C167.281 40.36 168.433 38.5893 169.883 37.096C171.377 35.6027 173.126 34.4293 175.131 33.576C177.137 32.7227 179.27 32.296 181.531 32.296C183.793 32.296 185.905 32.7227 187.867 33.576C189.873 34.4293 191.601 35.6027 193.051 37.096C194.545 38.5893 195.718 40.36 196.571 42.408C197.425 44.456 197.851 46.632 197.851 48.936C197.851 51.2827 197.425 53.48 196.571 55.528C195.718 57.576 194.545 59.3467 193.051 60.84C191.601 62.3333 189.873 63.5067 187.867 64.36C185.905 65.2133 183.793 65.64 181.531 65.64C179.27 65.64 177.137 65.2133 175.131 64.36C173.126 63.5067 171.377 62.3333 169.883 60.84C168.433 59.3467 167.281 57.576 166.427 55.528C165.574 53.48 165.147 51.2827 165.147 48.936ZM181.531 61.416C183.153 61.416 184.667 61.096 186.075 60.456C187.526 59.816 188.763 58.9413 189.787 57.832C190.854 56.68 191.686 55.3573 192.283 53.864C192.881 52.328 193.179 50.6853 193.179 48.936C193.179 47.1867 192.881 45.5653 192.283 44.072C191.686 42.536 190.854 41.2133 189.787 40.104C188.763 38.9947 187.526 38.12 186.075 37.48C184.667 36.84 183.153 36.52 181.531 36.52C179.91 36.52 178.374 36.84 176.923 37.48C175.515 38.12 174.278 38.9947 173.211 40.104C172.187 41.2133 171.355 42.536 170.715 44.072C170.118 45.5653 169.819 47.1867 169.819 48.936C169.819 50.6853 170.118 52.328 170.715 53.864C171.313 55.3573 172.123 56.68 173.147 57.832C174.214 58.9413 175.473 59.816 176.923 60.456C178.374 61.096 179.91 61.416 181.531 61.416ZM204.582 65V32.936H209.318V37.48C210.257 35.816 211.494 34.536 213.03 33.64C214.566 32.7013 216.315 32.232 218.278 32.232C218.875 32.232 219.409 32.2747 219.878 32.36C220.347 32.4027 220.817 32.5093 221.286 32.68V37.032C220.731 36.8613 220.177 36.7333 219.622 36.648C219.067 36.52 218.513 36.456 217.958 36.456C215.995 36.456 214.267 37.032 212.774 38.184C211.281 39.2933 210.129 40.9147 209.318 43.048V65H204.582ZM240.757 65V32.936H245.493V37.48C246.432 35.816 247.669 34.536 249.205 33.64C250.741 32.7013 252.49 32.232 254.453 32.232C255.05 32.232 255.584 32.2747 256.053 32.36C256.522 32.4027 256.992 32.5093 257.461 32.68V37.032C256.906 36.8613 256.352 36.7333 255.797 36.648C255.242 36.52 254.688 36.456 254.133 36.456C252.17 36.456 250.442 37.032 248.949 38.184C247.456 39.2933 246.304 40.9147 245.493 43.048V65H240.757ZM287.728 61.608C285.936 62.9307 284.058 63.9333 282.096 64.616C280.176 65.256 278.064 65.576 275.76 65.576C273.456 65.576 271.28 65.1493 269.232 64.296C267.226 63.4427 265.477 62.2693 263.984 60.776C262.533 59.2827 261.381 57.5333 260.528 55.528C259.674 53.48 259.248 51.2827 259.248 48.936C259.248 46.632 259.653 44.4773 260.464 42.472C261.317 40.4667 262.448 38.7173 263.856 37.224C265.264 35.7307 266.928 34.5573 268.848 33.704C270.81 32.8507 272.88 32.424 275.056 32.424C277.189 32.424 279.173 32.8507 281.008 33.704C282.885 34.5573 284.485 35.7307 285.808 37.224C287.173 38.7173 288.24 40.4667 289.007 42.472C289.818 44.4773 290.224 46.632 290.224 48.936V50.408H263.92C264.261 53.5653 265.562 56.1893 267.824 58.28C270.085 60.3707 272.794 61.416 275.952 61.416C277.616 61.416 279.237 61.16 280.816 60.648C282.394 60.136 283.717 59.4107 284.784 58.472L287.728 61.608ZM274.928 36.584C272.154 36.584 269.744 37.5227 267.696 39.4C265.69 41.2773 264.474 43.688 264.048 46.632H285.488C285.061 43.816 283.845 41.448 281.84 39.528C279.877 37.5653 277.573 36.584 274.928 36.584ZM296.994 78.12V32.936H301.666V36.392C303.032 35.0693 304.589 34.088 306.338 33.448C308.13 32.7653 310.029 32.424 312.034 32.424C314.296 32.424 316.408 32.8507 318.37 33.704C320.333 34.5573 322.04 35.7307 323.49 37.224C324.941 38.6747 326.072 40.424 326.882 42.472C327.736 44.4773 328.162 46.632 328.162 48.936C328.162 51.24 327.736 53.416 326.882 55.464C326.072 57.512 324.941 59.2827 323.49 60.776C322.04 62.2267 320.312 63.3787 318.306 64.232C316.344 65.0853 314.232 65.512 311.97 65.512C310.093 65.512 308.28 65.192 306.53 64.552C304.781 63.912 303.181 62.9947 301.73 61.8V78.12H296.994ZM311.586 36.584C309.581 36.584 307.704 36.9893 305.954 37.8C304.248 38.568 302.84 39.656 301.73 41.064V56.936C302.84 58.3013 304.269 59.3893 306.018 60.2C307.768 60.968 309.624 61.352 311.586 61.352C314.957 61.352 317.773 60.1787 320.034 57.832C322.338 55.4427 323.49 52.4987 323.49 49C323.49 47.2507 323.17 45.6293 322.53 44.136C321.933 42.6 321.101 41.2773 320.034 40.168C318.968 39.0587 317.709 38.184 316.258 37.544C314.808 36.904 313.25 36.584 311.586 36.584ZM345.319 65.576C341.82 65.576 338.962 64.68 336.743 62.888C334.567 61.096 333.479 58.7707 333.479 55.912C333.479 52.9253 334.631 50.5573 336.935 48.808C339.239 47.016 342.354 46.12 346.279 46.12C347.986 46.12 349.628 46.312 351.207 46.696C352.828 47.08 354.322 47.6133 355.687 48.296V44.072C355.687 41.512 354.962 39.592 353.511 38.312C352.06 36.9893 349.948 36.328 347.175 36.328C345.596 36.328 343.996 36.5627 342.375 37.032C340.796 37.4587 339.047 38.1627 337.127 39.144L335.335 35.496C337.639 34.3867 339.772 33.576 341.735 33.064C343.698 32.552 345.66 32.296 347.623 32.296C351.676 32.296 354.791 33.256 356.967 35.176C359.186 37.096 360.295 39.848 360.295 43.432V65H355.687V61.864C354.236 63.1013 352.636 64.04 350.887 64.68C349.18 65.2773 347.324 65.576 345.319 65.576ZM338.023 55.784C338.023 57.576 338.77 59.048 340.263 60.2C341.799 61.3093 343.762 61.864 346.151 61.864C348.071 61.864 349.82 61.5653 351.399 60.968C352.978 60.3707 354.407 59.432 355.687 58.152V52.136C354.364 51.24 352.935 50.6 351.399 50.216C349.906 49.7893 348.242 49.576 346.407 49.576C343.847 49.576 341.799 50.152 340.263 51.304C338.77 52.4133 338.023 53.9067 338.023 55.784ZM370.725 26.792C369.872 26.792 369.125 26.472 368.485 25.832C367.845 25.192 367.525 24.4453 367.525 23.592C367.525 22.696 367.845 21.9493 368.485 21.352C369.125 20.712 369.872 20.392 370.725 20.392C371.621 20.392 372.368 20.712 372.965 21.352C373.605 21.9493 373.925 22.696 373.925 23.592C373.925 24.4453 373.605 25.192 372.965 25.832C372.368 26.472 371.621 26.792 370.725 26.792ZM373.093 32.936V65H368.357V32.936H373.093ZM381.32 65V32.936H386.056V37.48C386.994 35.816 388.232 34.536 389.768 33.64C391.304 32.7013 393.053 32.232 395.016 32.232C395.613 32.232 396.146 32.2747 396.616 32.36C397.085 32.4027 397.554 32.5093 398.024 32.68V37.032C397.469 36.8613 396.914 36.7333 396.36 36.648C395.805 36.52 395.25 36.456 394.696 36.456C392.733 36.456 391.005 37.032 389.512 38.184C388.018 39.2933 386.866 40.9147 386.056 43.048V65H381.32ZM424.982 69.16L426.838 64.936L413.782 32.936H419.03L429.398 59.24L440.598 32.936H445.718L429.782 69.8C428.417 72.872 426.902 75.0907 425.238 76.456C423.574 77.8213 421.462 78.504 418.902 78.504C418.305 78.504 417.729 78.4613 417.174 78.376C416.662 78.3333 416.236 78.2693 415.894 78.184V73.896C416.321 73.9813 416.726 74.0453 417.11 74.088C417.537 74.1307 418.028 74.152 418.582 74.152C420.033 74.152 421.27 73.7467 422.294 72.936C423.318 72.1253 424.214 70.8667 424.982 69.16ZM447.547 48.936C447.547 46.632 447.974 44.456 448.827 42.408C449.681 40.36 450.833 38.5893 452.283 37.096C453.777 35.6027 455.526 34.4293 457.531 33.576C459.537 32.7227 461.67 32.296 463.931 32.296C466.193 32.296 468.305 32.7227 470.267 33.576C472.273 34.4293 474.001 35.6027 475.451 37.096C476.945 38.5893 478.118 40.36 478.971 42.408C479.825 44.456 480.251 46.632 480.251 48.936C480.251 51.2827 479.825 53.48 478.971 55.528C478.118 57.576 476.945 59.3467 475.451 60.84C474.001 62.3333 472.273 63.5067 470.267 64.36C468.305 65.2133 466.193 65.64 463.931 65.64C461.67 65.64 459.537 65.2133 457.531 64.36C455.526 63.5067 453.777 62.3333 452.283 60.84C450.833 59.3467 449.681 57.576 448.827 55.528C447.974 53.48 447.547 51.2827 447.547 48.936ZM463.931 61.416C465.553 61.416 467.067 61.096 468.475 60.456C469.926 59.816 471.163 58.9413 472.187 57.832C473.254 56.68 474.086 55.3573 474.683 53.864C475.281 52.328 475.579 50.6853 475.579 48.936C475.579 47.1867 475.281 45.5653 474.683 44.072C474.086 42.536 473.254 41.2133 472.187 40.104C471.163 38.9947 469.926 38.12 468.475 37.48C467.067 36.84 465.553 36.52 463.931 36.52C462.31 36.52 460.774 36.84 459.323 37.48C457.915 38.12 456.678 38.9947 455.611 40.104C454.587 41.2133 453.755 42.536 453.115 44.072C452.518 45.5653 452.219 47.1867 452.219 48.936C452.219 50.6853 452.518 52.328 453.115 53.864C453.713 55.3573 454.523 56.68 455.547 57.832C456.614 58.9413 457.873 59.816 459.323 60.456C460.774 61.096 462.31 61.416 463.931 61.416ZM491.526 32.936V52.264C491.526 55.08 492.337 57.32 493.958 58.984C495.579 60.648 497.755 61.48 500.486 61.48C502.406 61.48 504.113 61.0533 505.606 60.2C507.142 59.304 508.379 58.0667 509.318 56.488V32.936H514.054V65H509.318V61.288C508.081 62.7387 506.609 63.8267 504.902 64.552C503.238 65.2773 501.361 65.64 499.27 65.64C495.601 65.64 492.614 64.488 490.31 62.184C488.006 59.88 486.854 56.8933 486.854 53.224V32.936H491.526ZM522.257 65V32.936H526.993V37.48C527.932 35.816 529.169 34.536 530.705 33.64C532.241 32.7013 533.99 32.232 535.953 32.232C536.55 32.232 537.084 32.2747 537.553 32.36C538.022 32.4027 538.492 32.5093 538.961 32.68V37.032C538.406 36.8613 537.852 36.7333 537.297 36.648C536.742 36.52 536.188 36.456 535.633 36.456C533.67 36.456 531.942 37.032 530.449 38.184C528.956 39.2933 527.804 40.9147 526.993 43.048V65H522.257ZM22.528 150H17.92L8.896 117.936H13.568L20.48 143.536L28.48 117.936H32.704L40.64 143.536L47.616 117.936H52.096L43.008 150H38.464L30.528 124.336L22.528 150ZM83.565 146.608C81.773 147.931 79.8957 148.933 77.933 149.616C76.013 150.256 73.901 150.576 71.597 150.576C69.293 150.576 67.117 150.149 65.069 149.296C63.0637 148.443 61.3143 147.269 59.821 145.776C58.3703 144.283 57.2183 142.533 56.365 140.528C55.5117 138.48 55.085 136.283 55.085 133.936C55.085 131.632 55.4903 129.477 56.301 127.472C57.1543 125.467 58.285 123.717 59.693 122.224C61.101 120.731 62.765 119.557 64.685 118.704C66.6477 117.851 68.717 117.424 70.893 117.424C73.0263 117.424 75.0103 117.851 76.845 118.704C78.7223 119.557 80.3223 120.731 81.645 122.224C83.0103 123.717 84.077 125.467 84.845 127.472C85.6557 129.477 86.061 131.632 86.061 133.936V135.408H59.757C60.0983 138.565 61.3997 141.189 63.661 143.28C65.9223 145.371 68.6317 146.416 71.789 146.416C73.453 146.416 75.0743 146.16 76.653 145.648C78.2317 145.136 79.5543 144.411 80.621 143.472L83.565 146.608ZM70.765 121.584C67.9917 121.584 65.581 122.523 63.533 124.4C61.5277 126.277 60.3117 128.688 59.885 131.632H81.325C80.8983 128.816 79.6823 126.448 77.677 124.528C75.7143 122.565 73.4103 121.584 70.765 121.584ZM124 133.936C124 136.24 123.573 138.416 122.72 140.464C121.909 142.512 120.779 144.283 119.328 145.776C117.877 147.227 116.149 148.379 114.144 149.232C112.181 150.085 110.069 150.512 107.808 150.512C105.931 150.512 104.096 150.192 102.304 149.552C100.555 148.912 98.9547 147.995 97.504 146.8V150H92.832V105.2L97.568 104.112V121.328C98.8907 120.048 100.427 119.088 102.176 118.448C103.968 117.765 105.867 117.424 107.872 117.424C110.133 117.424 112.245 117.851 114.208 118.704C116.171 119.557 117.877 120.731 119.328 122.224C120.779 123.675 121.909 125.424 122.72 127.472C123.573 129.477 124 131.632 124 133.936ZM107.424 121.584C105.419 121.584 103.541 121.989 101.792 122.8C100.085 123.568 98.6773 124.656 97.568 126.064V141.936C98.6773 143.301 100.107 144.389 101.856 145.2C103.605 145.968 105.461 146.352 107.424 146.352C110.795 146.352 113.611 145.179 115.872 142.832C118.176 140.443 119.328 137.499 119.328 134C119.328 132.251 119.008 130.629 118.368 129.136C117.771 127.6 116.939 126.277 115.872 125.168C114.805 124.059 113.547 123.184 112.096 122.544C110.645 121.904 109.088 121.584 107.424 121.584ZM154.744 150.576C151.245 150.576 148.387 149.68 146.168 147.888C143.992 146.096 142.904 143.771 142.904 140.912C142.904 137.925 144.056 135.557 146.36 133.808C148.664 132.016 151.779 131.12 155.704 131.12C157.411 131.12 159.053 131.312 160.632 131.696C162.253 132.08 163.747 132.613 165.112 133.296V129.072C165.112 126.512 164.387 124.592 162.936 123.312C161.485 121.989 159.373 121.328 156.6 121.328C155.021 121.328 153.421 121.563 151.8 122.032C150.221 122.459 148.472 123.163 146.552 124.144L144.76 120.496C147.064 119.387 149.197 118.576 151.16 118.064C153.123 117.552 155.085 117.296 157.048 117.296C161.101 117.296 164.216 118.256 166.392 120.176C168.611 122.096 169.72 124.848 169.72 128.432V150H165.112V146.864C163.661 148.101 162.061 149.04 160.312 149.68C158.605 150.277 156.749 150.576 154.744 150.576ZM147.448 140.784C147.448 142.576 148.195 144.048 149.688 145.2C151.224 146.309 153.187 146.864 155.576 146.864C157.496 146.864 159.245 146.565 160.824 145.968C162.403 145.371 163.832 144.432 165.112 143.152V137.136C163.789 136.24 162.36 135.6 160.824 135.216C159.331 134.789 157.667 134.576 155.832 134.576C153.272 134.576 151.224 135.152 149.688 136.304C148.195 137.413 147.448 138.907 147.448 140.784ZM177.782 163.12V117.936H182.454V121.392C183.819 120.069 185.377 119.088 187.126 118.448C188.918 117.765 190.817 117.424 192.822 117.424C195.083 117.424 197.195 117.851 199.158 118.704C201.121 119.557 202.827 120.731 204.278 122.224C205.729 123.675 206.859 125.424 207.67 127.472C208.523 129.477 208.95 131.632 208.95 133.936C208.95 136.24 208.523 138.416 207.67 140.464C206.859 142.512 205.729 144.283 204.278 145.776C202.827 147.227 201.099 148.379 199.094 149.232C197.131 150.085 195.019 150.512 192.758 150.512C190.881 150.512 189.067 150.192 187.318 149.552C185.569 148.912 183.969 147.995 182.518 146.8V163.12H177.782ZM192.374 121.584C190.369 121.584 188.491 121.989 186.742 122.8C185.035 123.568 183.627 124.656 182.518 126.064V141.936C183.627 143.301 185.057 144.389 186.806 145.2C188.555 145.968 190.411 146.352 192.374 146.352C195.745 146.352 198.561 145.179 200.822 142.832C203.126 140.443 204.278 137.499 204.278 134C204.278 132.251 203.958 130.629 203.318 129.136C202.721 127.6 201.889 126.277 200.822 125.168C199.755 124.059 198.497 123.184 197.046 122.544C195.595 121.904 194.038 121.584 192.374 121.584ZM215.682 163.12V117.936H220.354V121.392C221.719 120.069 223.277 119.088 225.026 118.448C226.818 117.765 228.717 117.424 230.722 117.424C232.983 117.424 235.095 117.851 237.058 118.704C239.021 119.557 240.727 120.731 242.178 122.224C243.629 123.675 244.759 125.424 245.57 127.472C246.423 129.477 246.85 131.632 246.85 133.936C246.85 136.24 246.423 138.416 245.57 140.464C244.759 142.512 243.629 144.283 242.178 145.776C240.727 147.227 238.999 148.379 236.994 149.232C235.031 150.085 232.919 150.512 230.658 150.512C228.781 150.512 226.967 150.192 225.218 149.552C223.469 148.912 221.869 147.995 220.418 146.8V163.12H215.682ZM230.274 121.584C228.269 121.584 226.391 121.989 224.642 122.8C222.935 123.568 221.527 124.656 220.418 126.064V141.936C221.527 143.301 222.957 144.389 224.706 145.2C226.455 145.968 228.311 146.352 230.274 146.352C233.645 146.352 236.461 145.179 238.722 142.832C241.026 140.443 242.178 137.499 242.178 134C242.178 132.251 241.858 130.629 241.218 129.136C240.621 127.6 239.789 126.277 238.722 125.168C237.655 124.059 236.397 123.184 234.946 122.544C233.495 121.904 231.938 121.584 230.274 121.584ZM258.318 104.112V150H253.582V105.2L258.318 104.112ZM268.912 111.792C268.059 111.792 267.312 111.472 266.672 110.832C266.032 110.192 265.712 109.445 265.712 108.592C265.712 107.696 266.032 106.949 266.672 106.352C267.312 105.712 268.059 105.392 268.912 105.392C269.808 105.392 270.555 105.712 271.152 106.352C271.792 106.949 272.112 107.696 272.112 108.592C272.112 109.445 271.792 110.192 271.152 110.832C270.555 111.472 269.808 111.792 268.912 111.792ZM271.28 117.936V150H266.544V117.936H271.28ZM294.483 146.288C296.19 146.288 297.832 145.947 299.411 145.264C300.99 144.581 302.462 143.579 303.827 142.256L306.771 145.456C305.064 147.077 303.144 148.336 301.011 149.232C298.878 150.128 296.659 150.576 294.355 150.576C292.094 150.576 289.96 150.149 287.955 149.296C285.95 148.443 284.222 147.269 282.771 145.776C281.32 144.283 280.168 142.512 279.315 140.464C278.462 138.416 278.035 136.24 278.035 133.936C278.035 131.632 278.462 129.477 279.315 127.472C280.168 125.424 281.32 123.653 282.771 122.16C284.222 120.667 285.95 119.493 287.955 118.64C289.96 117.744 292.094 117.296 294.355 117.296C296.659 117.296 298.899 117.744 301.075 118.64C303.294 119.536 305.235 120.773 306.899 122.352L303.891 125.808C302.611 124.485 301.139 123.461 299.475 122.736C297.811 122.011 296.126 121.648 294.419 121.648C292.798 121.648 291.262 121.968 289.811 122.608C288.36 123.248 287.102 124.123 286.035 125.232C285.011 126.341 284.2 127.643 283.603 129.136C283.006 130.629 282.707 132.229 282.707 133.936C282.707 135.685 283.006 137.328 283.603 138.864C284.243 140.357 285.075 141.659 286.099 142.768C287.166 143.835 288.424 144.688 289.875 145.328C291.326 145.968 292.862 146.288 294.483 146.288ZM322.582 150.576C319.083 150.576 316.224 149.68 314.006 147.888C311.83 146.096 310.742 143.771 310.742 140.912C310.742 137.925 311.894 135.557 314.198 133.808C316.502 132.016 319.616 131.12 323.542 131.12C325.248 131.12 326.891 131.312 328.47 131.696C330.091 132.08 331.584 132.613 332.95 133.296V129.072C332.95 126.512 332.224 124.592 330.774 123.312C329.323 121.989 327.211 121.328 324.438 121.328C322.859 121.328 321.259 121.563 319.638 122.032C318.059 122.459 316.31 123.163 314.39 124.144L312.598 120.496C314.902 119.387 317.035 118.576 318.998 118.064C320.96 117.552 322.923 117.296 324.885 117.296C328.939 117.296 332.054 118.256 334.23 120.176C336.448 122.096 337.558 124.848 337.558 128.432V150H332.95V146.864C331.499 148.101 329.899 149.04 328.15 149.68C326.443 150.277 324.587 150.576 322.582 150.576ZM315.286 140.784C315.286 142.576 316.032 144.048 317.526 145.2C319.062 146.309 321.024 146.864 323.414 146.864C325.334 146.864 327.083 146.565 328.662 145.968C330.24 145.371 331.67 144.432 332.95 143.152V137.136C331.627 136.24 330.198 135.6 328.662 135.216C327.168 134.789 325.504 134.576 323.67 134.576C321.11 134.576 319.062 135.152 317.526 136.304C316.032 137.413 315.286 138.907 315.286 140.784ZM348.337 142.832V121.968H341.425V117.936H348.337V109.808L353.009 108.592V117.936H362.673V121.968H353.009V141.616C353.009 143.323 353.393 144.56 354.161 145.328C354.929 146.053 356.188 146.416 357.937 146.416C358.833 146.416 359.623 146.352 360.305 146.224C361.031 146.096 361.799 145.883 362.609 145.584V149.744C361.799 150.043 360.881 150.256 359.857 150.384C358.876 150.512 357.916 150.576 356.977 150.576C354.204 150.576 352.071 149.915 350.577 148.592C349.084 147.269 348.337 145.349 348.337 142.832ZM370.262 111.792C369.409 111.792 368.662 111.472 368.022 110.832C367.382 110.192 367.062 109.445 367.062 108.592C367.062 107.696 367.382 106.949 368.022 106.352C368.662 105.712 369.409 105.392 370.262 105.392C371.158 105.392 371.905 105.712 372.502 106.352C373.142 106.949 373.462 107.696 373.462 108.592C373.462 109.445 373.142 110.192 372.502 110.832C371.905 111.472 371.158 111.792 370.262 111.792ZM372.63 117.936V150H367.894V117.936H372.63ZM379.385 133.936C379.385 131.632 379.812 129.456 380.665 127.408C381.518 125.36 382.67 123.589 384.121 122.096C385.614 120.603 387.364 119.429 389.369 118.576C391.374 117.723 393.508 117.296 395.769 117.296C398.03 117.296 400.142 117.723 402.105 118.576C404.11 119.429 405.838 120.603 407.289 122.096C408.782 123.589 409.956 125.36 410.809 127.408C411.662 129.456 412.089 131.632 412.089 133.936C412.089 136.283 411.662 138.48 410.809 140.528C409.956 142.576 408.782 144.347 407.289 145.84C405.838 147.333 404.11 148.507 402.105 149.36C400.142 150.213 398.03 150.64 395.769 150.64C393.508 150.64 391.374 150.213 389.369 149.36C387.364 148.507 385.614 147.333 384.121 145.84C382.67 144.347 381.518 142.576 380.665 140.528C379.812 138.48 379.385 136.283 379.385 133.936ZM395.769 146.416C397.39 146.416 398.905 146.096 400.313 145.456C401.764 144.816 403.001 143.941 404.025 142.832C405.092 141.68 405.924 140.357 406.521 138.864C407.118 137.328 407.417 135.685 407.417 133.936C407.417 132.187 407.118 130.565 406.521 129.072C405.924 127.536 405.092 126.213 404.025 125.104C403.001 123.995 401.764 123.12 400.313 122.48C398.905 121.84 397.39 121.52 395.769 121.52C394.148 121.52 392.612 121.84 391.161 122.48C389.753 123.12 388.516 123.995 387.449 125.104C386.425 126.213 385.593 127.536 384.953 129.072C384.356 130.565 384.057 132.187 384.057 133.936C384.057 135.685 384.356 137.328 384.953 138.864C385.55 140.357 386.361 141.68 387.385 142.832C388.452 143.941 389.71 144.816 391.161 145.456C392.612 146.096 394.148 146.416 395.769 146.416ZM418.82 150V117.936H423.556V121.712C424.793 120.261 426.265 119.173 427.972 118.448C429.678 117.68 431.577 117.296 433.668 117.296C437.294 117.296 440.26 118.448 442.564 120.752C444.868 123.056 446.02 126.043 446.02 129.712V150H441.348V130.672C441.348 127.856 440.537 125.616 438.916 123.952C437.294 122.288 435.118 121.456 432.388 121.456C430.468 121.456 428.74 121.883 427.204 122.736C425.71 123.589 424.494 124.805 423.556 126.384V150H418.82ZM10.56 218.936C10.56 216.632 10.9867 214.456 11.84 212.408C12.6933 210.36 13.8453 208.589 15.296 207.096C16.7893 205.603 18.5387 204.429 20.544 203.576C22.5493 202.723 24.6827 202.296 26.944 202.296C29.2053 202.296 31.3173 202.723 33.28 203.576C35.2853 204.429 37.0133 205.603 38.464 207.096C39.9573 208.589 41.1307 210.36 41.984 212.408C42.8373 214.456 43.264 216.632 43.264 218.936C43.264 221.283 42.8373 223.48 41.984 225.528C41.1307 227.576 39.9573 229.347 38.464 230.84C37.0133 232.333 35.2853 233.507 33.28 234.36C31.3173 235.213 29.2053 235.64 26.944 235.64C24.6827 235.64 22.5493 235.213 20.544 234.36C18.5387 233.507 16.7893 232.333 15.296 230.84C13.8453 229.347 12.6933 227.576 11.84 225.528C10.9867 223.48 10.56 221.283 10.56 218.936ZM26.944 231.416C28.5653 231.416 30.08 231.096 31.488 230.456C32.9387 229.816 34.176 228.941 35.2 227.832C36.2667 226.68 37.0987 225.357 37.696 223.864C38.2933 222.328 38.592 220.685 38.592 218.936C38.592 217.187 38.2933 215.565 37.696 214.072C37.0987 212.536 36.2667 211.213 35.2 210.104C34.176 208.995 32.9387 208.12 31.488 207.48C30.08 206.84 28.5653 206.52 26.944 206.52C25.3227 206.52 23.7867 206.84 22.336 207.48C20.928 208.12 19.6907 208.995 18.624 210.104C17.6 211.213 16.768 212.536 16.128 214.072C15.5307 215.565 15.232 217.187 15.232 218.936C15.232 220.685 15.5307 222.328 16.128 223.864C16.7253 225.357 17.536 226.68 18.56 227.832C19.6267 228.941 20.8853 229.816 22.336 230.456C23.7867 231.096 25.3227 231.416 26.944 231.416ZM49.9945 248.12V202.936H54.6665V206.392C56.0318 205.069 57.5892 204.088 59.3385 203.448C61.1305 202.765 63.0292 202.424 65.0345 202.424C67.2958 202.424 69.4078 202.851 71.3705 203.704C73.3332 204.557 75.0398 205.731 76.4905 207.224C77.9412 208.675 79.0718 210.424 79.8825 212.472C80.7358 214.477 81.1625 216.632 81.1625 218.936C81.1625 221.24 80.7358 223.416 79.8825 225.464C79.0718 227.512 77.9412 229.283 76.4905 230.776C75.0398 232.227 73.3118 233.379 71.3065 234.232C69.3438 235.085 67.2318 235.512 64.9705 235.512C63.0932 235.512 61.2798 235.192 59.5305 234.552C57.7812 233.912 56.1812 232.995 54.7305 231.8V248.12H49.9945ZM64.5865 206.584C62.5812 206.584 60.7038 206.989 58.9545 207.8C57.2478 208.568 55.8398 209.656 54.7305 211.064V226.936C55.8398 228.301 57.2692 229.389 59.0185 230.2C60.7678 230.968 62.6238 231.352 64.5865 231.352C67.9572 231.352 70.7732 230.179 73.0345 227.832C75.3385 225.443 76.4905 222.499 76.4905 219C76.4905 217.251 76.1705 215.629 75.5305 214.136C74.9332 212.6 74.1012 211.277 73.0345 210.168C71.9678 209.059 70.7092 208.184 69.2585 207.544C67.8078 206.904 66.2505 206.584 64.5865 206.584ZM89.55 227.832V206.968H82.638V202.936H89.55V194.808L94.222 193.592V202.936H103.886V206.968H94.222V226.616C94.222 228.323 94.606 229.56 95.374 230.328C96.142 231.053 97.4007 231.416 99.15 231.416C100.046 231.416 100.835 231.352 101.518 231.224C102.243 231.096 103.011 230.883 103.822 230.584V234.744C103.011 235.043 102.094 235.256 101.07 235.384C100.089 235.512 99.1287 235.576 98.19 235.576C95.4167 235.576 93.2833 234.915 91.79 233.592C90.2967 232.269 89.55 230.349 89.55 227.832ZM111.475 196.792C110.622 196.792 109.875 196.472 109.235 195.832C108.595 195.192 108.275 194.445 108.275 193.592C108.275 192.696 108.595 191.949 109.235 191.352C109.875 190.712 110.622 190.392 111.475 190.392C112.371 190.392 113.118 190.712 113.715 191.352C114.355 191.949 114.675 192.696 114.675 193.592C114.675 194.445 114.355 195.192 113.715 195.832C113.118 196.472 112.371 196.792 111.475 196.792ZM113.843 202.936V235H109.107V202.936H113.843ZM122.069 235V202.936H126.805V206.456C128 205.091 129.387 204.067 130.965 203.384C132.544 202.659 134.293 202.296 136.213 202.296C138.432 202.296 140.416 202.829 142.165 203.896C143.957 204.92 145.344 206.328 146.326 208.12C147.648 206.157 149.227 204.707 151.062 203.768C152.939 202.787 155.029 202.296 157.333 202.296C160.79 202.296 163.606 203.448 165.782 205.752C168 208.056 169.11 211.043 169.11 214.712V235H164.438V215.672C164.438 212.856 163.691 210.616 162.198 208.952C160.704 207.288 158.678 206.456 156.118 206.456C154.368 206.456 152.768 206.904 151.318 207.8C149.867 208.696 148.63 209.997 147.605 211.704C147.691 212.173 147.755 212.664 147.798 213.176C147.883 213.645 147.925 214.157 147.925 214.712V235H143.253V215.672C143.253 212.856 142.507 210.616 141.014 208.952C139.52 207.288 137.515 206.456 134.997 206.456C133.291 206.456 131.733 206.861 130.325 207.672C128.96 208.44 127.787 209.592 126.805 211.128V235H122.069ZM179.588 196.792C178.734 196.792 177.988 196.472 177.348 195.832C176.708 195.192 176.388 194.445 176.388 193.592C176.388 192.696 176.708 191.949 177.348 191.352C177.988 190.712 178.734 190.392 179.588 190.392C180.484 190.392 181.23 190.712 181.828 191.352C182.468 191.949 182.788 192.696 182.788 193.592C182.788 194.445 182.468 195.192 181.828 195.832C181.23 196.472 180.484 196.792 179.588 196.792ZM181.956 202.936V235H177.22V202.936H181.956ZM188.134 235V231.288L207.462 207.16H188.326V202.936H213.222V206.584L193.83 230.776H213.414V235H188.134ZM245.778 231.608C243.986 232.931 242.108 233.933 240.146 234.616C238.226 235.256 236.114 235.576 233.81 235.576C231.506 235.576 229.33 235.149 227.282 234.296C225.276 233.443 223.527 232.269 222.034 230.776C220.583 229.283 219.431 227.533 218.578 225.528C217.724 223.48 217.298 221.283 217.298 218.936C217.298 216.632 217.703 214.477 218.514 212.472C219.367 210.467 220.498 208.717 221.906 207.224C223.314 205.731 224.978 204.557 226.898 203.704C228.86 202.851 230.93 202.424 233.106 202.424C235.239 202.424 237.223 202.851 239.058 203.704C240.935 204.557 242.535 205.731 243.858 207.224C245.223 208.717 246.29 210.467 247.058 212.472C247.868 214.477 248.274 216.632 248.274 218.936V220.408H221.97C222.311 223.565 223.612 226.189 225.874 228.28C228.135 230.371 230.844 231.416 234.002 231.416C235.666 231.416 237.287 231.16 238.866 230.648C240.444 230.136 241.767 229.411 242.834 228.472L245.778 231.608ZM232.978 206.584C230.204 206.584 227.794 207.523 225.746 209.4C223.74 211.277 222.524 213.688 222.098 216.632H243.538C243.111 213.816 241.895 211.448 239.89 209.528C237.927 207.565 235.623 206.584 232.978 206.584ZM280.131 235V231.608C278.766 232.888 277.187 233.869 275.395 234.552C273.646 235.192 271.768 235.512 269.763 235.512C267.502 235.512 265.39 235.085 263.427 234.232C261.464 233.379 259.758 232.227 258.307 230.776C256.856 229.283 255.704 227.512 254.851 225.464C254.04 223.416 253.635 221.24 253.635 218.936C253.635 216.632 254.04 214.477 254.851 212.472C255.704 210.424 256.856 208.675 258.307 207.224C259.758 205.731 261.464 204.557 263.427 203.704C265.432 202.851 267.566 202.424 269.827 202.424C271.662 202.424 273.454 202.744 275.203 203.384C276.995 203.981 278.616 204.877 280.067 206.072V190.2L284.803 189.112V235H280.131ZM258.307 218.872C258.307 220.621 258.606 222.264 259.203 223.8C259.843 225.336 260.696 226.659 261.763 227.768C262.83 228.877 264.088 229.752 265.539 230.392C266.99 231.032 268.547 231.352 270.211 231.352C272.216 231.352 274.072 230.968 275.779 230.2C277.528 229.389 278.958 228.28 280.067 226.872V211C278.958 209.635 277.528 208.568 275.779 207.8C274.03 206.989 272.174 206.584 270.211 206.584C266.883 206.584 264.067 207.757 261.763 210.104C259.459 212.451 258.307 215.373 258.307 218.872ZM303.963 202.936H311.515V196.856C311.515 193.741 312.368 191.352 314.075 189.688C315.782 187.981 318.235 187.128 321.435 187.128C322.288 187.128 323.056 187.171 323.739 187.256C324.422 187.341 325.083 187.491 325.723 187.704V191.928C324.998 191.715 324.336 191.565 323.739 191.48C323.142 191.352 322.48 191.288 321.755 191.288C319.878 191.288 318.47 191.757 317.531 192.696C316.635 193.592 316.187 195.021 316.187 196.984V202.936H325.723V206.968H316.187V235H311.515V206.968H303.963V202.936ZM327.835 218.936C327.835 216.632 328.262 214.456 329.115 212.408C329.968 210.36 331.12 208.589 332.571 207.096C334.064 205.603 335.814 204.429 337.819 203.576C339.824 202.723 341.958 202.296 344.219 202.296C346.48 202.296 348.592 202.723 350.555 203.576C352.56 204.429 354.288 205.603 355.739 207.096C357.232 208.589 358.406 210.36 359.259 212.408C360.112 214.456 360.539 216.632 360.539 218.936C360.539 221.283 360.112 223.48 359.259 225.528C358.406 227.576 357.232 229.347 355.739 230.84C354.288 232.333 352.56 233.507 350.555 234.36C348.592 235.213 346.48 235.64 344.219 235.64C341.958 235.64 339.824 235.213 337.819 234.36C335.814 233.507 334.064 232.333 332.571 230.84C331.12 229.347 329.968 227.576 329.115 225.528C328.262 223.48 327.835 221.283 327.835 218.936ZM344.219 231.416C345.84 231.416 347.355 231.096 348.763 230.456C350.214 229.816 351.451 228.941 352.475 227.832C353.542 226.68 354.374 225.357 354.971 223.864C355.568 222.328 355.867 220.685 355.867 218.936C355.867 217.187 355.568 215.565 354.971 214.072C354.374 212.536 353.542 211.213 352.475 210.104C351.451 208.995 350.214 208.12 348.763 207.48C347.355 206.84 345.84 206.52 344.219 206.52C342.598 206.52 341.062 206.84 339.611 207.48C338.203 208.12 336.966 208.995 335.899 210.104C334.875 211.213 334.043 212.536 333.403 214.072C332.806 215.565 332.507 217.187 332.507 218.936C332.507 220.685 332.806 222.328 333.403 223.864C334 225.357 334.811 226.68 335.835 227.832C336.902 228.941 338.16 229.816 339.611 230.456C341.062 231.096 342.598 231.416 344.219 231.416ZM367.269 235V202.936H372.005V207.48C372.944 205.816 374.181 204.536 375.717 203.64C377.253 202.701 379.003 202.232 380.965 202.232C381.563 202.232 382.096 202.275 382.565 202.36C383.035 202.403 383.504 202.509 383.973 202.68V207.032C383.419 206.861 382.864 206.733 382.309 206.648C381.755 206.52 381.2 206.456 380.645 206.456C378.683 206.456 376.955 207.032 375.461 208.184C373.968 209.293 372.816 210.915 372.005 213.048V235H367.269ZM440.437 216.056C440.437 222.029 438.751 226.808 435.381 230.392C432.053 233.933 427.573 235.704 421.941 235.704C416.266 235.704 411.765 233.933 408.437 230.392C405.109 226.851 403.445 222.072 403.445 216.056V190.2H408.373V216.056C408.373 220.621 409.61 224.291 412.085 227.064C414.559 229.795 417.845 231.16 421.941 231.16C426.037 231.16 429.322 229.795 431.797 227.064C434.271 224.291 435.509 220.621 435.509 216.056V190.2H440.437V216.056ZM445.706 230.584L448.586 227.512C450.036 228.877 451.658 229.944 453.45 230.712C455.284 231.437 457.14 231.8 459.018 231.8C461.578 231.8 463.668 231.267 465.29 230.2C466.911 229.133 467.722 227.747 467.722 226.04C467.722 224.675 467.231 223.608 466.25 222.84C465.311 222.029 463.818 221.475 461.77 221.176L456.202 220.408C453.002 219.939 450.612 219 449.034 217.592C447.498 216.141 446.73 214.2 446.73 211.768C446.73 209.08 447.86 206.861 450.122 205.112C452.383 203.32 455.263 202.424 458.762 202.424C461.066 202.424 463.242 202.765 465.29 203.448C467.38 204.131 469.407 205.197 471.37 206.648L468.874 209.848C467.082 208.653 465.332 207.757 463.626 207.16C461.962 206.563 460.255 206.264 458.506 206.264C456.33 206.264 454.538 206.755 453.13 207.736C451.764 208.717 451.082 209.997 451.082 211.576C451.082 212.941 451.551 214.008 452.49 214.776C453.428 215.501 454.943 216.013 457.034 216.312L462.602 217.08C465.802 217.507 468.191 218.467 469.77 219.96C471.391 221.411 472.202 223.352 472.202 225.784C472.202 227.149 471.86 228.451 471.178 229.688C470.538 230.883 469.62 231.928 468.426 232.824C467.274 233.677 465.908 234.36 464.33 234.872C462.751 235.341 461.044 235.576 459.21 235.576C456.564 235.576 454.068 235.149 451.722 234.296C449.418 233.4 447.412 232.163 445.706 230.584ZM505.002 231.608C503.21 232.931 501.333 233.933 499.37 234.616C497.45 235.256 495.338 235.576 493.034 235.576C490.73 235.576 488.554 235.149 486.506 234.296C484.501 233.443 482.752 232.269 481.258 230.776C479.808 229.283 478.656 227.533 477.802 225.528C476.949 223.48 476.522 221.283 476.522 218.936C476.522 216.632 476.928 214.477 477.738 212.472C478.592 210.467 479.722 208.717 481.13 207.224C482.538 205.731 484.202 204.557 486.122 203.704C488.085 202.851 490.154 202.424 492.33 202.424C494.464 202.424 496.448 202.851 498.282 203.704C500.16 204.557 501.76 205.731 503.082 207.224C504.448 208.717 505.514 210.467 506.282 212.472C507.093 214.477 507.498 216.632 507.498 218.936V220.408H481.194C481.536 223.565 482.837 226.189 485.098 228.28C487.36 230.371 490.069 231.416 493.226 231.416C494.89 231.416 496.512 231.16 498.09 230.648C499.669 230.136 500.992 229.411 502.058 228.472L505.002 231.608ZM492.202 206.584C489.429 206.584 487.018 207.523 484.97 209.4C482.965 211.277 481.749 213.688 481.322 216.632H502.762C502.336 213.816 501.12 211.448 499.114 209.528C497.152 207.565 494.848 206.584 492.202 206.584ZM514.269 235V202.936H519.005V207.48C519.944 205.816 521.181 204.536 522.717 203.64C524.253 202.701 526.003 202.232 527.965 202.232C528.563 202.232 529.096 202.275 529.565 202.36C530.035 202.403 530.504 202.509 530.973 202.68V207.032C530.419 206.861 529.864 206.733 529.309 206.648C528.755 206.52 528.2 206.456 527.645 206.456C525.683 206.456 523.955 207.032 522.461 208.184C520.968 209.293 519.816 210.915 519.005 213.048V235H514.269ZM12.928 320V275.2H44.992V279.552H17.856V295.232H35.584V299.52H17.856V315.648H45.248V320H12.928ZM47.7825 320L60.3905 303.488L48.4225 287.936H54.0545L63.1425 299.968L72.2305 287.936H77.6705L65.8305 303.424L78.5025 320H72.8705L63.0785 306.944L53.1585 320H47.7825ZM83.082 333.12V287.936H87.754V291.392C89.1193 290.069 90.6767 289.088 92.426 288.448C94.218 287.765 96.1167 287.424 98.122 287.424C100.383 287.424 102.495 287.851 104.458 288.704C106.421 289.557 108.127 290.731 109.578 292.224C111.029 293.675 112.159 295.424 112.97 297.472C113.823 299.477 114.25 301.632 114.25 303.936C114.25 306.24 113.823 308.416 112.97 310.464C112.159 312.512 111.029 314.283 109.578 315.776C108.127 317.227 106.399 318.379 104.394 319.232C102.431 320.085 100.319 320.512 98.058 320.512C96.1807 320.512 94.3673 320.192 92.618 319.552C90.8687 318.912 89.2687 317.995 87.818 316.8V333.12H83.082ZM97.674 291.584C95.6687 291.584 93.7913 291.989 92.042 292.8C90.3353 293.568 88.9273 294.656 87.818 296.064V311.936C88.9273 313.301 90.3567 314.389 92.106 315.2C93.8553 315.968 95.7113 316.352 97.674 316.352C101.045 316.352 103.861 315.179 106.122 312.832C108.426 310.443 109.578 307.499 109.578 304C109.578 302.251 109.258 300.629 108.618 299.136C108.021 297.6 107.189 296.277 106.122 295.168C105.055 294.059 103.797 293.184 102.346 292.544C100.895 291.904 99.338 291.584 97.674 291.584ZM148.052 316.608C146.26 317.931 144.383 318.933 142.42 319.616C140.5 320.256 138.388 320.576 136.084 320.576C133.78 320.576 131.604 320.149 129.556 319.296C127.551 318.443 125.802 317.269 124.308 315.776C122.858 314.283 121.706 312.533 120.852 310.528C119.999 308.48 119.572 306.283 119.572 303.936C119.572 301.632 119.978 299.477 120.788 297.472C121.642 295.467 122.772 293.717 124.18 292.224C125.588 290.731 127.252 289.557 129.172 288.704C131.135 287.851 133.204 287.424 135.38 287.424C137.514 287.424 139.498 287.851 141.332 288.704C143.21 289.557 144.81 290.731 146.132 292.224C147.498 293.717 148.564 295.467 149.332 297.472C150.143 299.477 150.549 301.632 150.549 303.936V305.408H124.244C124.586 308.565 125.887 311.189 128.148 313.28C130.41 315.371 133.119 316.416 136.276 316.416C137.94 316.416 139.562 316.16 141.14 315.648C142.719 315.136 144.042 314.411 145.108 313.472L148.052 316.608ZM135.252 291.584C132.479 291.584 130.068 292.523 128.02 294.4C126.015 296.277 124.799 298.688 124.372 301.632H145.812C145.386 298.816 144.17 296.448 142.164 294.528C140.202 292.565 137.898 291.584 135.252 291.584ZM157.32 320V287.936H162.056V292.48C162.994 290.816 164.232 289.536 165.768 288.64C167.304 287.701 169.053 287.232 171.016 287.232C171.613 287.232 172.146 287.275 172.616 287.36C173.085 287.403 173.554 287.509 174.024 287.68V292.032C173.469 291.861 172.914 291.733 172.36 291.648C171.805 291.52 171.25 291.456 170.696 291.456C168.733 291.456 167.005 292.032 165.512 293.184C164.018 294.293 162.866 295.915 162.056 298.048V320H157.32ZM181.963 281.792C181.109 281.792 180.363 281.472 179.723 280.832C179.083 280.192 178.763 279.445 178.763 278.592C178.763 277.696 179.083 276.949 179.723 276.352C180.363 275.712 181.109 275.392 181.963 275.392C182.859 275.392 183.605 275.712 184.203 276.352C184.843 276.949 185.163 277.696 185.163 278.592C185.163 279.445 184.843 280.192 184.203 280.832C183.605 281.472 182.859 281.792 181.963 281.792ZM184.331 287.936V320H179.595V287.936H184.331ZM219.565 316.608C217.773 317.931 215.896 318.933 213.933 319.616C212.013 320.256 209.901 320.576 207.597 320.576C205.293 320.576 203.117 320.149 201.069 319.296C199.064 318.443 197.314 317.269 195.821 315.776C194.37 314.283 193.218 312.533 192.365 310.528C191.512 308.48 191.085 306.283 191.085 303.936C191.085 301.632 191.49 299.477 192.301 297.472C193.154 295.467 194.285 293.717 195.693 292.224C197.101 290.731 198.765 289.557 200.685 288.704C202.648 287.851 204.717 287.424 206.893 287.424C209.026 287.424 211.01 287.851 212.845 288.704C214.722 289.557 216.322 290.731 217.645 292.224C219.01 293.717 220.077 295.467 220.845 297.472C221.656 299.477 222.061 301.632 222.061 303.936V305.408H195.757C196.098 308.565 197.4 311.189 199.661 313.28C201.922 315.371 204.632 316.416 207.789 316.416C209.453 316.416 211.074 316.16 212.653 315.648C214.232 315.136 215.554 314.411 216.621 313.472L219.565 316.608ZM206.765 291.584C203.992 291.584 201.581 292.523 199.533 294.4C197.528 296.277 196.312 298.688 195.885 301.632H217.325C216.898 298.816 215.682 296.448 213.677 294.528C211.714 292.565 209.41 291.584 206.765 291.584ZM228.832 320V287.936H233.568V291.712C234.805 290.261 236.277 289.173 237.984 288.448C239.691 287.68 241.589 287.296 243.68 287.296C247.307 287.296 250.272 288.448 252.576 290.752C254.88 293.056 256.032 296.043 256.032 299.712V320H251.36V300.672C251.36 297.856 250.549 295.616 248.928 293.952C247.307 292.288 245.131 291.456 242.4 291.456C240.48 291.456 238.752 291.883 237.216 292.736C235.723 293.589 234.507 294.805 233.568 296.384V320H228.832ZM279.083 316.288C280.79 316.288 282.432 315.947 284.011 315.264C285.59 314.581 287.062 313.579 288.427 312.256L291.371 315.456C289.664 317.077 287.744 318.336 285.611 319.232C283.478 320.128 281.259 320.576 278.955 320.576C276.694 320.576 274.56 320.149 272.555 319.296C270.55 318.443 268.822 317.269 267.371 315.776C265.92 314.283 264.768 312.512 263.915 310.464C263.062 308.416 262.635 306.24 262.635 303.936C262.635 301.632 263.062 299.477 263.915 297.472C264.768 295.424 265.92 293.653 267.371 292.16C268.822 290.667 270.55 289.493 272.555 288.64C274.56 287.744 276.694 287.296 278.955 287.296C281.259 287.296 283.499 287.744 285.675 288.64C287.894 289.536 289.835 290.773 291.499 292.352L288.491 295.808C287.211 294.485 285.739 293.461 284.075 292.736C282.411 292.011 280.726 291.648 279.019 291.648C277.398 291.648 275.862 291.968 274.411 292.608C272.96 293.248 271.702 294.123 270.635 295.232C269.611 296.341 268.8 297.643 268.203 299.136C267.606 300.629 267.307 302.229 267.307 303.936C267.307 305.685 267.606 307.328 268.203 308.864C268.843 310.357 269.675 311.659 270.699 312.768C271.766 313.835 273.024 314.688 274.475 315.328C275.926 315.968 277.462 316.288 279.083 316.288ZM322.828 316.608C321.036 317.931 319.158 318.933 317.196 319.616C315.276 320.256 313.164 320.576 310.86 320.576C308.556 320.576 306.38 320.149 304.332 319.296C302.326 318.443 300.577 317.269 299.084 315.776C297.633 314.283 296.481 312.533 295.628 310.528C294.774 308.48 294.348 306.283 294.348 303.936C294.348 301.632 294.753 299.477 295.564 297.472C296.417 295.467 297.548 293.717 298.956 292.224C300.364 290.731 302.028 289.557 303.948 288.704C305.91 287.851 307.98 287.424 310.156 287.424C312.289 287.424 314.273 287.851 316.108 288.704C317.985 289.557 319.585 290.731 320.908 292.224C322.273 293.717 323.34 295.467 324.108 297.472C324.918 299.477 325.324 301.632 325.324 303.936V305.408H299.02C299.361 308.565 300.662 311.189 302.924 313.28C305.185 315.371 307.894 316.416 311.052 316.416C312.716 316.416 314.337 316.16 315.916 315.648C317.494 315.136 318.817 314.411 319.884 313.472L322.828 316.608ZM310.028 291.584C307.254 291.584 304.844 292.523 302.796 294.4C300.79 296.277 299.574 298.688 299.148 301.632H320.588C320.161 298.816 318.945 296.448 316.94 294.528C314.977 292.565 312.673 291.584 310.028 291.584ZM332.461 313.856C333.357 313.856 334.125 314.176 334.765 314.816C335.405 315.456 335.725 316.224 335.725 317.12C335.725 318.016 335.405 318.784 334.765 319.424C334.125 320.064 333.357 320.384 332.461 320.384C331.565 320.384 330.797 320.064 330.157 319.424C329.517 318.784 329.197 318.016 329.197 317.12C329.197 316.224 329.517 315.456 330.157 314.816C330.797 314.176 331.565 313.856 332.461 313.856Z" fill="black" fill-opacity="0.66"/>
<rect x="53" y="429" width="367" height="142" rx="10" fill="#4A4E4B"/>
<path d="M137.097 502.92C137.097 505.256 136.681 507.448 135.849 509.496C135.017 511.512 133.865 513.256 132.393 514.728C130.921 516.2 129.193 517.368 127.209 518.232C125.225 519.096 123.081 519.528 120.777 519.528C118.377 519.528 116.105 519.08 113.961 518.184C111.849 517.256 110.009 516.024 108.441 514.488C106.905 512.92 105.673 511.08 104.745 508.968C103.849 506.856 103.401 504.6 103.401 502.2C103.401 499.8 103.849 497.544 104.745 495.432C105.641 493.32 106.857 491.496 108.393 489.96C109.961 488.392 111.801 487.16 113.913 486.264C116.057 485.336 118.329 484.872 120.729 484.872C123.321 484.872 125.769 485.368 128.073 486.36C130.377 487.32 132.345 488.664 133.977 490.392L131.481 492.936C130.201 491.464 128.601 490.328 126.681 489.528C124.761 488.696 122.777 488.28 120.729 488.28C118.809 488.28 117.017 488.648 115.353 489.384C113.689 490.088 112.249 491.064 111.033 492.312C109.849 493.528 108.905 495 108.201 496.728C107.497 498.424 107.145 500.248 107.145 502.2C107.145 504.152 107.497 505.992 108.201 507.72C108.905 509.416 109.849 510.888 111.033 512.136C112.249 513.352 113.689 514.328 115.353 515.064C117.017 515.768 118.809 516.12 120.729 516.12C122.425 516.12 124.009 515.832 125.481 515.256C126.985 514.68 128.281 513.896 129.369 512.904C130.489 511.88 131.401 510.664 132.105 509.256C132.809 507.848 133.225 506.328 133.353 504.696H121.305V501.432H137.097V502.92ZM162.547 516.456C161.203 517.448 159.795 518.2 158.323 518.712C156.883 519.192 155.299 519.432 153.571 519.432C151.843 519.432 150.211 519.112 148.675 518.472C147.171 517.832 145.859 516.952 144.739 515.832C143.651 514.712 142.787 513.4 142.147 511.896C141.507 510.36 141.187 508.712 141.187 506.952C141.187 505.224 141.491 503.608 142.099 502.104C142.739 500.6 143.587 499.288 144.643 498.168C145.699 497.048 146.947 496.168 148.387 495.528C149.859 494.888 151.411 494.568 153.043 494.568C154.643 494.568 156.131 494.888 157.507 495.528C158.915 496.168 160.115 497.048 161.107 498.168C162.131 499.288 162.931 500.6 163.507 502.104C164.115 503.608 164.419 505.224 164.419 506.952V508.056H144.691C144.947 510.424 145.923 512.392 147.619 513.96C149.315 515.528 151.347 516.312 153.715 516.312C154.963 516.312 156.179 516.12 157.363 515.736C158.547 515.352 159.539 514.808 160.339 514.104L162.547 516.456ZM152.947 497.688C150.867 497.688 149.059 498.392 147.523 499.8C146.019 501.208 145.107 503.016 144.787 505.224H160.867C160.547 503.112 159.635 501.336 158.131 499.896C156.659 498.424 154.931 497.688 152.947 497.688ZM171.573 513.624V497.976H166.389V494.952H171.573V488.856L175.077 487.944V494.952H182.325V497.976H175.077V512.712C175.077 513.992 175.365 514.92 175.941 515.496C176.517 516.04 177.461 516.312 178.773 516.312C179.445 516.312 180.037 516.264 180.549 516.168C181.093 516.072 181.669 515.912 182.277 515.688V518.808C181.669 519.032 180.981 519.192 180.213 519.288C179.477 519.384 178.757 519.432 178.053 519.432C175.973 519.432 174.373 518.936 173.253 517.944C172.133 516.952 171.573 515.512 171.573 513.624ZM197.413 519V485.4H211.813C215.077 485.4 217.717 486.296 219.733 488.088C221.749 489.848 222.757 492.168 222.757 495.048C222.757 497.256 222.101 499.16 220.789 500.76C219.509 502.36 217.781 503.464 215.605 504.072L223.141 519H219.061L211.861 504.552H201.109V519H197.413ZM211.573 488.712H201.109V501.432H211.573C213.813 501.432 215.621 500.856 216.997 499.704C218.373 498.52 219.061 496.968 219.061 495.048C219.061 493.128 218.373 491.592 216.997 490.44C215.621 489.288 213.813 488.712 211.573 488.712ZM246.632 516.456C245.288 517.448 243.88 518.2 242.408 518.712C240.968 519.192 239.384 519.432 237.656 519.432C235.928 519.432 234.296 519.112 232.76 518.472C231.256 517.832 229.944 516.952 228.824 515.832C227.736 514.712 226.872 513.4 226.232 511.896C225.592 510.36 225.272 508.712 225.272 506.952C225.272 505.224 225.576 503.608 226.184 502.104C226.824 500.6 227.672 499.288 228.728 498.168C229.784 497.048 231.032 496.168 232.472 495.528C233.944 494.888 235.496 494.568 237.128 494.568C238.728 494.568 240.216 494.888 241.592 495.528C243 496.168 244.2 497.048 245.192 498.168C246.216 499.288 247.016 500.6 247.592 502.104C248.2 503.608 248.504 505.224 248.504 506.952V508.056H228.776C229.032 510.424 230.008 512.392 231.704 513.96C233.4 515.528 235.432 516.312 237.8 516.312C239.048 516.312 240.264 516.12 241.448 515.736C242.632 515.352 243.624 514.808 244.424 514.104L246.632 516.456ZM237.032 497.688C234.952 497.688 233.144 498.392 231.608 499.8C230.104 501.208 229.192 503.016 228.872 505.224H244.952C244.632 503.112 243.72 501.336 242.216 499.896C240.744 498.424 239.016 497.688 237.032 497.688ZM264.658 519.384C262.962 519.384 261.378 519.064 259.906 518.424C258.434 517.784 257.154 516.92 256.066 515.832C254.978 514.712 254.114 513.384 253.474 511.848C252.866 510.312 252.562 508.68 252.562 506.952C252.562 505.224 252.866 503.608 253.474 502.104C254.114 500.568 254.978 499.256 256.066 498.168C257.154 497.048 258.434 496.168 259.906 495.528C261.41 494.888 263.01 494.568 264.706 494.568C266.146 494.568 267.522 494.808 268.834 495.288C270.178 495.768 271.378 496.44 272.434 497.304V494.952H275.938V528.84H272.386V516.504C271.362 517.432 270.178 518.152 268.834 518.664C267.522 519.144 266.13 519.384 264.658 519.384ZM256.066 506.904C256.066 508.216 256.29 509.448 256.738 510.6C257.218 511.752 257.858 512.744 258.658 513.576C259.458 514.408 260.402 515.064 261.49 515.544C262.578 516.024 263.746 516.264 264.994 516.264C266.498 516.264 267.89 515.976 269.17 515.4C270.482 514.792 271.554 513.96 272.386 512.904V501C271.554 499.976 270.482 499.176 269.17 498.6C267.858 497.992 266.466 497.688 264.994 497.688C262.498 497.688 260.386 498.568 258.658 500.328C256.93 502.088 256.066 504.28 256.066 506.904ZM285.537 494.952V509.448C285.537 511.56 286.145 513.24 287.361 514.488C288.577 515.736 290.209 516.36 292.257 516.36C293.697 516.36 294.977 516.04 296.097 515.4C297.249 514.728 298.177 513.8 298.881 512.616V494.952H302.433V519H298.881V516.216C297.953 517.304 296.849 518.12 295.569 518.664C294.321 519.208 292.913 519.48 291.345 519.48C288.593 519.48 286.353 518.616 284.625 516.888C282.897 515.16 282.033 512.92 282.033 510.168V494.952H285.537ZM328.878 516.456C327.534 517.448 326.126 518.2 324.654 518.712C323.214 519.192 321.63 519.432 319.902 519.432C318.174 519.432 316.542 519.112 315.006 518.472C313.502 517.832 312.19 516.952 311.07 515.832C309.982 514.712 309.118 513.4 308.478 511.896C307.838 510.36 307.518 508.712 307.518 506.952C307.518 505.224 307.822 503.608 308.43 502.104C309.07 500.6 309.918 499.288 310.974 498.168C312.03 497.048 313.278 496.168 314.718 495.528C316.19 494.888 317.742 494.568 319.374 494.568C320.974 494.568 322.462 494.888 323.838 495.528C325.246 496.168 326.446 497.048 327.438 498.168C328.462 499.288 329.262 500.6 329.838 502.104C330.446 503.608 330.75 505.224 330.75 506.952V508.056H311.022C311.278 510.424 312.254 512.392 313.95 513.96C315.646 515.528 317.678 516.312 320.046 516.312C321.294 516.312 322.51 516.12 323.694 515.736C324.878 515.352 325.87 514.808 326.67 514.104L328.878 516.456ZM319.278 497.688C317.198 497.688 315.39 498.392 313.854 499.8C312.35 501.208 311.438 503.016 311.118 505.224H327.198C326.878 503.112 325.966 501.336 324.462 499.896C322.99 498.424 321.262 497.688 319.278 497.688ZM333.653 515.688L335.813 513.384C336.901 514.408 338.117 515.208 339.461 515.784C340.837 516.328 342.229 516.6 343.637 516.6C345.557 516.6 347.125 516.2 348.341 515.4C349.557 514.6 350.165 513.56 350.165 512.28C350.165 511.256 349.797 510.456 349.061 509.88C348.357 509.272 347.237 508.856 345.701 508.632L341.525 508.056C339.125 507.704 337.333 507 336.149 505.944C334.997 504.856 334.421 503.4 334.421 501.576C334.421 499.56 335.269 497.896 336.965 496.584C338.661 495.24 340.821 494.568 343.445 494.568C345.173 494.568 346.805 494.824 348.341 495.336C349.909 495.848 351.429 496.648 352.901 497.736L351.029 500.136C349.685 499.24 348.373 498.568 347.093 498.12C345.845 497.672 344.565 497.448 343.253 497.448C341.621 497.448 340.277 497.816 339.221 498.552C338.197 499.288 337.685 500.248 337.685 501.432C337.685 502.456 338.037 503.256 338.741 503.832C339.445 504.376 340.581 504.76 342.149 504.984L346.325 505.56C348.725 505.88 350.517 506.6 351.701 507.72C352.917 508.808 353.525 510.264 353.525 512.088C353.525 513.112 353.269 514.088 352.757 515.016C352.277 515.912 351.589 516.696 350.693 517.368C349.829 518.008 348.805 518.52 347.621 518.904C346.437 519.256 345.157 519.432 343.781 519.432C341.797 519.432 339.925 519.112 338.165 518.472C336.437 517.8 334.933 516.872 333.653 515.688ZM360.18 513.624V497.976H354.996V494.952H360.18V488.856L363.684 487.944V494.952H370.932V497.976H363.684V512.712C363.684 513.992 363.972 514.92 364.548 515.496C365.124 516.04 366.068 516.312 367.38 516.312C368.052 516.312 368.644 516.264 369.156 516.168C369.7 516.072 370.276 515.912 370.884 515.688V518.808C370.276 519.032 369.588 519.192 368.82 519.288C368.084 519.384 367.364 519.432 366.66 519.432C364.58 519.432 362.98 518.936 361.86 517.944C360.74 516.952 360.18 515.512 360.18 513.624Z" fill="#F7F2E7"/>
</svg>
