<svg width="100%" height="100%" viewBox="0 0 367 142" fill="none" xmlns="http://www.w3.org/2000/svg">
<rect width="100%" height="100%" rx="10" fill="#4A4E4B"/>
<path d="M84.0971 73.92C84.0971 76.256 83.6811 78.448 82.8491 80.496C82.0171 82.512 80.8651 84.256 79.3931 85.728C77.9211 87.2 76.1931 88.368 74.2091 89.232C72.2251 90.096 70.0811 90.528 67.7771 90.528C65.3771 90.528 63.1051 90.08 60.9611 89.184C58.8491 88.256 57.0091 87.024 55.4411 85.488C53.9051 83.92 52.6731 82.08 51.7451 79.968C50.8491 77.856 50.4011 75.6 50.4011 73.2C50.4011 70.8 50.8491 68.544 51.7451 66.432C52.6411 64.32 53.8571 62.496 55.3931 60.96C56.9611 59.392 58.8011 58.16 60.9131 57.264C63.0571 56.336 65.3291 55.872 67.7291 55.872C70.3211 55.872 72.7691 56.368 75.0731 57.36C77.3771 58.32 79.3451 59.664 80.9771 61.392L78.4811 63.936C77.2011 62.464 75.6011 61.328 73.6811 60.528C71.7611 59.696 69.7771 59.28 67.7291 59.28C65.8091 59.28 64.0171 59.648 62.3531 60.384C60.6891 61.088 59.2491 62.064 58.0331 63.312C56.8491 64.528 55.9051 66 55.2011 67.728C54.4971 69.424 54.1451 71.248 54.1451 73.2C54.1451 75.152 54.4971 76.992 55.2011 78.72C55.9051 80.416 56.8491 81.888 58.0331 83.136C59.2491 84.352 60.6891 85.328 62.3531 86.064C64.0171 86.768 65.8091 87.12 67.7291 87.12C69.4251 87.12 71.0091 86.832 72.4811 86.256C73.9851 85.68 75.2811 84.896 76.3691 83.904C77.4891 82.88 78.4011 81.664 79.1051 80.256C79.8091 78.848 80.2251 77.328 80.3531 75.696H68.3051V72.432H84.0971V73.92ZM109.547 87.456C108.203 88.448 106.795 89.2 105.323 89.712C103.883 90.192 102.299 90.432 100.571 90.432C98.8432 90.432 97.2112 90.112 95.6752 89.472C94.1712 88.832 92.8592 87.952 91.7392 86.832C90.6512 85.712 89.7872 84.4 89.1472 82.896C88.5072 81.36 88.1872 79.712 88.1872 77.952C88.1872 76.224 88.4912 74.608 89.0992 73.104C89.7392 71.6 90.5872 70.288 91.6432 69.168C92.6992 68.048 93.9472 67.168 95.3872 66.528C96.8592 65.888 98.4112 65.568 100.043 65.568C101.643 65.568 103.131 65.888 104.507 66.528C105.915 67.168 107.115 68.048 108.107 69.168C109.131 70.288 109.931 71.6 110.507 73.104C111.115 74.608 111.419 76.224 111.419 77.952V79.056H91.6912C91.9472 81.424 92.9232 83.392 94.6192 84.96C96.3152 86.528 98.3472 87.312 100.715 87.312C101.963 87.312 103.179 87.12 104.363 86.736C105.547 86.352 106.539 85.808 107.339 85.104L109.547 87.456ZM99.9472 68.688C97.8672 68.688 96.0592 69.392 94.5232 70.8C93.0192 72.208 92.1072 74.016 91.7872 76.224H107.867C107.547 74.112 106.635 72.336 105.131 70.896C103.659 69.424 101.931 68.688 99.9472 68.688ZM118.573 84.624V68.976H113.389V65.952H118.573V59.856L122.077 58.944V65.952H129.325V68.976H122.077V83.712C122.077 84.992 122.365 85.92 122.941 86.496C123.517 87.04 124.461 87.312 125.773 87.312C126.445 87.312 127.037 87.264 127.549 87.168C128.093 87.072 128.669 86.912 129.277 86.688V89.808C128.669 90.032 127.981 90.192 127.213 90.288C126.477 90.384 125.757 90.432 125.053 90.432C122.973 90.432 121.373 89.936 120.253 88.944C119.133 87.952 118.573 86.512 118.573 84.624ZM144.413 90V56.4H158.813C162.077 56.4 164.717 57.296 166.733 59.088C168.749 60.848 169.757 63.168 169.757 66.048C169.757 68.256 169.101 70.16 167.789 71.76C166.509 73.36 164.781 74.464 162.605 75.072L170.141 90H166.061L158.861 75.552H148.109V90H144.413ZM158.573 59.712H148.109V72.432H158.573C160.813 72.432 162.621 71.856 163.997 70.704C165.373 69.52 166.061 67.968 166.061 66.048C166.061 64.128 165.373 62.592 163.997 61.44C162.621 60.288 160.813 59.712 158.573 59.712ZM193.632 87.456C192.288 88.448 190.88 89.2 189.408 89.712C187.968 90.192 186.384 90.432 184.656 90.432C182.928 90.432 181.296 90.112 179.76 89.472C178.256 88.832 176.944 87.952 175.824 86.832C174.736 85.712 173.872 84.4 173.232 82.896C172.592 81.36 172.272 79.712 172.272 77.952C172.272 76.224 172.576 74.608 173.184 73.104C173.824 71.6 174.672 70.288 175.728 69.168C176.784 68.048 178.032 67.168 179.472 66.528C180.944 65.888 182.496 65.568 184.128 65.568C185.728 65.568 187.216 65.888 188.592 66.528C190 67.168 191.2 68.048 192.192 69.168C193.216 70.288 194.016 71.6 194.592 73.104C195.2 74.608 195.504 76.224 195.504 77.952V79.056H175.776C176.032 81.424 177.008 83.392 178.704 84.96C180.4 86.528 182.432 87.312 184.8 87.312C186.048 87.312 187.264 87.12 188.448 86.736C189.632 86.352 190.624 85.808 191.424 85.104L193.632 87.456ZM184.032 68.688C181.952 68.688 180.144 69.392 178.608 70.8C177.104 72.208 176.192 74.016 175.872 76.224H191.952C191.632 74.112 190.72 72.336 189.216 70.896C187.744 69.424 186.016 68.688 184.032 68.688ZM211.658 90.384C209.962 90.384 208.378 90.064 206.906 89.424C205.434 88.784 204.154 87.92 203.066 86.832C201.978 85.712 201.114 84.384 200.474 82.848C199.866 81.312 199.562 79.68 199.562 77.952C199.562 76.224 199.866 74.608 200.474 73.104C201.114 71.568 201.978 70.256 203.066 69.168C204.154 68.048 205.434 67.168 206.906 66.528C208.41 65.888 210.01 65.568 211.706 65.568C213.146 65.568 214.522 65.808 215.834 66.288C217.178 66.768 218.378 67.44 219.434 68.304V65.952H222.938V99.84H219.386V87.504C218.362 88.432 217.178 89.152 215.834 89.664C214.522 90.144 213.13 90.384 211.658 90.384ZM203.066 77.904C203.066 79.216 203.29 80.448 203.738 81.6C204.218 82.752 204.858 83.744 205.658 84.576C206.458 85.408 207.402 86.064 208.49 86.544C209.578 87.024 210.746 87.264 211.994 87.264C213.498 87.264 214.89 86.976 216.17 86.4C217.482 85.792 218.554 84.96 219.386 83.904V72C218.554 70.976 217.482 70.176 216.17 69.6C214.858 68.992 213.466 68.688 211.994 68.688C209.498 68.688 207.386 69.568 205.658 71.328C203.93 73.088 203.066 75.28 203.066 77.904ZM232.537 65.952V80.448C232.537 82.56 233.145 84.24 234.361 85.488C235.577 86.736 237.209 87.36 239.257 87.36C240.697 87.36 241.977 87.04 243.097 86.4C244.249 85.728 245.177 84.8 245.881 83.616V65.952H249.433V90H245.881V87.216C244.953 88.304 243.849 89.12 242.569 89.664C241.321 90.208 239.913 90.48 238.345 90.48C235.593 90.48 233.353 89.616 231.625 87.888C229.897 86.16 229.033 83.92 229.033 81.168V65.952H232.537ZM275.878 87.456C274.534 88.448 273.126 89.2 271.654 89.712C270.214 90.192 268.63 90.432 266.902 90.432C265.174 90.432 263.542 90.112 262.006 89.472C260.502 88.832 259.19 87.952 258.07 86.832C256.982 85.712 256.118 84.4 255.478 82.896C254.838 81.36 254.518 79.712 254.518 77.952C254.518 76.224 254.822 74.608 255.43 73.104C256.07 71.6 256.918 70.288 257.974 69.168C259.03 68.048 260.278 67.168 261.718 66.528C263.19 65.888 264.742 65.568 266.374 65.568C267.974 65.568 269.462 65.888 270.838 66.528C272.246 67.168 273.446 68.048 274.438 69.168C275.462 70.288 276.262 71.6 276.838 73.104C277.446 74.608 277.75 76.224 277.75 77.952V79.056H258.022C258.278 81.424 259.254 83.392 260.95 84.96C262.646 86.528 264.678 87.312 267.046 87.312C268.294 87.312 269.51 87.12 270.694 86.736C271.878 86.352 272.87 85.808 273.67 85.104L275.878 87.456ZM266.278 68.688C264.198 68.688 262.39 69.392 260.854 70.8C259.35 72.208 258.438 74.016 258.118 76.224H274.198C273.878 74.112 272.966 72.336 271.462 70.896C269.99 69.424 268.262 68.688 266.278 68.688ZM280.653 86.688L282.813 84.384C283.901 85.408 285.117 86.208 286.461 86.784C287.837 87.328 289.229 87.6 290.637 87.6C292.557 87.6 294.125 87.2 295.341 86.4C296.557 85.6 297.165 84.56 297.165 83.28C297.165 82.256 296.797 81.456 296.061 80.88C295.357 80.272 294.237 79.856 292.701 79.632L288.525 79.056C286.125 78.704 284.333 78 283.149 76.944C281.997 75.856 281.421 74.4 281.421 72.576C281.421 70.56 282.269 68.896 283.965 67.584C285.661 66.24 287.821 65.568 290.445 65.568C292.173 65.568 293.805 65.824 295.341 66.336C296.909 66.848 298.429 67.648 299.901 68.736L298.029 71.136C296.685 70.24 295.373 69.568 294.093 69.12C292.845 68.672 291.565 68.448 290.253 68.448C288.621 68.448 287.277 68.816 286.221 69.552C285.197 70.288 284.685 71.248 284.685 72.432C284.685 73.456 285.037 74.256 285.741 74.832C286.445 75.376 287.581 75.76 289.149 75.984L293.325 76.56C295.725 76.88 297.517 77.6 298.701 78.72C299.917 79.808 300.525 81.264 300.525 83.088C300.525 84.112 300.269 85.088 299.757 86.016C299.277 86.912 298.589 87.696 297.693 88.368C296.829 89.008 295.805 89.52 294.621 89.904C293.437 90.256 292.157 90.432 290.781 90.432C288.797 90.432 286.925 90.112 285.165 89.472C283.437 88.8 281.933 87.872 280.653 86.688ZM307.18 84.624V68.976H301.996V65.952H307.18V59.856L310.684 58.944V65.952H317.932V68.976H310.684V83.712C310.684 84.992 310.972 85.92 311.548 86.496C312.124 87.04 313.068 87.312 314.38 87.312C315.052 87.312 315.644 87.264 316.156 87.168C316.7 87.072 317.276 86.912 317.884 86.688V89.808C317.276 90.032 316.588 90.192 315.82 90.288C315.084 90.384 314.364 90.432 313.66 90.432C311.58 90.432 309.98 89.936 308.86 88.944C307.74 87.952 307.18 86.512 307.18 84.624Z" fill="#F7F2E7"/>
</svg>
