<svg width="100%" height="100%" viewBox="0 0 558 93" fill="none" xmlns="http://www.w3.org/2000/svg">
<path fill-rule="evenodd" clip-rule="evenodd" d="M35.7558 2.11438H53.4914V63.9101C53.4914 72.6221 50.9749 79.5314 45.942 84.6409C40.9063 89.7505 34.5632 92.3025 26.9208 92.3025C18.6465 92.3025 12.0955 90.024 7.27314 85.4643C2.44808 80.9045 0.117606 74.1894 0.284459 65.3134L0.473195 64.9468H17.8314C17.8314 69.6296 18.6793 73.0488 20.3697 75.2042C22.0629 77.3651 24.2456 78.4428 26.9208 78.4428C29.3442 78.4428 31.4203 77.1599 33.1572 74.5942C34.8887 72.0312 35.7558 68.4671 35.7558 63.9101V2.11438ZM102.825 72.1543H78.7601L73.8721 91.0224H55.8821L81.5801 2.11438H100.131L125.761 91.0224H107.776L102.825 72.1543ZM82.3925 58.1688H99.19L90.9813 26.7238H90.6039L82.3953 58.1688H82.3925ZM151.598 2.11438L167.955 67.3894H168.33L184.878 2.11438H208.128V91.0224H190.39V65.193L191.895 30.6298L191.52 30.5696L174.096 91.0197H162.252L145.02 31.0593L144.642 31.1194L146.21 65.193V91.0224H128.471V2.11438H151.598ZM277.955 69.7117C277.955 64.1317 275.854 59.6759 271.656 56.3361C267.457 52.9991 260.176 49.9465 249.814 47.1784C239.412 44.4513 231.797 41.3467 226.972 37.8674C222.147 34.3854 219.732 29.3059 219.732 22.6318C219.732 15.996 222.576 10.7059 228.255 6.75618C233.939 2.80641 241.187 0.831528 250 0.831528C258.901 0.831528 266.171 3.255 271.812 8.09921C277.452 12.9407 280.19 19.1717 280.023 26.784L279.897 27.1505H277.014C277.014 20.5147 274.506 15.0195 269.492 10.6622C264.481 6.30759 257.982 4.13029 250.003 4.13029C241.732 4.13029 235.181 5.93012 230.356 9.5325C225.53 13.1376 223.118 17.4621 223.118 22.5087C223.118 27.5581 225.115 31.7513 229.103 35.0884C233.094 38.4254 240.309 41.3987 250.755 44.0054C260.865 46.6094 268.502 49.7933 273.661 53.5598C278.822 57.3263 281.402 62.6683 281.402 69.5886C281.402 76.632 278.456 82.1764 272.567 86.2274C266.672 90.2784 259.3 92.3025 250.441 92.3025C241.291 92.3025 233.416 90.2182 226.816 86.0442C220.213 81.8728 217.018 75.3081 217.226 66.35L217.352 65.9862H220.169C220.169 74.0471 223.222 79.8979 229.322 83.5414C235.421 87.1848 242.462 89.0065 250.441 89.0065C258.463 89.0065 265.055 87.2149 270.214 83.6316C275.373 80.0484 277.955 75.4093 277.955 69.709V69.7117ZM346.849 14.5135C346.844 14.972 346.66 15.4104 346.337 15.7361C346.189 15.9097 346.005 16.0491 345.798 16.1449C345.59 16.2407 345.365 16.2907 345.137 16.2914H318.659V89.3511C318.659 89.797 318.468 90.1881 318.087 90.5218C317.746 90.84 317.298 91.0186 316.832 91.0224C316.375 91.0219 315.931 90.8645 315.576 90.5765C315.391 90.4331 315.242 90.2473 315.143 90.0345C315.044 89.8217 314.997 89.5883 315.007 89.3539V16.2941H288.412C288.184 16.2927 287.959 16.2421 287.752 16.1458C287.545 16.0495 287.362 15.9098 287.214 15.7361C286.891 15.4104 286.708 14.972 286.703 14.5135C286.708 14.0483 286.868 13.5982 287.157 13.2334C287.3 13.0358 287.49 12.8768 287.709 12.7704C287.929 12.664 288.171 12.6135 288.415 12.6234H345.137C345.67 12.6234 346.089 12.8258 346.395 13.2334C346.683 13.5982 346.843 14.0483 346.849 14.5135ZM398.647 64.4599H354.026L343.873 91.0197H340.175L374.265 2.11712H378.403L412.559 91.0251H408.861L398.645 64.4627L398.647 64.4599ZM355.279 61.1612H397.394L378.28 11.0916L376.524 6.08603H376.149L374.456 11.0916L355.282 61.1612H355.279ZM479.327 63.7871L479.453 64.1536C479.62 73.2731 476.792 80.2426 470.963 85.0676C465.134 89.8927 457.456 92.3025 447.932 92.3025C437.945 92.3025 429.944 88.7111 423.927 81.5254C417.909 74.3398 414.903 64.9058 414.903 53.2234V39.9134C414.903 28.2693 417.912 18.8462 423.93 11.6414C429.944 4.43391 437.945 0.831528 447.932 0.831528C457.456 0.831528 465.134 3.255 470.963 8.09921C476.789 12.9407 479.62 19.861 479.453 28.8601L479.327 29.2266H476.444C476.444 21.2067 473.887 15.0195 468.769 10.6622C463.652 6.30759 456.707 4.13029 447.932 4.13029C439.031 4.13029 431.867 7.40718 426.432 13.9609C421.003 20.5147 418.287 29.1254 418.287 39.7903V53.2234C418.287 64.0114 421.003 72.6713 426.435 79.2059C431.867 85.7405 439.031 89.0065 447.932 89.0065C456.704 89.0065 463.652 86.9085 468.769 82.7153C473.884 78.5248 476.444 72.2118 476.444 63.7871H479.327ZM510.811 47.6051H496.839V91.0224H493.447V2.11438H496.833V44.3692H511.749L550.483 2.11438H554.491L554.616 2.42073L514.572 46.4453L557.499 90.6559L557.311 91.0224H553.364L510.811 47.6051Z" fill="#4A4A4A"/>
<path fill-rule="evenodd" clip-rule="evenodd" d="M346.277 3.72548C346.277 3.94521 346.232 4.16256 346.143 4.36366C346.055 4.56476 345.925 4.74519 345.763 4.89345C345.607 5.05297 345.421 5.17949 345.215 5.26549C345.009 5.35148 344.788 5.39519 344.565 5.39401H288.409C288.186 5.39519 287.965 5.35148 287.759 5.26549C287.554 5.17949 287.367 5.05297 287.211 4.89345C287.049 4.7453 286.919 4.56491 286.83 4.36381C286.742 4.1627 286.696 3.9453 286.696 3.72548C286.696 3.50567 286.742 3.28826 286.83 3.08716C286.919 2.88605 287.049 2.70566 287.211 2.55751C287.367 2.398 287.554 2.27147 287.759 2.18548C287.965 2.09949 288.186 2.05578 288.409 2.05695H344.565C345.022 2.05695 345.421 2.22381 345.763 2.55751C345.925 2.70577 346.055 2.88621 346.143 3.08731C346.232 3.28841 346.277 3.50576 346.277 3.72548Z" fill="url(#paint0_linear)"/>
<defs>
<linearGradient id="paint0_linear" x1="287.148" y1="2.05693" x2="287.515" y2="8.66034" gradientUnits="userSpaceOnUse">
<stop stop-color="#20C6B7"/>
<stop offset="1" stop-color="#4D9ABF"/>
</linearGradient>
</defs>
</svg>
