<svg width="36" height="36" viewBox="0 0 111 111" fill="none" xmlns="http://www.w3.org/2000/svg">
<path d="M62.0039 52.248H58.752V48.9961C58.752 47.2001 57.2959 45.7441 55.5 45.7441C53.7041 45.7441 52.248 47.2001 52.248 48.9961V52.248H48.9961C47.2001 52.248 45.7441 53.7041 45.7441 55.5C45.7441 57.2959 47.2001 58.752 48.9961 58.752H52.248V62.0039C52.248 63.7999 53.7041 65.2559 55.5 65.2559C57.2959 65.2559 58.752 63.7999 58.752 62.0039V58.752H62.0039C63.7999 58.752 65.2559 57.2959 65.2559 55.5C65.2559 53.7041 63.7999 52.248 62.0039 52.248ZM55.5 32.7363C42.9481 32.7363 32.7363 42.9481 32.7363 55.5C32.7363 68.0519 42.9481 78.2637 55.5 78.2637C68.0519 78.2637 78.2637 68.0519 78.2637 55.5C78.2637 42.9481 68.0519 32.7363 55.5 32.7363ZM55.5 71.7598C46.5344 71.7598 39.2402 64.4656 39.2402 55.5C39.2402 46.5344 46.5344 39.2402 55.5 39.2402C64.4656 39.2402 71.7598 46.5344 71.7598 55.5C71.7598 64.4656 64.4656 71.7598 55.5 71.7598ZM94.7402 19.7285H78.2637V9.97266C78.2637 8.17671 76.8077 6.7207 75.0117 6.7207H35.9883C34.1923 6.7207 32.7363 8.17671 32.7363 9.97266V19.7285H16.2598C7.29413 19.7285 0 27.0226 0 35.9883V101.027C0 102.823 1.45601 104.279 3.25195 104.279H107.748C109.544 104.279 111 102.823 111 101.027V35.9883C111 27.0226 103.706 19.7285 94.7402 19.7285ZM39.2402 13.2246H71.7598V19.7285H39.2402V13.2246ZM104.496 97.7754H6.50391V88.0106C9.22341 90.0568 12.6022 91.2715 16.2598 91.2715H94.7402C98.3978 91.2715 101.777 90.0568 104.496 88.0106V97.7754ZM104.496 75.0117C104.496 80.3911 100.12 84.7676 94.7402 84.7676H16.2598C10.8804 84.7676 6.50391 80.3911 6.50391 75.0117V35.9883C6.50391 30.6089 10.8804 26.2324 16.2598 26.2324H94.7402C100.12 26.2324 104.496 30.6089 104.496 35.9883V75.0117Z" fill="url(#paint0_linear)"/>
<defs>
<linearGradient id="paint0_linear" x1="55.5" y1="104.279" x2="55.5" y2="6.7207" gradientUnits="userSpaceOnUse">
<stop stop-opacity="0.66"/>
<stop offset="1" stop-opacity="0.66"/>
</linearGradient>
</defs>
</svg>
