<svg width="100%" height="100%" viewBox="0 0 512 512" fill="none" xmlns="http://www.w3.org/2000/svg">
<path d="M88 496H16V399.92L128 400L160 496H88Z" fill="#F7F2E7"/>
<path d="M448 224V280C448 288.8 440.8 296 432 296H416C407.2 296 400 288.8 400 280V168C400 159.2 407.2 152 416 152H432C440.8 152 448 159.2 448 168V224Z" fill="#CDC9C3"/>
<path d="M80 152V192C51.36 182.48 32 155.6 32 125.44V96H80C70.16 100.88 64 110.96 64 121.92V124C64 131.68 67.04 139.04 72.48 144.48L80 152Z" fill="#F7F2E7"/>
<path d="M304 176V208H272V176H288H304Z" fill="#F7F2E7"/>
<path d="M504 40V24H159.08C148.984 14.128 135.208 8 120 8H80C64.784 8 50.984 14.12 40.88 24H8V40H29.48C26 47.288 24 55.4 24 64V96V104V125.408C24 157.16 43.064 185.432 72 197.52V212.08C45.92 220.616 25.264 241.96 18.312 269.752C11.472 297.136 8 325.32 8 353.536V391.888V399.896V504H171.096L136.264 399.488L151.832 321.832C174.6 334.136 205.44 344.824 248.008 349.488V384H264.008V504H280.008V384H472.008V504H488.008V384H504.008V336H488.008V240C488.008 226.768 477.24 216 464.008 216H456.008V168C456.008 154.768 445.24 144 432.008 144H416.008C402.776 144 392.008 154.768 392.008 168V280C392.008 293.232 402.776 304 416.008 304H432.008C445.24 304 456.008 293.232 456.008 280V232H464.008C468.416 232 472.008 235.592 472.008 240V336H327.36C324.328 317.888 308.544 304 288.824 304C268.168 304 248.128 299.744 229.248 291.352L225.104 289.512C201.576 279.056 180.976 262.656 165.536 242.056C157.664 231.552 147.472 223.168 135.992 217.328V198C141.064 196.28 145.752 193.552 149.648 189.656C156.328 183 160 174.128 160 164.688V157.768L167.096 155.4C177.208 152.032 184 142.616 184 131.952C184 128.128 183.096 124.304 181.392 120.896L176.92 111.96C176.32 110.76 176 109.408 176 108.064V104H192C205.232 104 216 93.232 216 80C216 66.768 205.232 56 192 56H175.432C174.616 50.344 172.912 44.984 170.536 40H280V73.136C268.248 76.192 259.064 85.664 256.64 97.656C223.936 104.76 200 133.928 200 168C200 187.312 213.768 203.472 232 207.192V280H344V207.192C362.232 203.472 376 187.32 376 168C376 133.928 352.064 104.76 319.36 97.656C316.936 85.664 307.752 76.192 296 73.136V40H504ZM440 280C440 284.408 436.408 288 432 288H416C411.592 288 408 284.408 408 280V168C408 163.592 411.592 160 416 160H432C436.408 160 440 163.592 440 168V280ZM216 168C216 142.312 233.504 120.264 257.728 113.896C261.104 124.176 269.456 132.128 280 134.864V168H232V190.528C222.712 187.216 216 178.416 216 168ZM280 184H296V200H280V184ZM328 264H248V184H264V216H312V184H328V264ZM318.272 113.896C342.496 120.256 360 142.312 360 168C360 178.416 353.288 187.216 344 190.528V168H296V134.864C306.544 132.12 314.904 124.176 318.272 113.896ZM304 104C304 112.824 296.824 120 288 120C279.176 120 272 112.824 272 104C272 95.176 279.176 88 288 88C296.824 88 304 95.176 304 104ZM80 24H120C139.32 24 155.48 37.768 159.192 56H121.88C112.736 56 104.512 61.08 100.416 69.264L91.056 88H40V64C40 41.944 57.944 24 80 24ZM40 125.408V104H60.68C57.704 109.368 56 115.464 56 121.896V124.016C56 133.88 59.84 143.16 66.824 150.144L72 155.328V179.672C52.52 168.848 40 148.304 40 125.408ZM148.904 488H94.248L87.76 462.056L72.24 465.936L77.752 488H24V407.904L122.232 408L148.904 488ZM488 368H264V352H488V368ZM289.624 320C299.76 320 308.24 326.784 310.984 336H296C290.488 336 285.192 335.88 280 335.712V319.52C283.2 319.696 286.368 320 289.624 320ZM152.744 251.664C169.816 274.432 192.592 292.576 218.608 304.144L222.752 305.984C235.952 311.848 249.728 315.672 264 317.856V334.92C164.064 327.936 128.896 288.576 109.176 266.488C106.392 263.368 103.92 260.608 101.656 258.344L90.344 269.656C92.424 271.736 94.68 274.28 97.24 277.144C105.72 286.64 117.824 300.152 137.256 313.088L121.44 391.984L24 391.904V353.536C24 326.624 27.312 299.744 33.832 273.64C41.144 244.416 67.288 224 97.424 224C119.072 224 139.752 234.336 152.744 251.664ZM162.608 119.12L167.08 128.056C167.68 129.256 168 130.608 168 131.952C168 135.712 165.608 139.032 162.032 140.224L144 146.24V164.696C144 169.856 141.992 174.704 138.344 178.36C134.696 182.016 129.84 184.016 124.68 184.016H104V200.016H120V211.216C112.688 209.176 105.12 208 97.416 208C94.232 208 91.104 208.248 88 208.608V148.696L78.136 138.84C74.176 134.872 72 129.616 72 124.016V121.896C72 114.416 75.992 107.76 82.352 104H160V108.064C160 111.88 160.904 115.704 162.608 119.12ZM192 72C196.408 72 200 75.592 200 80C200 84.408 196.408 88 192 88H108.944L114.736 76.424C116.096 73.696 118.84 72 121.888 72H192Z" fill="black" fill-opacity="0.66"/>
<path d="M296 480H456V400H296V480ZM312 416H440V464H312V416Z" fill="black" fill-opacity="0.66"/>
</svg>
