<svg width="100%" height="100%" viewBox="0 0 603 519" fill="none" xmlns="http://www.w3.org/2000/svg">
<rect x="19" width="100%" height="100%" rx="20" fill="#D9E4DD"/>
<path d="M0 497H207.691V519H5C2.23858 519 0 516.761 0 514V497Z" fill="#C4C4C4"/>
<path d="M0 502C0 499.239 2.23858 497 5 497H202.691C205.453 497 207.691 499.239 207.691 502V514C207.691 516.761 205.453 519 202.691 519H10C4.47715 519 0 514.523 0 509V502Z" fill="#C4C4C4" fill-opacity="0.99"/>
<rect opacity="0.8" x="37.8323" y="195" width="390.676" height="302" fill="#D9D8D8"/>
<rect x="45.5532" y="206" width="376.006" height="281" fill="#C4C4C4" fill-opacity="0.7"/>
<path d="M207.691 234H510.475C517.655 234 523.475 239.82 523.475 247V518H207.691V234Z" fill="#B7B5B5"/>
<rect x="222.361" y="247" width="285.672" height="265" fill="#E5E5E5"/>
<rect x="207.691" y="497" width="300.342" height="22" fill="#B7B5B5"/>
<path d="M517.298 247H589C596.732 247 603 253.268 603 261V518H517.298V247Z" fill="#AFAFAF"/>
<rect x="523.475" y="268" width="74.8925" height="229" fill="#E5E5E5"/>
<ellipse cx="215.026" cy="372.5" rx="4.24648" ry="5.5" fill="#E5E5E5"/>
<ellipse cx="560.149" cy="506.5" rx="4.24646" ry="5.5" fill="#E5E5E5"/>
<path d="M69.304 52.6L56.152 25.672V55H52.696V21.4H57.88L69.352 45.256L80.776 21.4H85.96V55H82.456V25.624L69.304 52.6ZM91.7106 42.952C91.7106 41.224 92.0306 39.592 92.6706 38.056C93.3106 36.52 94.1746 35.192 95.2626 34.072C96.3826 32.952 97.6946 32.072 99.1986 31.432C100.703 30.792 102.303 30.472 103.999 30.472C105.695 30.472 107.279 30.792 108.751 31.432C110.255 32.072 111.551 32.952 112.639 34.072C113.759 35.192 114.639 36.52 115.279 38.056C115.919 39.592 116.239 41.224 116.239 42.952C116.239 44.712 115.919 46.36 115.279 47.896C114.639 49.432 113.759 50.76 112.639 51.88C111.551 53 110.255 53.88 108.751 54.52C107.279 55.16 105.695 55.48 103.999 55.48C102.303 55.48 100.703 55.16 99.1986 54.52C97.6946 53.88 96.3826 53 95.2626 51.88C94.1746 50.76 93.3106 49.432 92.6706 47.896C92.0306 46.36 91.7106 44.712 91.7106 42.952ZM103.999 52.312C105.215 52.312 106.351 52.072 107.407 51.592C108.495 51.112 109.423 50.456 110.191 49.624C110.991 48.76 111.615 47.768 112.063 46.648C112.511 45.496 112.735 44.264 112.735 42.952C112.735 41.64 112.511 40.424 112.063 39.304C111.615 38.152 110.991 37.16 110.191 36.328C109.423 35.496 108.495 34.84 107.407 34.36C106.351 33.88 105.215 33.64 103.999 33.64C102.783 33.64 101.631 33.88 100.543 34.36C99.4866 34.84 98.5586 35.496 97.7586 36.328C96.9906 37.16 96.3666 38.152 95.8866 39.304C95.4386 40.424 95.2146 41.64 95.2146 42.952C95.2146 44.264 95.4386 45.496 95.8866 46.648C96.3346 47.768 96.9426 48.76 97.7106 49.624C98.5106 50.456 99.4546 51.112 100.543 51.592C101.631 52.072 102.783 52.312 103.999 52.312ZM144.7 42.952C144.7 44.68 144.38 46.312 143.74 47.848C143.132 49.384 142.284 50.712 141.196 51.832C140.108 52.92 138.812 53.784 137.308 54.424C135.836 55.064 134.252 55.384 132.556 55.384C131.148 55.384 129.772 55.144 128.428 54.664C127.116 54.184 125.916 53.496 124.828 52.6V55H121.324V21.4L124.876 20.584V33.496C125.868 32.536 127.02 31.816 128.332 31.336C129.676 30.824 131.1 30.568 132.604 30.568C134.3 30.568 135.884 30.888 137.356 31.528C138.828 32.168 140.108 33.048 141.196 34.168C142.284 35.256 143.132 36.568 143.74 38.104C144.38 39.608 144.7 41.224 144.7 42.952ZM132.268 33.688C130.764 33.688 129.356 33.992 128.044 34.6C126.764 35.176 125.708 35.992 124.876 37.048V48.952C125.708 49.976 126.78 50.792 128.092 51.4C129.404 51.976 130.796 52.264 132.268 52.264C134.796 52.264 136.908 51.384 138.604 49.624C140.332 47.832 141.196 45.624 141.196 43C141.196 41.688 140.956 40.472 140.476 39.352C140.028 38.2 139.404 37.208 138.604 36.376C137.804 35.544 136.86 34.888 135.772 34.408C134.684 33.928 133.516 33.688 132.268 33.688ZM151.562 26.344C150.922 26.344 150.362 26.104 149.882 25.624C149.402 25.144 149.162 24.584 149.162 23.944C149.162 23.272 149.402 22.712 149.882 22.264C150.362 21.784 150.922 21.544 151.562 21.544C152.234 21.544 152.794 21.784 153.242 22.264C153.722 22.712 153.962 23.272 153.962 23.944C153.962 24.584 153.722 25.144 153.242 25.624C152.794 26.104 152.234 26.344 151.562 26.344ZM153.338 30.952V55H149.786V30.952H153.338ZM163.098 20.584V55H159.546V21.4L163.098 20.584ZM189.561 52.456C188.217 53.448 186.809 54.2 185.337 54.712C183.897 55.192 182.313 55.432 180.585 55.432C178.857 55.432 177.225 55.112 175.689 54.472C174.185 53.832 172.873 52.952 171.753 51.832C170.665 50.712 169.801 49.4 169.161 47.896C168.521 46.36 168.201 44.712 168.201 42.952C168.201 41.224 168.505 39.608 169.113 38.104C169.753 36.6 170.601 35.288 171.657 34.168C172.713 33.048 173.961 32.168 175.401 31.528C176.873 30.888 178.425 30.568 180.057 30.568C181.657 30.568 183.145 30.888 184.521 31.528C185.929 32.168 187.129 33.048 188.121 34.168C189.145 35.288 189.945 36.6 190.521 38.104C191.129 39.608 191.433 41.224 191.433 42.952V44.056H171.705C171.961 46.424 172.937 48.392 174.633 49.96C176.329 51.528 178.361 52.312 180.729 52.312C181.977 52.312 183.193 52.12 184.377 51.736C185.561 51.352 186.553 50.808 187.353 50.104L189.561 52.456ZM179.961 33.688C177.881 33.688 176.073 34.392 174.537 35.8C173.033 37.208 172.121 39.016 171.801 41.224H187.881C187.561 39.112 186.649 37.336 185.145 35.896C183.673 34.424 181.945 33.688 179.961 33.688ZM207.684 55V21.4H231.732V24.664H211.38V36.664H224.724V39.88H211.38V55H207.684ZM237.156 26.344C236.516 26.344 235.956 26.104 235.476 25.624C234.996 25.144 234.756 24.584 234.756 23.944C234.756 23.272 234.996 22.712 235.476 22.264C235.956 21.784 236.516 21.544 237.156 21.544C237.828 21.544 238.388 21.784 238.836 22.264C239.316 22.712 239.556 23.272 239.556 23.944C239.556 24.584 239.316 25.144 238.836 25.624C238.388 26.104 237.828 26.344 237.156 26.344ZM238.932 30.952V55H235.38V30.952H238.932ZM245.14 55V30.952H248.692V34.36C249.396 33.112 250.324 32.152 251.476 31.48C252.628 30.776 253.94 30.424 255.412 30.424C255.86 30.424 256.26 30.456 256.612 30.52C256.964 30.552 257.316 30.632 257.668 30.76V34.024C257.252 33.896 256.836 33.8 256.42 33.736C256.004 33.64 255.588 33.592 255.172 33.592C253.7 33.592 252.404 34.024 251.284 34.888C250.164 35.72 249.3 36.936 248.692 38.536V55H245.14ZM259.154 51.688L261.314 49.384C262.402 50.408 263.618 51.208 264.962 51.784C266.338 52.328 267.73 52.6 269.138 52.6C271.058 52.6 272.626 52.2 273.842 51.4C275.058 50.6 275.666 49.56 275.666 48.28C275.666 47.256 275.298 46.456 274.562 45.88C273.858 45.272 272.738 44.856 271.202 44.632L267.026 44.056C264.626 43.704 262.834 43 261.65 41.944C260.498 40.856 259.922 39.4 259.922 37.576C259.922 35.56 260.77 33.896 262.466 32.584C264.162 31.24 266.322 30.568 268.946 30.568C270.674 30.568 272.306 30.824 273.842 31.336C275.41 31.848 276.93 32.648 278.402 33.736L276.53 36.136C275.186 35.24 273.874 34.568 272.594 34.12C271.346 33.672 270.066 33.448 268.754 33.448C267.122 33.448 265.778 33.816 264.722 34.552C263.698 35.288 263.186 36.248 263.186 37.432C263.186 38.456 263.538 39.256 264.242 39.832C264.946 40.376 266.082 40.76 267.65 40.984L271.826 41.56C274.226 41.88 276.018 42.6 277.202 43.72C278.418 44.808 279.026 46.264 279.026 48.088C279.026 49.112 278.77 50.088 278.258 51.016C277.778 51.912 277.09 52.696 276.194 53.368C275.33 54.008 274.306 54.52 273.122 54.904C271.938 55.256 270.658 55.432 269.282 55.432C267.298 55.432 265.426 55.112 263.666 54.472C261.938 53.8 260.434 52.872 259.154 51.688ZM285.681 49.624V33.976H280.497V30.952H285.681V24.856L289.185 23.944V30.952H296.433V33.976H289.185V48.712C289.185 49.992 289.473 50.92 290.049 51.496C290.625 52.04 291.569 52.312 292.881 52.312C293.553 52.312 294.145 52.264 294.657 52.168C295.201 52.072 295.777 51.912 296.385 51.688V54.808C295.777 55.032 295.089 55.192 294.321 55.288C293.585 55.384 292.865 55.432 292.161 55.432C290.081 55.432 288.481 54.936 287.361 53.944C286.241 52.952 285.681 51.512 285.681 49.624ZM311.521 55V21.4H325.921C329.185 21.4 331.825 22.296 333.841 24.088C335.857 25.848 336.865 28.168 336.865 31.048C336.865 33.256 336.209 35.16 334.897 36.76C333.617 38.36 331.889 39.464 329.713 40.072L337.249 55H333.169L325.969 40.552H315.217V55H311.521ZM325.681 24.712H315.217V37.432H325.681C327.921 37.432 329.729 36.856 331.105 35.704C332.481 34.52 333.169 32.968 333.169 31.048C333.169 29.128 332.481 27.592 331.105 26.44C329.729 25.288 327.921 24.712 325.681 24.712ZM360.739 52.456C359.395 53.448 357.987 54.2 356.515 54.712C355.075 55.192 353.491 55.432 351.763 55.432C350.035 55.432 348.403 55.112 346.867 54.472C345.363 53.832 344.051 52.952 342.931 51.832C341.843 50.712 340.979 49.4 340.339 47.896C339.699 46.36 339.379 44.712 339.379 42.952C339.379 41.224 339.683 39.608 340.291 38.104C340.931 36.6 341.779 35.288 342.835 34.168C343.891 33.048 345.139 32.168 346.579 31.528C348.051 30.888 349.603 30.568 351.235 30.568C352.835 30.568 354.323 30.888 355.699 31.528C357.107 32.168 358.307 33.048 359.299 34.168C360.323 35.288 361.123 36.6 361.699 38.104C362.307 39.608 362.611 41.224 362.611 42.952V44.056H342.883C343.139 46.424 344.115 48.392 345.811 49.96C347.507 51.528 349.539 52.312 351.907 52.312C353.155 52.312 354.371 52.12 355.555 51.736C356.739 51.352 357.731 50.808 358.531 50.104L360.739 52.456ZM351.139 33.688C349.059 33.688 347.251 34.392 345.715 35.8C344.211 37.208 343.299 39.016 342.979 41.224H359.059C358.739 39.112 357.827 37.336 356.323 35.896C354.851 34.424 353.123 33.688 351.139 33.688ZM365.514 51.688L367.674 49.384C368.762 50.408 369.978 51.208 371.322 51.784C372.698 52.328 374.09 52.6 375.498 52.6C377.418 52.6 378.986 52.2 380.202 51.4C381.418 50.6 382.026 49.56 382.026 48.28C382.026 47.256 381.658 46.456 380.922 45.88C380.218 45.272 379.098 44.856 377.562 44.632L373.386 44.056C370.986 43.704 369.194 43 368.01 41.944C366.858 40.856 366.282 39.4 366.282 37.576C366.282 35.56 367.13 33.896 368.826 32.584C370.522 31.24 372.682 30.568 375.306 30.568C377.034 30.568 378.666 30.824 380.202 31.336C381.77 31.848 383.29 32.648 384.762 33.736L382.89 36.136C381.546 35.24 380.234 34.568 378.954 34.12C377.706 33.672 376.426 33.448 375.114 33.448C373.482 33.448 372.138 33.816 371.082 34.552C370.058 35.288 369.546 36.248 369.546 37.432C369.546 38.456 369.898 39.256 370.602 39.832C371.306 40.376 372.442 40.76 374.01 40.984L378.186 41.56C380.586 41.88 382.378 42.6 383.562 43.72C384.778 44.808 385.386 46.264 385.386 48.088C385.386 49.112 385.13 50.088 384.618 51.016C384.138 51.912 383.45 52.696 382.554 53.368C381.69 54.008 380.666 54.52 379.482 54.904C378.298 55.256 377.018 55.432 375.642 55.432C373.658 55.432 371.786 55.112 370.026 54.472C368.298 53.8 366.794 52.872 365.514 51.688ZM389.533 64.84V30.952H393.037V33.544C394.061 32.552 395.229 31.816 396.541 31.336C397.885 30.824 399.309 30.568 400.813 30.568C402.509 30.568 404.093 30.888 405.565 31.528C407.037 32.168 408.317 33.048 409.405 34.168C410.493 35.256 411.341 36.568 411.949 38.104C412.589 39.608 412.909 41.224 412.909 42.952C412.909 44.68 412.589 46.312 411.949 47.848C411.341 49.384 410.493 50.712 409.405 51.832C408.317 52.92 407.021 53.784 405.517 54.424C404.045 55.064 402.461 55.384 400.765 55.384C399.357 55.384 397.997 55.144 396.685 54.664C395.373 54.184 394.173 53.496 393.085 52.6V64.84H389.533ZM400.477 33.688C398.973 33.688 397.565 33.992 396.253 34.6C394.973 35.176 393.917 35.992 393.085 37.048V48.952C393.917 49.976 394.989 50.792 396.301 51.4C397.613 51.976 399.005 52.264 400.477 52.264C403.005 52.264 405.117 51.384 406.813 49.624C408.541 47.832 409.405 45.624 409.405 43C409.405 41.688 409.165 40.472 408.685 39.352C408.237 38.2 407.613 37.208 406.813 36.376C406.013 35.544 405.069 34.888 403.981 34.408C402.893 33.928 401.725 33.688 400.477 33.688ZM416.939 42.952C416.939 41.224 417.259 39.592 417.899 38.056C418.539 36.52 419.403 35.192 420.491 34.072C421.611 32.952 422.923 32.072 424.427 31.432C425.931 30.792 427.531 30.472 429.227 30.472C430.923 30.472 432.507 30.792 433.979 31.432C435.483 32.072 436.779 32.952 437.867 34.072C438.987 35.192 439.867 36.52 440.507 38.056C441.147 39.592 441.467 41.224 441.467 42.952C441.467 44.712 441.147 46.36 440.507 47.896C439.867 49.432 438.987 50.76 437.867 51.88C436.779 53 435.483 53.88 433.979 54.52C432.507 55.16 430.923 55.48 429.227 55.48C427.531 55.48 425.931 55.16 424.427 54.52C422.923 53.88 421.611 53 420.491 51.88C419.403 50.76 418.539 49.432 417.899 47.896C417.259 46.36 416.939 44.712 416.939 42.952ZM429.227 52.312C430.443 52.312 431.579 52.072 432.635 51.592C433.723 51.112 434.651 50.456 435.419 49.624C436.219 48.76 436.843 47.768 437.291 46.648C437.739 45.496 437.963 44.264 437.963 42.952C437.963 41.64 437.739 40.424 437.291 39.304C436.843 38.152 436.219 37.16 435.419 36.328C434.651 35.496 433.723 34.84 432.635 34.36C431.579 33.88 430.443 33.64 429.227 33.64C428.011 33.64 426.859 33.88 425.771 34.36C424.715 34.84 423.787 35.496 422.987 36.328C422.219 37.16 421.595 38.152 421.115 39.304C420.667 40.424 420.443 41.64 420.443 42.952C420.443 44.264 420.667 45.496 421.115 46.648C421.563 47.768 422.171 48.76 422.939 49.624C423.739 50.456 424.683 51.112 425.771 51.592C426.859 52.072 428.011 52.312 429.227 52.312ZM446.552 55V30.952H450.104V33.784C451.032 32.696 452.136 31.88 453.416 31.336C454.696 30.76 456.12 30.472 457.688 30.472C460.408 30.472 462.632 31.336 464.36 33.064C466.088 34.792 466.952 37.032 466.952 39.784V55H463.448V40.504C463.448 38.392 462.84 36.712 461.624 35.464C460.408 34.216 458.776 33.592 456.728 33.592C455.288 33.592 453.992 33.912 452.84 34.552C451.72 35.192 450.808 36.104 450.104 37.288V55H446.552ZM470.598 51.688L472.758 49.384C473.846 50.408 475.062 51.208 476.406 51.784C477.782 52.328 479.174 52.6 480.582 52.6C482.502 52.6 484.07 52.2 485.286 51.4C486.502 50.6 487.11 49.56 487.11 48.28C487.11 47.256 486.742 46.456 486.006 45.88C485.302 45.272 484.182 44.856 482.646 44.632L478.47 44.056C476.07 43.704 474.278 43 473.094 41.944C471.942 40.856 471.366 39.4 471.366 37.576C471.366 35.56 472.214 33.896 473.91 32.584C475.606 31.24 477.766 30.568 480.39 30.568C482.118 30.568 483.75 30.824 485.286 31.336C486.854 31.848 488.374 32.648 489.846 33.736L487.974 36.136C486.63 35.24 485.318 34.568 484.038 34.12C482.79 33.672 481.51 33.448 480.198 33.448C478.566 33.448 477.222 33.816 476.166 34.552C475.142 35.288 474.63 36.248 474.63 37.432C474.63 38.456 474.982 39.256 475.686 39.832C476.39 40.376 477.526 40.76 479.094 40.984L483.27 41.56C485.67 41.88 487.462 42.6 488.646 43.72C489.862 44.808 490.47 46.264 490.47 48.088C490.47 49.112 490.214 50.088 489.702 51.016C489.222 51.912 488.534 52.696 487.638 53.368C486.774 54.008 485.75 54.52 484.566 54.904C483.382 55.256 482.102 55.432 480.726 55.432C478.742 55.432 476.87 55.112 475.11 54.472C473.382 53.8 471.878 52.872 470.598 51.688ZM496.394 26.344C495.754 26.344 495.194 26.104 494.714 25.624C494.234 25.144 493.994 24.584 493.994 23.944C493.994 23.272 494.234 22.712 494.714 22.264C495.194 21.784 495.754 21.544 496.394 21.544C497.066 21.544 497.626 21.784 498.074 22.264C498.554 22.712 498.794 23.272 498.794 23.944C498.794 24.584 498.554 25.144 498.074 25.624C497.626 26.104 497.066 26.344 496.394 26.344ZM498.17 30.952V55H494.618V30.952H498.17ZM512.009 55L501.593 30.952H505.529L513.737 50.392L521.945 30.952H525.737L515.369 55H512.009ZM548.455 52.456C547.111 53.448 545.703 54.2 544.231 54.712C542.791 55.192 541.207 55.432 539.479 55.432C537.751 55.432 536.119 55.112 534.583 54.472C533.079 53.832 531.767 52.952 530.647 51.832C529.559 50.712 528.695 49.4 528.055 47.896C527.415 46.36 527.095 44.712 527.095 42.952C527.095 41.224 527.399 39.608 528.007 38.104C528.647 36.6 529.495 35.288 530.551 34.168C531.607 33.048 532.855 32.168 534.295 31.528C535.767 30.888 537.319 30.568 538.951 30.568C540.551 30.568 542.039 30.888 543.415 31.528C544.823 32.168 546.023 33.048 547.015 34.168C548.039 35.288 548.839 36.6 549.415 38.104C550.023 39.608 550.327 41.224 550.327 42.952V44.056H530.599C530.855 46.424 531.831 48.392 533.527 49.96C535.223 51.528 537.255 52.312 539.623 52.312C540.871 52.312 542.087 52.12 543.271 51.736C544.455 51.352 545.447 50.808 546.247 50.104L548.455 52.456ZM538.855 33.688C536.775 33.688 534.967 34.392 533.431 35.8C531.927 37.208 531.015 39.016 530.695 41.224H546.775C546.455 39.112 545.543 37.336 544.039 35.896C542.567 34.424 540.839 33.688 538.855 33.688ZM49.528 113.24L51.976 110.696C53.704 112.52 55.544 113.912 57.496 114.872C59.48 115.8 61.56 116.264 63.736 116.264C66.36 116.264 68.52 115.64 70.216 114.392C71.912 113.144 72.76 111.56 72.76 109.64C72.76 107.912 72.152 106.584 70.936 105.656C69.752 104.728 67.784 104.04 65.032 103.592L60.184 102.824C56.952 102.312 54.568 101.368 53.032 99.992C51.496 98.584 50.728 96.696 50.728 94.328C50.728 91.544 51.816 89.288 53.992 87.56C56.168 85.832 59.016 84.968 62.536 84.968C64.872 84.968 67.192 85.352 69.496 86.12C71.8 86.888 73.896 87.992 75.784 89.432L73.672 92.312C71.848 90.936 69.992 89.896 68.104 89.192C66.216 88.488 64.312 88.136 62.392 88.136C59.992 88.136 58.04 88.696 56.536 89.816C55.064 90.904 54.328 92.312 54.328 94.04C54.328 95.608 54.856 96.808 55.912 97.64C56.968 98.472 58.712 99.08 61.144 99.464L65.944 100.232C69.592 100.84 72.248 101.88 73.912 103.352C75.608 104.824 76.456 106.856 76.456 109.448C76.456 110.92 76.136 112.28 75.496 113.528C74.888 114.744 74.008 115.8 72.856 116.696C71.736 117.56 70.376 118.248 68.776 118.76C67.208 119.24 65.48 119.48 63.592 119.48C60.936 119.48 58.376 118.952 55.912 117.896C53.48 116.808 51.352 115.256 49.528 113.24ZM92.656 116.216C93.936 116.216 95.168 115.96 96.352 115.448C97.536 114.936 98.64 114.184 99.664 113.192L101.872 115.592C100.592 116.808 99.152 117.752 97.552 118.424C95.952 119.096 94.288 119.432 92.56 119.432C90.864 119.432 89.264 119.112 87.76 118.472C86.256 117.832 84.96 116.952 83.872 115.832C82.784 114.712 81.92 113.384 81.28 111.848C80.64 110.312 80.32 108.68 80.32 106.952C80.32 105.224 80.64 103.608 81.28 102.104C81.92 100.568 82.784 99.24 83.872 98.12C84.96 97 86.256 96.12 87.76 95.48C89.264 94.808 90.864 94.472 92.56 94.472C94.288 94.472 95.968 94.808 97.6 95.48C99.264 96.152 100.72 97.08 101.968 98.264L99.712 100.856C98.752 99.864 97.648 99.096 96.4 98.552C95.152 98.008 93.888 97.736 92.608 97.736C91.392 97.736 90.24 97.976 89.152 98.456C88.064 98.936 87.12 99.592 86.32 100.424C85.552 101.256 84.944 102.232 84.496 103.352C84.048 104.472 83.824 105.672 83.824 106.952C83.824 108.264 84.048 109.496 84.496 110.648C84.976 111.768 85.6 112.744 86.368 113.576C87.168 114.376 88.112 115.016 89.2 115.496C90.288 115.976 91.44 116.216 92.656 116.216ZM106.183 119V94.952H109.735V98.36C110.439 97.112 111.367 96.152 112.519 95.48C113.671 94.776 114.983 94.424 116.455 94.424C116.903 94.424 117.303 94.456 117.655 94.52C118.007 94.552 118.359 94.632 118.711 94.76V98.024C118.295 97.896 117.879 97.8 117.463 97.736C117.047 97.64 116.631 97.592 116.215 97.592C114.743 97.592 113.447 98.024 112.327 98.888C111.207 99.72 110.343 100.936 109.735 102.536V119H106.183ZM141.449 116.456C140.105 117.448 138.697 118.2 137.225 118.712C135.785 119.192 134.201 119.432 132.473 119.432C130.745 119.432 129.113 119.112 127.577 118.472C126.073 117.832 124.761 116.952 123.641 115.832C122.553 114.712 121.689 113.4 121.049 111.896C120.409 110.36 120.089 108.712 120.089 106.952C120.089 105.224 120.393 103.608 121.001 102.104C121.641 100.6 122.489 99.288 123.545 98.168C124.601 97.048 125.849 96.168 127.289 95.528C128.761 94.888 130.313 94.568 131.945 94.568C133.545 94.568 135.033 94.888 136.409 95.528C137.817 96.168 139.017 97.048 140.009 98.168C141.033 99.288 141.833 100.6 142.409 102.104C143.017 103.608 143.321 105.224 143.321 106.952V108.056H123.593C123.849 110.424 124.825 112.392 126.521 113.96C128.217 115.528 130.249 116.312 132.617 116.312C133.865 116.312 135.081 116.12 136.265 115.736C137.449 115.352 138.441 114.808 139.241 114.104L141.449 116.456ZM131.849 97.688C129.769 97.688 127.961 98.392 126.425 99.8C124.921 101.208 124.009 103.016 123.689 105.224H139.769C139.449 103.112 138.537 101.336 137.033 99.896C135.561 98.424 133.833 97.688 131.849 97.688ZM168.739 116.456C167.395 117.448 165.987 118.2 164.515 118.712C163.075 119.192 161.491 119.432 159.763 119.432C158.035 119.432 156.403 119.112 154.867 118.472C153.363 117.832 152.051 116.952 150.931 115.832C149.843 114.712 148.979 113.4 148.339 111.896C147.699 110.36 147.379 108.712 147.379 106.952C147.379 105.224 147.683 103.608 148.291 102.104C148.931 100.6 149.779 99.288 150.835 98.168C151.891 97.048 153.139 96.168 154.579 95.528C156.051 94.888 157.603 94.568 159.235 94.568C160.835 94.568 162.323 94.888 163.699 95.528C165.107 96.168 166.307 97.048 167.299 98.168C168.323 99.288 169.123 100.6 169.699 102.104C170.307 103.608 170.611 105.224 170.611 106.952V108.056H150.883C151.139 110.424 152.115 112.392 153.811 113.96C155.507 115.528 157.539 116.312 159.907 116.312C161.155 116.312 162.371 116.12 163.555 115.736C164.739 115.352 165.731 114.808 166.531 114.104L168.739 116.456ZM159.139 97.688C157.059 97.688 155.251 98.392 153.715 99.8C152.211 101.208 151.299 103.016 150.979 105.224H167.059C166.739 103.112 165.827 101.336 164.323 99.896C162.851 98.424 161.123 97.688 159.139 97.688ZM175.727 119V94.952H179.279V97.784C180.207 96.696 181.311 95.88 182.591 95.336C183.871 94.76 185.295 94.472 186.863 94.472C189.583 94.472 191.807 95.336 193.535 97.064C195.263 98.792 196.127 101.032 196.127 103.784V119H192.623V104.504C192.623 102.392 192.015 100.712 190.799 99.464C189.583 98.216 187.951 97.592 185.903 97.592C184.463 97.592 183.167 97.912 182.015 98.552C180.895 99.192 179.983 100.104 179.279 101.288V119H175.727ZM210.187 113.24L212.635 110.696C214.363 112.52 216.203 113.912 218.155 114.872C220.139 115.8 222.219 116.264 224.395 116.264C227.019 116.264 229.179 115.64 230.875 114.392C232.571 113.144 233.419 111.56 233.419 109.64C233.419 107.912 232.811 106.584 231.595 105.656C230.411 104.728 228.443 104.04 225.691 103.592L220.843 102.824C217.611 102.312 215.227 101.368 213.691 99.992C212.155 98.584 211.387 96.696 211.387 94.328C211.387 91.544 212.475 89.288 214.651 87.56C216.827 85.832 219.675 84.968 223.195 84.968C225.531 84.968 227.851 85.352 230.155 86.12C232.459 86.888 234.555 87.992 236.443 89.432L234.331 92.312C232.507 90.936 230.651 89.896 228.763 89.192C226.875 88.488 224.971 88.136 223.051 88.136C220.651 88.136 218.699 88.696 217.195 89.816C215.723 90.904 214.987 92.312 214.987 94.04C214.987 95.608 215.515 96.808 216.571 97.64C217.627 98.472 219.371 99.08 221.803 99.464L226.603 100.232C230.251 100.84 232.907 101.88 234.571 103.352C236.267 104.824 237.115 106.856 237.115 109.448C237.115 110.92 236.795 112.28 236.155 113.528C235.547 114.744 234.667 115.8 233.515 116.696C232.395 117.56 231.035 118.248 229.435 118.76C227.867 119.24 226.139 119.48 224.251 119.48C221.595 119.48 219.035 118.952 216.571 117.896C214.139 116.808 212.011 115.256 210.187 113.24ZM243.391 90.344C242.751 90.344 242.191 90.104 241.711 89.624C241.231 89.144 240.991 88.584 240.991 87.944C240.991 87.272 241.231 86.712 241.711 86.264C242.191 85.784 242.751 85.544 243.391 85.544C244.063 85.544 244.623 85.784 245.071 86.264C245.551 86.712 245.791 87.272 245.791 87.944C245.791 88.584 245.551 89.144 245.071 89.624C244.623 90.104 244.063 90.344 243.391 90.344ZM245.167 94.952V119H241.615V94.952H245.167ZM249.838 119V116.216L264.334 98.12H249.982V94.952H268.654V97.688L254.11 115.832H268.798V119H249.838ZM293.108 116.456C291.764 117.448 290.356 118.2 288.884 118.712C287.444 119.192 285.86 119.432 284.132 119.432C282.404 119.432 280.772 119.112 279.236 118.472C277.732 117.832 276.42 116.952 275.3 115.832C274.212 114.712 273.348 113.4 272.708 111.896C272.068 110.36 271.748 108.712 271.748 106.952C271.748 105.224 272.052 103.608 272.66 102.104C273.3 100.6 274.148 99.288 275.204 98.168C276.26 97.048 277.508 96.168 278.948 95.528C280.42 94.888 281.972 94.568 283.604 94.568C285.204 94.568 286.692 94.888 288.068 95.528C289.476 96.168 290.676 97.048 291.668 98.168C292.692 99.288 293.492 100.6 294.068 102.104C294.676 103.608 294.98 105.224 294.98 106.952V108.056H275.252C275.508 110.424 276.484 112.392 278.18 113.96C279.876 115.528 281.908 116.312 284.276 116.312C285.524 116.312 286.74 116.12 287.924 115.736C289.108 115.352 290.1 114.808 290.9 114.104L293.108 116.456ZM283.508 97.688C281.428 97.688 279.62 98.392 278.084 99.8C276.58 101.208 275.668 103.016 275.348 105.224H291.428C291.108 103.112 290.196 101.336 288.692 99.896C287.22 98.424 285.492 97.688 283.508 97.688Z" fill="black" fill-opacity="0.66"/>
</svg>
