<svg width="100%" height="100%" viewBox="0 0 603 418" fill="none" xmlns="http://www.w3.org/2000/svg">
<rect x="41" width="432" height="72" rx="20" fill="#D9E4DD"/>
<path d="M0 396H207.691V418H5C2.23858 418 0 415.761 0 413V396Z" fill="#C4C4C4"/>
<path d="M0 401C0 398.239 2.23858 396 5 396H202.691C205.453 396 207.691 398.239 207.691 401V413C207.691 415.761 205.453 418 202.691 418H10C4.47715 418 0 413.523 0 408V401Z" fill="#C4C4C4" fill-opacity="0.99"/>
<rect opacity="0.8" x="37.8323" y="94" width="390.676" height="302" fill="#D9D8D8"/>
<rect x="45.5532" y="105" width="376.006" height="281" fill="#C4C4C4" fill-opacity="0.7"/>
<path d="M207.691 133H510.475C517.655 133 523.475 138.82 523.475 146V417H207.691V133Z" fill="#B7B5B5"/>
<rect x="222.361" y="146" width="285.672" height="265" fill="#E5E5E5"/>
<rect x="207.691" y="396" width="300.342" height="22" fill="#B7B5B5"/>
<path d="M517.298 146H589C596.732 146 603 152.268 603 160V417H517.298V146Z" fill="#AFAFAF"/>
<rect x="523.475" y="167" width="74.8925" height="229" fill="#E5E5E5"/>
<ellipse cx="215.026" cy="271.5" rx="4.24648" ry="5.5" fill="#E5E5E5"/>
<ellipse cx="560.149" cy="405.5" rx="4.24646" ry="5.5" fill="#E5E5E5"/>
<path d="M69.304 44.6L56.152 17.672V47H52.696V13.4H57.88L69.352 37.256L80.776 13.4H85.96V47H82.456V17.624L69.304 44.6ZM91.7106 34.952C91.7106 33.224 92.0306 31.592 92.6706 30.056C93.3106 28.52 94.1746 27.192 95.2626 26.072C96.3826 24.952 97.6946 24.072 99.1986 23.432C100.703 22.792 102.303 22.472 103.999 22.472C105.695 22.472 107.279 22.792 108.751 23.432C110.255 24.072 111.551 24.952 112.639 26.072C113.759 27.192 114.639 28.52 115.279 30.056C115.919 31.592 116.239 33.224 116.239 34.952C116.239 36.712 115.919 38.36 115.279 39.896C114.639 41.432 113.759 42.76 112.639 43.88C111.551 45 110.255 45.88 108.751 46.52C107.279 47.16 105.695 47.48 103.999 47.48C102.303 47.48 100.703 47.16 99.1986 46.52C97.6946 45.88 96.3826 45 95.2626 43.88C94.1746 42.76 93.3106 41.432 92.6706 39.896C92.0306 38.36 91.7106 36.712 91.7106 34.952ZM103.999 44.312C105.215 44.312 106.351 44.072 107.407 43.592C108.495 43.112 109.423 42.456 110.191 41.624C110.991 40.76 111.615 39.768 112.063 38.648C112.511 37.496 112.735 36.264 112.735 34.952C112.735 33.64 112.511 32.424 112.063 31.304C111.615 30.152 110.991 29.16 110.191 28.328C109.423 27.496 108.495 26.84 107.407 26.36C106.351 25.88 105.215 25.64 103.999 25.64C102.783 25.64 101.631 25.88 100.543 26.36C99.4866 26.84 98.5586 27.496 97.7586 28.328C96.9906 29.16 96.3666 30.152 95.8866 31.304C95.4386 32.424 95.2146 33.64 95.2146 34.952C95.2146 36.264 95.4386 37.496 95.8866 38.648C96.3346 39.768 96.9426 40.76 97.7106 41.624C98.5106 42.456 99.4546 43.112 100.543 43.592C101.631 44.072 102.783 44.312 103.999 44.312ZM144.7 34.952C144.7 36.68 144.38 38.312 143.74 39.848C143.132 41.384 142.284 42.712 141.196 43.832C140.108 44.92 138.812 45.784 137.308 46.424C135.836 47.064 134.252 47.384 132.556 47.384C131.148 47.384 129.772 47.144 128.428 46.664C127.116 46.184 125.916 45.496 124.828 44.6V47H121.324V13.4L124.876 12.584V25.496C125.868 24.536 127.02 23.816 128.332 23.336C129.676 22.824 131.1 22.568 132.604 22.568C134.3 22.568 135.884 22.888 137.356 23.528C138.828 24.168 140.108 25.048 141.196 26.168C142.284 27.256 143.132 28.568 143.74 30.104C144.38 31.608 144.7 33.224 144.7 34.952ZM132.268 25.688C130.764 25.688 129.356 25.992 128.044 26.6C126.764 27.176 125.708 27.992 124.876 29.048V40.952C125.708 41.976 126.78 42.792 128.092 43.4C129.404 43.976 130.796 44.264 132.268 44.264C134.796 44.264 136.908 43.384 138.604 41.624C140.332 39.832 141.196 37.624 141.196 35C141.196 33.688 140.956 32.472 140.476 31.352C140.028 30.2 139.404 29.208 138.604 28.376C137.804 27.544 136.86 26.888 135.772 26.408C134.684 25.928 133.516 25.688 132.268 25.688ZM151.562 18.344C150.922 18.344 150.362 18.104 149.882 17.624C149.402 17.144 149.162 16.584 149.162 15.944C149.162 15.272 149.402 14.712 149.882 14.264C150.362 13.784 150.922 13.544 151.562 13.544C152.234 13.544 152.794 13.784 153.242 14.264C153.722 14.712 153.962 15.272 153.962 15.944C153.962 16.584 153.722 17.144 153.242 17.624C152.794 18.104 152.234 18.344 151.562 18.344ZM153.338 22.952V47H149.786V22.952H153.338ZM163.098 12.584V47H159.546V13.4L163.098 12.584ZM189.561 44.456C188.217 45.448 186.809 46.2 185.337 46.712C183.897 47.192 182.313 47.432 180.585 47.432C178.857 47.432 177.225 47.112 175.689 46.472C174.185 45.832 172.873 44.952 171.753 43.832C170.665 42.712 169.801 41.4 169.161 39.896C168.521 38.36 168.201 36.712 168.201 34.952C168.201 33.224 168.505 31.608 169.113 30.104C169.753 28.6 170.601 27.288 171.657 26.168C172.713 25.048 173.961 24.168 175.401 23.528C176.873 22.888 178.425 22.568 180.057 22.568C181.657 22.568 183.145 22.888 184.521 23.528C185.929 24.168 187.129 25.048 188.121 26.168C189.145 27.288 189.945 28.6 190.521 30.104C191.129 31.608 191.433 33.224 191.433 34.952V36.056H171.705C171.961 38.424 172.937 40.392 174.633 41.96C176.329 43.528 178.361 44.312 180.729 44.312C181.977 44.312 183.193 44.12 184.377 43.736C185.561 43.352 186.553 42.808 187.353 42.104L189.561 44.456ZM179.961 25.688C177.881 25.688 176.073 26.392 174.537 27.8C173.033 29.208 172.121 31.016 171.801 33.224H187.881C187.561 31.112 186.649 29.336 185.145 27.896C183.673 26.424 181.945 25.688 179.961 25.688ZM207.684 47V13.4H231.732V16.664H211.38V28.664H224.724V31.88H211.38V47H207.684ZM237.156 18.344C236.516 18.344 235.956 18.104 235.476 17.624C234.996 17.144 234.756 16.584 234.756 15.944C234.756 15.272 234.996 14.712 235.476 14.264C235.956 13.784 236.516 13.544 237.156 13.544C237.828 13.544 238.388 13.784 238.836 14.264C239.316 14.712 239.556 15.272 239.556 15.944C239.556 16.584 239.316 17.144 238.836 17.624C238.388 18.104 237.828 18.344 237.156 18.344ZM238.932 22.952V47H235.38V22.952H238.932ZM245.14 47V22.952H248.692V26.36C249.396 25.112 250.324 24.152 251.476 23.48C252.628 22.776 253.94 22.424 255.412 22.424C255.86 22.424 256.26 22.456 256.612 22.52C256.964 22.552 257.316 22.632 257.668 22.76V26.024C257.252 25.896 256.836 25.8 256.42 25.736C256.004 25.64 255.588 25.592 255.172 25.592C253.7 25.592 252.404 26.024 251.284 26.888C250.164 27.72 249.3 28.936 248.692 30.536V47H245.14ZM259.154 43.688L261.314 41.384C262.402 42.408 263.618 43.208 264.962 43.784C266.338 44.328 267.73 44.6 269.138 44.6C271.058 44.6 272.626 44.2 273.842 43.4C275.058 42.6 275.666 41.56 275.666 40.28C275.666 39.256 275.298 38.456 274.562 37.88C273.858 37.272 272.738 36.856 271.202 36.632L267.026 36.056C264.626 35.704 262.834 35 261.65 33.944C260.498 32.856 259.922 31.4 259.922 29.576C259.922 27.56 260.77 25.896 262.466 24.584C264.162 23.24 266.322 22.568 268.946 22.568C270.674 22.568 272.306 22.824 273.842 23.336C275.41 23.848 276.93 24.648 278.402 25.736L276.53 28.136C275.186 27.24 273.874 26.568 272.594 26.12C271.346 25.672 270.066 25.448 268.754 25.448C267.122 25.448 265.778 25.816 264.722 26.552C263.698 27.288 263.186 28.248 263.186 29.432C263.186 30.456 263.538 31.256 264.242 31.832C264.946 32.376 266.082 32.76 267.65 32.984L271.826 33.56C274.226 33.88 276.018 34.6 277.202 35.72C278.418 36.808 279.026 38.264 279.026 40.088C279.026 41.112 278.77 42.088 278.258 43.016C277.778 43.912 277.09 44.696 276.194 45.368C275.33 46.008 274.306 46.52 273.122 46.904C271.938 47.256 270.658 47.432 269.282 47.432C267.298 47.432 265.426 47.112 263.666 46.472C261.938 45.8 260.434 44.872 259.154 43.688ZM285.681 41.624V25.976H280.497V22.952H285.681V16.856L289.185 15.944V22.952H296.433V25.976H289.185V40.712C289.185 41.992 289.473 42.92 290.049 43.496C290.625 44.04 291.569 44.312 292.881 44.312C293.553 44.312 294.145 44.264 294.657 44.168C295.201 44.072 295.777 43.912 296.385 43.688V46.808C295.777 47.032 295.089 47.192 294.321 47.288C293.585 47.384 292.865 47.432 292.161 47.432C290.081 47.432 288.481 46.936 287.361 45.944C286.241 44.952 285.681 43.512 285.681 41.624ZM311.521 47V13.4H322.609C325.137 13.4 327.489 13.832 329.665 14.696C331.841 15.528 333.713 16.68 335.281 18.152C336.849 19.624 338.065 21.4 338.929 23.48C339.825 25.528 340.273 27.768 340.273 30.2C340.273 32.632 339.825 34.888 338.929 36.968C338.065 39.016 336.849 40.776 335.281 42.248C333.745 43.72 331.889 44.888 329.713 45.752C327.537 46.584 325.169 47 322.609 47H311.521ZM322.801 16.76H315.217V43.64H322.801C324.721 43.64 326.529 43.304 328.225 42.632C329.921 41.928 331.377 40.984 332.593 39.8C333.809 38.584 334.769 37.16 335.473 35.528C336.177 33.864 336.529 32.088 336.529 30.2C336.529 28.312 336.177 26.552 335.473 24.92C334.769 23.256 333.809 21.832 332.593 20.648C331.377 19.432 329.921 18.488 328.225 17.816C326.529 17.112 324.721 16.76 322.801 16.76ZM365.802 44.456C364.458 45.448 363.05 46.2 361.578 46.712C360.138 47.192 358.554 47.432 356.826 47.432C355.098 47.432 353.466 47.112 351.93 46.472C350.426 45.832 349.114 44.952 347.994 43.832C346.906 42.712 346.042 41.4 345.402 39.896C344.762 38.36 344.442 36.712 344.442 34.952C344.442 33.224 344.746 31.608 345.354 30.104C345.994 28.6 346.842 27.288 347.898 26.168C348.954 25.048 350.202 24.168 351.642 23.528C353.114 22.888 354.666 22.568 356.298 22.568C357.898 22.568 359.386 22.888 360.762 23.528C362.17 24.168 363.37 25.048 364.362 26.168C365.386 27.288 366.186 28.6 366.762 30.104C367.37 31.608 367.674 33.224 367.674 34.952V36.056H347.946C348.202 38.424 349.178 40.392 350.874 41.96C352.57 43.528 354.602 44.312 356.97 44.312C358.218 44.312 359.434 44.12 360.618 43.736C361.802 43.352 362.794 42.808 363.594 42.104L365.802 44.456ZM356.202 25.688C354.122 25.688 352.314 26.392 350.778 27.8C349.274 29.208 348.362 31.016 348.042 33.224H364.122C363.802 31.112 362.89 29.336 361.386 27.896C359.914 26.424 358.186 25.688 356.202 25.688ZM370.576 43.688L372.736 41.384C373.824 42.408 375.04 43.208 376.384 43.784C377.76 44.328 379.152 44.6 380.56 44.6C382.48 44.6 384.048 44.2 385.264 43.4C386.48 42.6 387.088 41.56 387.088 40.28C387.088 39.256 386.72 38.456 385.984 37.88C385.28 37.272 384.16 36.856 382.624 36.632L378.448 36.056C376.048 35.704 374.256 35 373.072 33.944C371.92 32.856 371.344 31.4 371.344 29.576C371.344 27.56 372.192 25.896 373.888 24.584C375.584 23.24 377.744 22.568 380.368 22.568C382.096 22.568 383.728 22.824 385.264 23.336C386.832 23.848 388.352 24.648 389.824 25.736L387.952 28.136C386.608 27.24 385.296 26.568 384.016 26.12C382.768 25.672 381.488 25.448 380.176 25.448C378.544 25.448 377.2 25.816 376.144 26.552C375.12 27.288 374.608 28.248 374.608 29.432C374.608 30.456 374.96 31.256 375.664 31.832C376.368 32.376 377.504 32.76 379.072 32.984L383.248 33.56C385.648 33.88 387.44 34.6 388.624 35.72C389.84 36.808 390.448 38.264 390.448 40.088C390.448 41.112 390.192 42.088 389.68 43.016C389.2 43.912 388.512 44.696 387.616 45.368C386.752 46.008 385.728 46.52 384.544 46.904C383.36 47.256 382.08 47.432 380.704 47.432C378.72 47.432 376.848 47.112 375.088 46.472C373.36 45.8 371.856 44.872 370.576 43.688ZM396.372 18.344C395.732 18.344 395.172 18.104 394.692 17.624C394.212 17.144 393.972 16.584 393.972 15.944C393.972 15.272 394.212 14.712 394.692 14.264C395.172 13.784 395.732 13.544 396.372 13.544C397.044 13.544 397.604 13.784 398.052 14.264C398.532 14.712 398.772 15.272 398.772 15.944C398.772 16.584 398.532 17.144 398.052 17.624C397.604 18.104 397.044 18.344 396.372 18.344ZM398.148 22.952V47H394.596V22.952H398.148ZM415.251 47.192C413.587 47.192 412.019 46.872 410.547 46.232C409.107 45.592 407.843 44.728 406.755 43.64C405.667 42.52 404.803 41.208 404.163 39.704C403.555 38.2 403.251 36.584 403.251 34.856C403.251 33.128 403.555 31.512 404.163 30.008C404.803 28.504 405.667 27.208 406.755 26.12C407.843 25 409.123 24.12 410.595 23.48C412.067 22.84 413.651 22.52 415.347 22.52C416.723 22.52 418.051 22.776 419.331 23.288C420.643 23.768 421.843 24.456 422.931 25.352V22.952H426.435V47.576C426.435 50.648 425.539 53 423.747 54.632C421.955 56.296 419.395 57.128 416.067 57.128C414.403 57.128 412.755 56.904 411.123 56.456C409.491 56.04 408.003 55.432 406.659 54.632L408.195 51.848C409.635 52.616 410.963 53.176 412.179 53.528C413.427 53.88 414.675 54.056 415.923 54.056C418.195 54.056 419.923 53.512 421.107 52.424C422.291 51.336 422.883 49.736 422.883 47.624V44.408C421.795 45.304 420.595 45.992 419.283 46.472C418.003 46.952 416.659 47.192 415.251 47.192ZM406.755 34.856C406.755 36.136 406.979 37.352 407.427 38.504C407.875 39.624 408.483 40.6 409.251 41.432C410.051 42.232 410.995 42.872 412.083 43.352C413.171 43.832 414.323 44.072 415.539 44.072C417.075 44.072 418.483 43.784 419.763 43.208C421.043 42.632 422.083 41.816 422.883 40.76V28.952C422.083 27.928 421.027 27.128 419.715 26.552C418.435 25.976 417.043 25.688 415.539 25.688C414.291 25.688 413.123 25.928 412.035 26.408C410.979 26.856 410.051 27.496 409.251 28.328C408.483 29.16 407.875 30.136 407.427 31.256C406.979 32.376 406.755 33.576 406.755 34.856ZM432.63 47V22.952H436.182V25.784C437.11 24.696 438.214 23.88 439.494 23.336C440.774 22.76 442.198 22.472 443.766 22.472C446.486 22.472 448.71 23.336 450.438 25.064C452.166 26.792 453.03 29.032 453.03 31.784V47H449.526V32.504C449.526 30.392 448.918 28.712 447.702 27.464C446.486 26.216 444.854 25.592 442.806 25.592C441.366 25.592 440.07 25.912 438.918 26.552C437.798 27.192 436.886 28.104 436.182 29.288V47H432.63Z" fill="black" fill-opacity="0.66"/>
</svg>
