<svg height="36" width="36" viewBox="0 0 54 54" fill="none" xmlns="http://www.w3.org/2000/svg">
<path d="M26.6152 26.012C30.1888 26.012 33.2832 24.7303 35.8116 22.2015C38.34 19.6731 39.6216 16.5795 39.6216 13.0056C39.6216 9.43282 38.34 6.33881 35.8112 3.80963C33.2824 1.28169 30.1884 0 26.6152 0C23.0412 0 19.9476 1.28169 17.4192 3.81004C14.8909 6.3384 13.6088 9.43241 13.6088 13.0056C13.6088 16.5795 14.8909 19.6736 17.4196 22.2019C19.9484 24.7299 23.0424 26.012 26.6152 26.012Z" fill="black" fill-opacity="0.66"/>
<path d="M49.373 38.9199C49.3 37.8677 49.1526 36.7199 48.9354 35.5078C48.7163 34.2867 48.4341 33.1323 48.0962 32.0772C47.7473 30.9867 47.2727 29.9097 46.686 28.8777C46.0771 27.8066 45.3619 26.8738 44.5593 26.1063C43.7201 25.3033 42.6926 24.6578 41.5044 24.1869C40.3204 23.7184 39.0082 23.4811 37.6046 23.4811C37.0533 23.4811 36.5202 23.7073 35.4906 24.3776C34.857 24.7908 34.1158 25.2687 33.2886 25.7973C32.5812 26.248 31.6229 26.6703 30.4393 27.0526C29.2845 27.4263 28.112 27.6158 26.9547 27.6158C25.7974 27.6158 24.6253 27.4263 23.4693 27.0526C22.2869 26.6707 21.3286 26.2484 20.622 25.7977C19.8026 25.2741 19.061 24.7962 18.4179 24.3772C17.3896 23.7069 16.856 23.4807 16.3048 23.4807C14.9008 23.4807 13.589 23.7184 12.4053 24.1873C11.218 24.6573 10.1901 25.3029 9.35005 26.1067C8.54791 26.8747 7.83229 27.807 7.2242 28.8777C6.63794 29.9097 6.16333 30.9863 5.81396 32.0776C5.47655 33.1327 5.19434 34.2867 4.97516 35.5078C4.75804 36.7182 4.61055 37.8664 4.53763 38.9211C4.46594 39.9544 4.42969 41.0268 4.42969 42.1099C4.42969 44.9287 5.32576 47.2107 7.09277 48.8936C8.83795 50.5544 11.1471 51.3969 13.9552 51.3969H39.9566C42.7647 51.3969 45.0731 50.5548 46.8186 48.8936C48.5861 47.2119 49.4821 44.9295 49.4821 42.1095C49.4817 41.0214 49.4451 39.9482 49.373 38.9199Z" fill="black" fill-opacity="0.66"/>
</svg>
