<svg width="100%" height="100%" viewBox="0 0 574 310" fill="none" xmlns="http://www.w3.org/2000/svg">
<g clip-path="url(#clip0)">
<path d="M234.904 61H132.096C126.749 61 122.398 66.0812 122.398 72.3253V237.677C122.398 243.921 126.749 249.002 132.096 249.002H234.904C240.251 249.002 244.602 243.921 244.602 237.677V72.3253C244.602 66.0793 240.251 61 234.904 61ZM183.5 67.5121C184.303 67.5121 184.955 68.2738 184.955 69.211C184.955 70.1482 184.303 70.9079 183.5 70.9079C182.697 70.9079 182.045 70.1462 182.045 69.209C182.045 68.2719 182.697 67.5121 183.5 67.5121ZM183.5 242.769C181.893 242.769 180.59 241.25 180.59 239.372C180.59 237.493 181.893 235.972 183.5 235.972C185.107 235.972 186.41 237.493 186.41 239.372C186.41 241.25 185.107 242.769 183.5 242.769ZM236.844 232.293H130.156V77.7035H236.844V232.293Z" fill="black"/>
</g>
<path d="M73.1682 138H29.8318C25.6843 138 22.3363 141.363 22.3363 145.503V233.505C22.3363 237.641 25.6843 241 29.8318 241H73.1682C77.3082 241 80.6637 237.641 80.6637 233.505V145.503C80.6637 141.363 77.3082 138 73.1682 138ZM40.8066 142.557H62.2009C62.7413 142.557 63.1805 143.364 63.1805 144.362C63.1805 145.36 62.7413 146.171 62.2009 146.171H40.8066C40.2624 146.171 39.8308 145.36 39.8308 144.362C39.8308 143.364 40.2624 142.557 40.8066 142.557ZM51.5037 233.595C48.8651 233.595 46.7182 231.448 46.7182 228.805C46.7182 226.163 48.8651 224.024 51.5037 224.024C54.1349 224.024 56.2818 226.163 56.2818 228.805C56.2818 231.448 54.1349 233.595 51.5037 233.595ZM75.0486 217.196H27.9551V150.66H75.0486V217.196Z" fill="black"/>
<path d="M293.621 235.839H544.379C549.567 235.839 553.783 231.621 553.783 226.436V65.2332C553.783 60.0479 549.567 55.8298 544.379 55.8298H293.621C288.436 55.8298 284.217 60.0479 284.217 65.2332V226.436C284.217 231.621 288.438 235.839 293.621 235.839ZM292.278 65.2332C292.278 64.4917 292.879 63.8899 293.621 63.8899H544.379C545.121 63.8899 545.722 64.4917 545.722 65.2332V226.436C545.722 227.177 545.121 227.779 544.379 227.779H293.621C292.879 227.779 292.278 227.177 292.278 226.436V65.2332ZM574 243.034V250.559C574 252.553 572.383 254.17 570.389 254.17H267.611C265.617 254.17 264 252.553 264 250.559V243.034H391.315C391.944 245.132 393.867 246.672 396.17 246.672H441.833C444.133 246.672 446.056 245.135 446.688 243.034H574Z" fill="black"/>
<defs>
<clipPath id="clip0">
<rect width="161" height="188" fill="white" transform="translate(103 61)"/>
</clipPath>
</defs>
</svg>
