<svg width="100%" height="100%" viewBox="0 0 166 166" fill="none" xmlns="http://www.w3.org/2000/svg">
<path d="M158.219 70.0312C161.08 70.0312 163.406 67.7047 163.406 64.8438V38.9062C163.406 36.0453 161.08 33.7188 158.219 33.7188H97.6625C90.2495 15.036 72.1037 2.59375 51.875 2.59375C24.7003 2.59375 2.59375 24.7003 2.59375 51.875C2.59375 74.8115 18.3689 94.0831 39.6221 99.5507C39.163 100.892 38.9062 102.303 38.9062 103.75V155.625C38.9062 159.915 42.3974 163.406 46.6875 163.406H57.0625C61.3526 163.406 64.8438 159.915 64.8438 155.625V103.75C64.8438 102.31 64.5922 100.907 64.1357 99.5715C69.9612 98.0749 75.4703 95.5278 80.4062 92.0159V111.531C80.4062 114.392 82.7328 116.719 85.5938 116.719H158.219C161.08 116.719 163.406 114.392 163.406 111.531V85.5938C163.406 82.7328 161.08 80.4062 158.219 80.4062H92.0288C94.3217 77.19 96.184 73.7118 97.6417 70.0312H158.219ZM64.8438 70.0312H80.2714C74.1268 79.597 63.399 85.5938 51.875 85.5938C33.283 85.5938 18.1562 70.467 18.1562 51.875C18.1562 33.283 33.283 18.1562 51.875 18.1562C63.399 18.1562 74.1268 24.153 80.2714 33.7188H64.8438C61.9828 33.7188 59.6562 36.0453 59.6562 38.9062V64.8438C59.6562 67.7047 61.9828 70.0312 64.8438 70.0312ZM64.8438 64.8438V38.9062H95.9688V64.8438H64.8438ZM158.221 64.8438H101.156V38.9062H158.219L158.221 64.8438ZM57.0625 158.219H46.6875C45.2583 158.219 44.0938 157.054 44.0938 155.625V116.719H59.6562V155.625C59.6562 157.054 58.4917 158.219 57.0625 158.219ZM59.6562 103.75V111.531H44.0938V103.75C44.0938 102.645 44.3402 101.576 44.7811 100.586C47.1051 100.923 49.4602 101.156 51.875 101.156C54.269 101.156 56.6319 100.933 58.9715 100.593C59.4124 101.582 59.6562 102.648 59.6562 103.75ZM85.5938 85.5938H121.906V111.531H85.5938V85.5938ZM158.219 111.531H127.094V85.5938H158.219V111.531ZM85.4303 80.4218C82.7017 80.51 80.51 82.7017 80.4244 85.4329C72.4564 92.2156 62.3745 95.9688 51.875 95.9688C27.5612 95.9688 7.78125 76.1888 7.78125 51.875C7.78125 27.5612 27.5612 7.78125 51.875 7.78125C69.2817 7.78125 84.9842 18.0655 92.06 33.7188H86.2655C79.5659 21.069 66.2599 12.9688 51.875 12.9688C30.4221 12.9688 12.9688 30.4221 12.9688 51.875C12.9688 73.3279 30.4221 90.7812 51.875 90.7812C66.2599 90.7812 79.5659 82.681 86.2655 70.0312H92.0444C90.3507 73.7844 88.1253 77.2574 85.4303 80.4218Z" fill="black" fill-opacity="0.66"/>
<path d="M147.844 49.2812H153.031V54.4688H147.844V49.2812Z" fill="black" fill-opacity="0.66"/>
<path d="M137.469 49.2812H142.656V54.4688H137.469V49.2812Z" fill="black" fill-opacity="0.66"/>
<path d="M127.094 49.2812H132.281V54.4688H127.094V49.2812Z" fill="black" fill-opacity="0.66"/>
<path d="M116.719 49.2812H121.906V54.4688H116.719V49.2812Z" fill="black" fill-opacity="0.66"/>
<path d="M106.344 49.2812H111.531V54.4688H106.344V49.2812Z" fill="black" fill-opacity="0.66"/>
<path d="M88.9475 42.26L75.2187 55.9887L71.865 52.635L68.1974 56.3025L75.2187 63.3238L92.615 45.9275L88.9475 42.26Z" fill="black" fill-opacity="0.66"/>
<path d="M147.844 127.094H75.2188C72.3578 127.094 70.0312 129.42 70.0312 132.281V158.219C70.0312 161.08 72.3578 163.406 75.2188 163.406H147.844C150.705 163.406 153.031 161.08 153.031 158.219V132.281C153.031 129.42 150.705 127.094 147.844 127.094ZM75.2188 132.281H106.344V158.219H75.2188V132.281ZM111.531 158.219V132.281H147.844L147.846 158.219H111.531Z" fill="black" fill-opacity="0.66"/>
<path d="M137.469 142.656H142.656V147.844H137.469V142.656Z" fill="black" fill-opacity="0.66"/>
<path d="M127.094 142.656H132.281V147.844H127.094V142.656Z" fill="black" fill-opacity="0.66"/>
<path d="M116.719 142.656H121.906V147.844H116.719V142.656Z" fill="black" fill-opacity="0.66"/>
<path d="M90.7812 95.9688H95.9688V101.156H90.7812V95.9688Z" fill="black" fill-opacity="0.66"/>
<path d="M101.156 95.9688H106.344V101.156H101.156V95.9688Z" fill="black" fill-opacity="0.66"/>
<path d="M111.531 95.9688H116.719V101.156H111.531V95.9688Z" fill="black" fill-opacity="0.66"/>
<path d="M99.3225 135.635L85.5937 149.364L82.24 146.01L78.5724 149.678L85.5937 156.699L102.99 139.303L99.3225 135.635Z" fill="black" fill-opacity="0.66"/>
<path d="M133.041 104.51L136.709 108.178L142.656 102.23L148.604 108.178L152.271 104.51L146.324 98.5625L152.271 92.615L148.604 88.9474L142.656 94.8949L136.709 88.9474L133.041 92.615L138.989 98.5625L133.041 104.51Z" fill="black" fill-opacity="0.66"/>
</svg>
