<svg width="100%" height="100%" viewBox="0 0 607 423" fill="none" xmlns="http://www.w3.org/2000/svg">
<rect width="100%" height="100%" rx="10" fill="#F7F2E7"/>
<path d="M521.519 375.89C521.126 378.292 520.503 380.611 519.663 382.83L527.197 389.657C526.141 391.88 524.938 394.017 523.55 396.024L513.876 392.905C512.351 394.77 510.642 396.476 508.778 398.001L511.896 407.675C509.889 409.063 507.753 410.264 505.529 411.322L498.703 403.788C496.484 404.628 494.167 405.251 491.763 405.644L489.614 415.596C488.399 415.692 487.179 415.781 485.938 415.781C484.696 415.781 483.476 415.692 482.258 415.596L480.11 405.644C477.708 405.251 475.389 404.628 473.17 403.788L466.343 411.322C464.12 410.266 461.983 409.063 459.976 407.675L463.095 398.001C461.23 396.476 459.524 394.767 457.999 392.905L448.325 396.024C446.937 394.017 445.736 391.88 444.678 389.657L452.212 382.83C451.372 380.611 450.748 378.294 450.356 375.89L440.404 373.742C440.308 372.524 440.219 371.304 440.219 370.062C440.219 368.821 440.308 367.601 440.404 366.383L450.356 364.235C450.748 361.833 451.372 359.514 452.212 357.295L444.678 350.468C445.734 348.245 446.937 346.108 448.325 344.101L457.999 347.22C459.524 345.355 461.233 343.649 463.097 342.124L459.979 332.45C461.986 331.062 464.122 329.861 466.346 328.803L473.172 336.336C475.391 335.497 477.708 334.873 480.112 334.481L482.261 324.529C483.476 324.433 484.696 324.344 485.938 324.344C487.179 324.344 488.399 324.433 489.617 324.529L491.765 334.481C494.167 334.873 496.486 335.497 498.705 336.336L505.532 328.803C507.755 329.859 509.892 331.062 511.899 332.45L508.78 342.124C510.645 343.649 512.351 345.358 513.876 347.222L523.55 344.104C524.938 346.111 526.139 348.247 527.197 350.471L519.663 357.297C520.503 359.516 521.126 361.833 521.519 364.237L531.471 366.386C531.567 367.601 531.656 368.821 531.656 370.062C531.656 371.304 531.567 372.524 531.471 373.742L521.519 375.89ZM485.938 346C472.648 346 461.875 356.773 461.875 370.062C461.875 383.352 472.648 394.125 485.938 394.125C499.227 394.125 510 383.352 510 370.062C510 356.773 499.227 346 485.938 346Z" fill="black" fill-opacity="0.66"/>
<path d="M554.898 308.234C554.523 309.478 554.032 310.671 553.428 311.795L557.227 319.076C555.945 320.698 554.482 322.161 552.86 323.444L545.579 319.644C544.455 320.251 543.262 320.742 542.018 321.115L539.554 328.959C538.538 329.079 537.513 329.156 536.469 329.156C535.424 329.156 534.399 329.079 533.386 328.961L530.922 321.117C529.678 320.744 528.485 320.251 527.361 319.647L520.08 323.446C518.458 322.164 516.995 320.701 515.712 319.079L519.512 311.798C518.906 310.674 518.415 309.48 518.042 308.236L510.197 305.772C510.077 304.757 510 303.732 510 302.688C510 301.643 510.077 300.618 510.195 299.605L518.039 297.141C518.412 295.897 518.906 294.704 519.509 293.58L515.71 286.299C516.993 284.677 518.456 283.214 520.077 281.931L527.359 285.731C528.482 285.124 529.676 284.633 530.92 284.26L533.384 276.416C534.399 276.296 535.424 276.219 536.469 276.219C537.513 276.219 538.538 276.296 539.551 276.414L542.015 284.258C543.259 284.631 544.453 285.124 545.576 285.728L552.858 281.929C554.48 283.211 555.943 284.674 557.225 286.296L553.426 293.577C554.032 294.701 554.523 295.895 554.896 297.139L562.74 299.603C562.86 300.618 562.938 301.643 562.938 302.688C562.938 303.732 562.86 304.757 562.743 305.77L554.898 308.234ZM536.469 293.062C531.153 293.062 526.844 297.372 526.844 302.688C526.844 308.003 531.153 312.312 536.469 312.312C541.784 312.312 546.094 308.003 546.094 302.688C546.094 297.372 541.784 293.062 536.469 293.062Z" fill="black" fill-opacity="0.66"/>
<path d="M574.341 362.533C573.97 363.869 573.448 365.135 572.779 366.316L575.173 371.355C574.086 372.743 572.837 373.992 571.448 375.08L566.41 372.685C565.231 373.354 563.963 373.876 562.627 374.247L560.755 379.512C559.891 379.618 559.018 379.688 558.125 379.688C557.232 379.688 556.359 379.618 555.495 379.512L553.623 374.247C552.287 373.876 551.022 373.354 549.84 372.685L544.802 375.08C543.413 373.992 542.164 372.743 541.077 371.355L543.471 366.316C542.802 365.137 542.28 363.869 541.909 362.536L536.644 360.664C536.539 359.797 536.469 358.924 536.469 358.031C536.469 357.139 536.539 356.265 536.644 355.401L541.909 353.529C542.28 352.194 542.802 350.928 543.471 349.749L541.077 344.71C542.164 343.322 543.413 342.073 544.802 340.985L549.84 343.38C551.019 342.711 552.287 342.188 553.623 341.818L555.495 336.553C556.359 336.445 557.232 336.375 558.125 336.375C559.018 336.375 559.891 336.445 560.755 336.551L562.627 341.816C563.963 342.186 565.228 342.708 566.41 343.377L571.448 340.983C572.837 342.071 574.086 343.319 575.173 344.708L572.779 349.747C573.448 350.926 573.97 352.194 574.341 353.529L579.606 355.401C579.711 356.265 579.781 357.139 579.781 358.031C579.781 358.924 579.711 359.797 579.606 360.661L574.341 362.533ZM558.125 350.812C554.138 350.812 550.906 354.044 550.906 358.031C550.906 362.018 554.138 365.25 558.125 365.25C562.112 365.25 565.344 362.018 565.344 358.031C565.344 354.044 562.112 350.812 558.125 350.812Z" fill="black" fill-opacity="0.66"/>
<path d="M580.253 281.079L565.861 278.201L562.983 292.591L567.702 293.537L568.999 287.059C571.33 291.91 572.562 297.257 572.562 302.687C572.562 310.984 569.824 318.785 564.646 325.246L568.402 328.256C574.189 321.035 577.375 311.956 577.375 302.687C577.375 296.386 575.919 290.173 573.15 284.566L579.31 285.798L580.253 281.079Z" fill="black" fill-opacity="0.66"/>
<path d="M490.045 300.986L486.643 304.389L489.913 307.659C488.589 307.575 487.263 307.5 485.937 307.5C467.323 307.5 449.8 315.708 437.865 330.02L441.561 333.102C452.58 319.89 468.752 312.312 485.937 312.312C487.162 312.312 488.385 312.382 489.607 312.459L486.643 315.424L490.045 318.826L498.965 309.906L490.045 300.986Z" fill="black" fill-opacity="0.66"/>
<path d="M47.696 385V351.4H62.288C65.552 351.4 68.176 352.296 70.16 354.088C72.144 355.848 73.136 358.184 73.136 361.096C73.136 364.008 72.128 366.36 70.112 368.152C68.128 369.944 65.52 370.84 62.288 370.84H51.392V385H47.696ZM62 354.712H51.392V367.624H62C64.272 367.624 66.08 367.048 67.424 365.896C68.768 364.712 69.44 363.128 69.44 361.144C69.44 359.16 68.768 357.592 67.424 356.44C66.08 355.288 64.272 354.712 62 354.712ZM96.8675 382.456C95.5235 383.448 94.1155 384.2 92.6435 384.712C91.2035 385.192 89.6195 385.432 87.8915 385.432C86.1635 385.432 84.5315 385.112 82.9955 384.472C81.4915 383.832 80.1795 382.952 79.0595 381.832C77.9715 380.712 77.1075 379.4 76.4675 377.896C75.8275 376.36 75.5075 374.712 75.5075 372.952C75.5075 371.224 75.8115 369.608 76.4195 368.104C77.0595 366.6 77.9075 365.288 78.9635 364.168C80.0195 363.048 81.2675 362.168 82.7075 361.528C84.1795 360.888 85.7315 360.568 87.3635 360.568C88.9635 360.568 90.4515 360.888 91.8275 361.528C93.2355 362.168 94.4355 363.048 95.4275 364.168C96.4515 365.288 97.2515 366.6 97.8275 368.104C98.4355 369.608 98.7395 371.224 98.7395 372.952V374.056H79.0115C79.2675 376.424 80.2435 378.392 81.9395 379.96C83.6355 381.528 85.6675 382.312 88.0355 382.312C89.2835 382.312 90.4995 382.12 91.6835 381.736C92.8675 381.352 93.8595 380.808 94.6595 380.104L96.8675 382.456ZM87.2675 363.688C85.1875 363.688 83.3795 364.392 81.8435 365.8C80.3395 367.208 79.4275 369.016 79.1075 371.224H95.1875C94.8675 369.112 93.9555 367.336 92.4515 365.896C90.9795 364.424 89.2515 363.688 87.2675 363.688ZM103.855 385V360.952H107.407V364.36C108.111 363.112 109.039 362.152 110.191 361.48C111.343 360.776 112.655 360.424 114.127 360.424C114.575 360.424 114.975 360.456 115.327 360.52C115.679 360.552 116.031 360.632 116.383 360.76V364.024C115.967 363.896 115.551 363.8 115.135 363.736C114.719 363.64 114.303 363.592 113.887 363.592C112.415 363.592 111.119 364.024 109.999 364.888C108.879 365.72 108.015 366.936 107.407 368.536V385H103.855ZM118.485 360.952H124.149V356.392C124.149 354.056 124.789 352.264 126.069 351.016C127.349 349.736 129.189 349.096 131.589 349.096C132.229 349.096 132.805 349.128 133.317 349.192C133.829 349.256 134.325 349.368 134.805 349.528V352.696C134.261 352.536 133.765 352.424 133.317 352.36C132.869 352.264 132.373 352.216 131.829 352.216C130.421 352.216 129.365 352.568 128.661 353.272C127.989 353.944 127.653 355.016 127.653 356.488V360.952H134.805V363.976H127.653V385H124.149V363.976H118.485V360.952ZM136.426 372.952C136.426 371.224 136.746 369.592 137.386 368.056C138.026 366.52 138.89 365.192 139.978 364.072C141.098 362.952 142.41 362.072 143.914 361.432C145.418 360.792 147.018 360.472 148.714 360.472C150.41 360.472 151.994 360.792 153.466 361.432C154.97 362.072 156.266 362.952 157.354 364.072C158.474 365.192 159.354 366.52 159.994 368.056C160.634 369.592 160.954 371.224 160.954 372.952C160.954 374.712 160.634 376.36 159.994 377.896C159.354 379.432 158.474 380.76 157.354 381.88C156.266 383 154.97 383.88 153.466 384.52C151.994 385.16 150.41 385.48 148.714 385.48C147.018 385.48 145.418 385.16 143.914 384.52C142.41 383.88 141.098 383 139.978 381.88C138.89 380.76 138.026 379.432 137.386 377.896C136.746 376.36 136.426 374.712 136.426 372.952ZM148.714 382.312C149.93 382.312 151.066 382.072 152.122 381.592C153.21 381.112 154.138 380.456 154.906 379.624C155.706 378.76 156.33 377.768 156.778 376.648C157.226 375.496 157.45 374.264 157.45 372.952C157.45 371.64 157.226 370.424 156.778 369.304C156.33 368.152 155.706 367.16 154.906 366.328C154.138 365.496 153.21 364.84 152.122 364.36C151.066 363.88 149.93 363.64 148.714 363.64C147.498 363.64 146.346 363.88 145.258 364.36C144.202 364.84 143.274 365.496 142.474 366.328C141.706 367.16 141.082 368.152 140.602 369.304C140.154 370.424 139.93 371.64 139.93 372.952C139.93 374.264 140.154 375.496 140.602 376.648C141.05 377.768 141.658 378.76 142.426 379.624C143.226 380.456 144.17 381.112 145.258 381.592C146.346 382.072 147.498 382.312 148.714 382.312ZM166.04 385V360.952H169.592V364.36C170.296 363.112 171.224 362.152 172.376 361.48C173.528 360.776 174.84 360.424 176.312 360.424C176.76 360.424 177.16 360.456 177.512 360.52C177.864 360.552 178.216 360.632 178.568 360.76V364.024C178.152 363.896 177.736 363.8 177.32 363.736C176.904 363.64 176.488 363.592 176.072 363.592C174.6 363.592 173.304 364.024 172.184 364.888C171.064 365.72 170.2 366.936 169.592 368.536V385H166.04ZM182.783 385V360.952H186.335V363.592C187.231 362.568 188.271 361.8 189.455 361.288C190.639 360.744 191.951 360.472 193.391 360.472C195.055 360.472 196.543 360.872 197.855 361.672C199.199 362.44 200.239 363.496 200.975 364.84C201.967 363.368 203.151 362.28 204.527 361.576C205.935 360.84 207.503 360.472 209.231 360.472C211.823 360.472 213.935 361.336 215.567 363.064C217.231 364.792 218.063 367.032 218.063 369.784V385H214.559V370.504C214.559 368.392 213.999 366.712 212.879 365.464C211.759 364.216 210.239 363.592 208.319 363.592C207.007 363.592 205.807 363.928 204.719 364.6C203.631 365.272 202.703 366.248 201.935 367.528C201.999 367.88 202.047 368.248 202.079 368.632C202.143 368.984 202.175 369.368 202.175 369.784V385H198.671V370.504C198.671 368.392 198.111 366.712 196.991 365.464C195.871 364.216 194.367 363.592 192.479 363.592C191.199 363.592 190.031 363.896 188.975 364.504C187.951 365.08 187.071 365.944 186.335 367.096V385H182.783ZM231.767 385.432C229.143 385.432 226.999 384.76 225.335 383.416C223.703 382.072 222.887 380.328 222.887 378.184C222.887 375.944 223.751 374.168 225.479 372.856C227.207 371.512 229.543 370.84 232.487 370.84C233.767 370.84 234.999 370.984 236.183 371.272C237.399 371.56 238.519 371.96 239.543 372.472V369.304C239.543 367.384 238.999 365.944 237.911 364.984C236.823 363.992 235.239 363.496 233.159 363.496C231.975 363.496 230.775 363.672 229.559 364.024C228.375 364.344 227.063 364.872 225.623 365.608L224.279 362.872C226.007 362.04 227.607 361.432 229.079 361.048C230.551 360.664 232.023 360.472 233.495 360.472C236.535 360.472 238.871 361.192 240.503 362.632C242.167 364.072 242.999 366.136 242.999 368.824V385H239.543V382.648C238.455 383.576 237.255 384.28 235.943 384.76C234.663 385.208 233.271 385.432 231.767 385.432ZM226.295 378.088C226.295 379.432 226.855 380.536 227.975 381.4C229.127 382.232 230.599 382.648 232.391 382.648C233.831 382.648 235.143 382.424 236.327 381.976C237.511 381.528 238.583 380.824 239.543 379.864V375.352C238.551 374.68 237.479 374.2 236.327 373.912C235.207 373.592 233.959 373.432 232.583 373.432C230.663 373.432 229.127 373.864 227.975 374.728C226.855 375.56 226.295 376.68 226.295 378.088ZM249.083 385V360.952H252.635V363.784C253.563 362.696 254.667 361.88 255.947 361.336C257.227 360.76 258.651 360.472 260.219 360.472C262.939 360.472 265.163 361.336 266.891 363.064C268.619 364.792 269.483 367.032 269.483 369.784V385H265.979V370.504C265.979 368.392 265.371 366.712 264.155 365.464C262.939 364.216 261.307 363.592 259.259 363.592C257.819 363.592 256.523 363.912 255.371 364.552C254.251 365.192 253.339 366.104 252.635 367.288V385H249.083ZM286.809 382.216C288.089 382.216 289.321 381.96 290.505 381.448C291.689 380.936 292.793 380.184 293.817 379.192L296.025 381.592C294.745 382.808 293.305 383.752 291.705 384.424C290.105 385.096 288.441 385.432 286.713 385.432C285.017 385.432 283.417 385.112 281.913 384.472C280.409 383.832 279.113 382.952 278.025 381.832C276.937 380.712 276.073 379.384 275.433 377.848C274.793 376.312 274.473 374.68 274.473 372.952C274.473 371.224 274.793 369.608 275.433 368.104C276.073 366.568 276.937 365.24 278.025 364.12C279.113 363 280.409 362.12 281.913 361.48C283.417 360.808 285.017 360.472 286.713 360.472C288.441 360.472 290.121 360.808 291.753 361.48C293.417 362.152 294.873 363.08 296.121 364.264L293.865 366.856C292.905 365.864 291.801 365.096 290.553 364.552C289.305 364.008 288.041 363.736 286.761 363.736C285.545 363.736 284.393 363.976 283.305 364.456C282.217 364.936 281.273 365.592 280.473 366.424C279.705 367.256 279.097 368.232 278.649 369.352C278.201 370.472 277.977 371.672 277.977 372.952C277.977 374.264 278.201 375.496 278.649 376.648C279.129 377.768 279.753 378.744 280.521 379.576C281.321 380.376 282.265 381.016 283.353 381.496C284.441 381.976 285.593 382.216 286.809 382.216ZM319.655 382.456C318.311 383.448 316.903 384.2 315.431 384.712C313.991 385.192 312.407 385.432 310.679 385.432C308.951 385.432 307.319 385.112 305.783 384.472C304.279 383.832 302.967 382.952 301.847 381.832C300.759 380.712 299.895 379.4 299.255 377.896C298.615 376.36 298.295 374.712 298.295 372.952C298.295 371.224 298.599 369.608 299.207 368.104C299.847 366.6 300.695 365.288 301.751 364.168C302.807 363.048 304.055 362.168 305.495 361.528C306.967 360.888 308.519 360.568 310.151 360.568C311.751 360.568 313.239 360.888 314.615 361.528C316.023 362.168 317.223 363.048 318.215 364.168C319.239 365.288 320.039 366.6 320.615 368.104C321.223 369.608 321.527 371.224 321.527 372.952V374.056H301.799C302.055 376.424 303.031 378.392 304.727 379.96C306.423 381.528 308.455 382.312 310.823 382.312C312.071 382.312 313.287 382.12 314.471 381.736C315.655 381.352 316.647 380.808 317.447 380.104L319.655 382.456ZM310.055 363.688C307.975 363.688 306.167 364.392 304.631 365.8C303.127 367.208 302.215 369.016 301.895 371.224H317.975C317.655 369.112 316.743 367.336 315.239 365.896C313.767 364.424 312.039 363.688 310.055 363.688Z" fill="black" fill-opacity="0.66"/>
<path d="M14.528 48.24L16.976 45.696C18.704 47.52 20.544 48.912 22.496 49.872C24.48 50.8 26.56 51.264 28.736 51.264C31.36 51.264 33.52 50.64 35.216 49.392C36.912 48.144 37.76 46.56 37.76 44.64C37.76 42.912 37.152 41.584 35.936 40.656C34.752 39.728 32.784 39.04 30.032 38.592L25.184 37.824C21.952 37.312 19.568 36.368 18.032 34.992C16.496 33.584 15.728 31.696 15.728 29.328C15.728 26.544 16.816 24.288 18.992 22.56C21.168 20.832 24.016 19.968 27.536 19.968C29.872 19.968 32.192 20.352 34.496 21.12C36.8 21.888 38.896 22.992 40.784 24.432L38.672 27.312C36.848 25.936 34.992 24.896 33.104 24.192C31.216 23.488 29.312 23.136 27.392 23.136C24.992 23.136 23.04 23.696 21.536 24.816C20.064 25.904 19.328 27.312 19.328 29.04C19.328 30.608 19.856 31.808 20.912 32.64C21.968 33.472 23.712 34.08 26.144 34.464L30.944 35.232C34.592 35.84 37.248 36.88 38.912 38.352C40.608 39.824 41.456 41.856 41.456 44.448C41.456 45.92 41.136 47.28 40.496 48.528C39.888 49.744 39.008 50.8 37.856 51.696C36.736 52.56 35.376 53.248 33.776 53.76C32.208 54.24 30.48 54.48 28.592 54.48C25.936 54.48 23.376 53.952 20.912 52.896C18.48 51.808 16.352 50.256 14.528 48.24ZM66.68 51.456C65.336 52.448 63.928 53.2 62.456 53.712C61.016 54.192 59.432 54.432 57.704 54.432C55.976 54.432 54.344 54.112 52.808 53.472C51.304 52.832 49.992 51.952 48.872 50.832C47.784 49.712 46.92 48.4 46.28 46.896C45.64 45.36 45.32 43.712 45.32 41.952C45.32 40.224 45.624 38.608 46.232 37.104C46.872 35.6 47.72 34.288 48.776 33.168C49.832 32.048 51.08 31.168 52.52 30.528C53.992 29.888 55.544 29.568 57.176 29.568C58.776 29.568 60.264 29.888 61.64 30.528C63.048 31.168 64.248 32.048 65.24 33.168C66.264 34.288 67.064 35.6 67.64 37.104C68.248 38.608 68.552 40.224 68.552 41.952V43.056H48.824C49.08 45.424 50.056 47.392 51.752 48.96C53.448 50.528 55.48 51.312 57.848 51.312C59.096 51.312 60.312 51.12 61.496 50.736C62.68 50.352 63.672 49.808 64.472 49.104L66.68 51.456ZM57.08 32.688C55 32.688 53.192 33.392 51.656 34.8C50.152 36.208 49.24 38.016 48.92 40.224H65C64.68 38.112 63.768 36.336 62.264 34.896C60.792 33.424 59.064 32.688 57.08 32.688ZM80.8767 54.432C78.2527 54.432 76.1087 53.76 74.4447 52.416C72.8127 51.072 71.9967 49.328 71.9967 47.184C71.9967 44.944 72.8607 43.168 74.5887 41.856C76.3167 40.512 78.6527 39.84 81.5968 39.84C82.8768 39.84 84.1088 39.984 85.2928 40.272C86.5087 40.56 87.6287 40.96 88.6528 41.472V38.304C88.6528 36.384 88.1087 34.944 87.0207 33.984C85.9328 32.992 84.3488 32.496 82.2687 32.496C81.0847 32.496 79.8847 32.672 78.6687 33.024C77.4847 33.344 76.1727 33.872 74.7327 34.608L73.3887 31.872C75.1167 31.04 76.7167 30.432 78.1887 30.048C79.6607 29.664 81.1327 29.472 82.6047 29.472C85.6448 29.472 87.9808 30.192 89.6128 31.632C91.2768 33.072 92.1087 35.136 92.1087 37.824V54H88.6528V51.648C87.5647 52.576 86.3647 53.28 85.0528 53.76C83.7727 54.208 82.3807 54.432 80.8767 54.432ZM75.4047 47.088C75.4047 48.432 75.9647 49.536 77.0847 50.4C78.2367 51.232 79.7087 51.648 81.5007 51.648C82.9407 51.648 84.2527 51.424 85.4367 50.976C86.6207 50.528 87.6927 49.824 88.6528 48.864V44.352C87.6608 43.68 86.5888 43.2 85.4367 42.912C84.3168 42.592 83.0687 42.432 81.6927 42.432C79.7727 42.432 78.2367 42.864 77.0847 43.728C75.9647 44.56 75.4047 45.68 75.4047 47.088ZM109.425 51.216C110.705 51.216 111.937 50.96 113.121 50.448C114.305 49.936 115.409 49.184 116.433 48.192L118.641 50.592C117.361 51.808 115.921 52.752 114.321 53.424C112.721 54.096 111.057 54.432 109.329 54.432C107.633 54.432 106.033 54.112 104.529 53.472C103.025 52.832 101.729 51.952 100.641 50.832C99.5527 49.712 98.6887 48.384 98.0487 46.848C97.4087 45.312 97.0887 43.68 97.0887 41.952C97.0887 40.224 97.4087 38.608 98.0487 37.104C98.6887 35.568 99.5527 34.24 100.641 33.12C101.729 32 103.025 31.12 104.529 30.48C106.033 29.808 107.633 29.472 109.329 29.472C111.057 29.472 112.737 29.808 114.369 30.48C116.033 31.152 117.489 32.08 118.737 33.264L116.481 35.856C115.521 34.864 114.417 34.096 113.169 33.552C111.921 33.008 110.657 32.736 109.377 32.736C108.161 32.736 107.009 32.976 105.921 33.456C104.833 33.936 103.889 34.592 103.089 35.424C102.321 36.256 101.713 37.232 101.265 38.352C100.817 39.472 100.593 40.672 100.593 41.952C100.593 43.264 100.817 44.496 101.265 45.648C101.745 46.768 102.369 47.744 103.137 48.576C103.937 49.376 104.881 50.016 105.969 50.496C107.057 50.976 108.209 51.216 109.425 51.216ZM122.952 54V20.4L126.504 19.584V32.784C127.432 31.696 128.536 30.88 129.816 30.336C131.096 29.76 132.52 29.472 134.088 29.472C136.808 29.472 139.032 30.336 140.76 32.064C142.488 33.792 143.352 36.032 143.352 38.784V54H139.848V39.504C139.848 37.392 139.24 35.712 138.024 34.464C136.808 33.216 135.176 32.592 133.128 32.592C131.688 32.592 130.392 32.912 129.24 33.552C128.12 34.192 127.208 35.104 126.504 36.288V54H122.952ZM160.58 54V20.4H184.628V23.664H164.276V35.424H177.572V38.64H164.276V50.736H184.82V54H160.58ZM189.637 54V29.952H193.189V32.784C194.117 31.696 195.221 30.88 196.501 30.336C197.781 29.76 199.205 29.472 200.773 29.472C203.493 29.472 205.717 30.336 207.445 32.064C209.173 33.792 210.037 36.032 210.037 38.784V54H206.533V39.504C206.533 37.392 205.925 35.712 204.709 34.464C203.493 33.216 201.861 32.592 199.813 32.592C198.373 32.592 197.077 32.912 195.925 33.552C194.805 34.192 193.893 35.104 193.189 36.288V54H189.637ZM227.026 54.192C225.362 54.192 223.794 53.872 222.322 53.232C220.882 52.592 219.618 51.728 218.53 50.64C217.442 49.52 216.578 48.208 215.938 46.704C215.33 45.2 215.026 43.584 215.026 41.856C215.026 40.128 215.33 38.512 215.938 37.008C216.578 35.504 217.442 34.208 218.53 33.12C219.618 32 220.898 31.12 222.37 30.48C223.842 29.84 225.426 29.52 227.122 29.52C228.498 29.52 229.826 29.776 231.106 30.288C232.418 30.768 233.618 31.456 234.706 32.352V29.952H238.21V54.576C238.21 57.648 237.314 60 235.522 61.632C233.73 63.296 231.17 64.128 227.842 64.128C226.178 64.128 224.53 63.904 222.898 63.456C221.266 63.04 219.778 62.432 218.434 61.632L219.97 58.848C221.41 59.616 222.738 60.176 223.954 60.528C225.202 60.88 226.45 61.056 227.698 61.056C229.97 61.056 231.698 60.512 232.882 59.424C234.066 58.336 234.658 56.736 234.658 54.624V51.408C233.57 52.304 232.37 52.992 231.058 53.472C229.778 53.952 228.434 54.192 227.026 54.192ZM218.53 41.856C218.53 43.136 218.754 44.352 219.202 45.504C219.65 46.624 220.258 47.6 221.026 48.432C221.826 49.232 222.77 49.872 223.858 50.352C224.946 50.832 226.098 51.072 227.314 51.072C228.85 51.072 230.258 50.784 231.538 50.208C232.818 49.632 233.858 48.816 234.658 47.76V35.952C233.858 34.928 232.802 34.128 231.49 33.552C230.21 32.976 228.818 32.688 227.314 32.688C226.066 32.688 224.898 32.928 223.81 33.408C222.754 33.856 221.826 34.496 221.026 35.328C220.258 36.16 219.65 37.136 219.202 38.256C218.754 39.376 218.53 40.576 218.53 41.856ZM246.181 25.344C245.541 25.344 244.981 25.104 244.501 24.624C244.021 24.144 243.781 23.584 243.781 22.944C243.781 22.272 244.021 21.712 244.501 21.264C244.981 20.784 245.541 20.544 246.181 20.544C246.853 20.544 247.413 20.784 247.861 21.264C248.341 21.712 248.581 22.272 248.581 22.944C248.581 23.584 248.341 24.144 247.861 24.624C247.413 25.104 246.853 25.344 246.181 25.344ZM247.957 29.952V54H244.405V29.952H247.957ZM254.165 54V29.952H257.717V32.784C258.645 31.696 259.749 30.88 261.029 30.336C262.309 29.76 263.733 29.472 265.301 29.472C268.021 29.472 270.245 30.336 271.973 32.064C273.701 33.792 274.565 36.032 274.565 38.784V54H271.061V39.504C271.061 37.392 270.453 35.712 269.237 34.464C268.021 33.216 266.389 32.592 264.341 32.592C262.901 32.592 261.605 32.912 260.453 33.552C259.333 34.192 258.421 35.104 257.717 36.288V54H254.165ZM300.914 51.456C299.57 52.448 298.162 53.2 296.69 53.712C295.25 54.192 293.666 54.432 291.938 54.432C290.21 54.432 288.578 54.112 287.042 53.472C285.538 52.832 284.226 51.952 283.106 50.832C282.018 49.712 281.154 48.4 280.514 46.896C279.874 45.36 279.554 43.712 279.554 41.952C279.554 40.224 279.858 38.608 280.466 37.104C281.106 35.6 281.954 34.288 283.01 33.168C284.066 32.048 285.314 31.168 286.754 30.528C288.226 29.888 289.778 29.568 291.41 29.568C293.01 29.568 294.498 29.888 295.874 30.528C297.282 31.168 298.482 32.048 299.474 33.168C300.498 34.288 301.298 35.6 301.874 37.104C302.482 38.608 302.786 40.224 302.786 41.952V43.056H283.058C283.314 45.424 284.29 47.392 285.986 48.96C287.682 50.528 289.714 51.312 292.082 51.312C293.33 51.312 294.546 51.12 295.73 50.736C296.914 50.352 297.906 49.808 298.706 49.104L300.914 51.456ZM291.314 32.688C289.234 32.688 287.426 33.392 285.89 34.8C284.386 36.208 283.474 38.016 283.154 40.224H299.234C298.914 38.112 298.002 36.336 296.498 34.896C295.026 33.424 293.298 32.688 291.314 32.688ZM352.061 37.2C352.061 39.6 351.613 41.872 350.717 44.016C349.821 46.128 348.589 47.968 347.021 49.536C345.485 51.072 343.661 52.288 341.549 53.184C339.437 54.08 337.181 54.528 334.781 54.528C332.381 54.528 330.109 54.08 327.965 53.184C325.853 52.288 324.013 51.072 322.445 49.536C320.909 47.968 319.693 46.128 318.797 44.016C317.901 41.872 317.453 39.6 317.453 37.2C317.453 34.8 317.901 32.544 318.797 30.432C319.693 28.288 320.909 26.448 322.445 24.912C324.013 23.344 325.853 22.112 327.965 21.216C330.109 20.32 332.381 19.872 334.781 19.872C337.181 19.872 339.437 20.32 341.549 21.216C343.661 22.112 345.485 23.344 347.021 24.912C348.589 26.448 349.821 28.288 350.717 30.432C351.613 32.544 352.061 34.8 352.061 37.2ZM348.317 37.2C348.317 35.248 347.965 33.424 347.261 31.728C346.557 30 345.597 28.528 344.381 27.312C343.197 26.064 341.773 25.088 340.109 24.384C338.445 23.648 336.669 23.28 334.781 23.28C332.861 23.28 331.069 23.648 329.405 24.384C327.741 25.088 326.301 26.064 325.085 27.312C323.901 28.528 322.957 30 322.253 31.728C321.549 33.424 321.197 35.248 321.197 37.2C321.197 39.152 321.549 40.976 322.253 42.672C322.957 44.368 323.901 45.84 325.085 47.088C326.301 48.336 327.741 49.328 329.405 50.064C331.069 50.768 332.861 51.12 334.781 51.12C336.669 51.12 338.445 50.768 340.109 50.064C341.773 49.328 343.197 48.336 344.381 47.088C345.597 45.84 346.557 44.368 347.261 42.672C347.965 40.976 348.317 39.152 348.317 37.2ZM357.327 63.84V29.952H360.831V32.544C361.855 31.552 363.023 30.816 364.335 30.336C365.679 29.824 367.103 29.568 368.607 29.568C370.303 29.568 371.887 29.888 373.359 30.528C374.831 31.168 376.111 32.048 377.199 33.168C378.287 34.256 379.135 35.568 379.743 37.104C380.383 38.608 380.703 40.224 380.703 41.952C380.703 43.68 380.383 45.312 379.743 46.848C379.135 48.384 378.287 49.712 377.199 50.832C376.111 51.92 374.815 52.784 373.311 53.424C371.839 54.064 370.255 54.384 368.559 54.384C367.151 54.384 365.791 54.144 364.479 53.664C363.167 53.184 361.967 52.496 360.879 51.6V63.84H357.327ZM368.271 32.688C366.767 32.688 365.359 32.992 364.047 33.6C362.767 34.176 361.711 34.992 360.879 36.048V47.952C361.711 48.976 362.783 49.792 364.095 50.4C365.407 50.976 366.799 51.264 368.271 51.264C370.799 51.264 372.911 50.384 374.607 48.624C376.335 46.832 377.199 44.624 377.199 42C377.199 40.688 376.959 39.472 376.479 38.352C376.031 37.2 375.407 36.208 374.607 35.376C373.807 34.544 372.863 33.888 371.775 33.408C370.687 32.928 369.519 32.688 368.271 32.688ZM387.031 48.624V32.976H381.847V29.952H387.031V23.856L390.535 22.944V29.952H397.783V32.976H390.535V47.712C390.535 48.992 390.823 49.92 391.399 50.496C391.975 51.04 392.919 51.312 394.231 51.312C394.903 51.312 395.495 51.264 396.007 51.168C396.551 51.072 397.127 50.912 397.735 50.688V53.808C397.127 54.032 396.439 54.192 395.671 54.288C394.935 54.384 394.215 54.432 393.511 54.432C391.431 54.432 389.831 53.936 388.711 52.944C387.591 51.952 387.031 50.512 387.031 48.624ZM403.512 25.344C402.872 25.344 402.312 25.104 401.832 24.624C401.352 24.144 401.112 23.584 401.112 22.944C401.112 22.272 401.352 21.712 401.832 21.264C402.312 20.784 402.872 20.544 403.512 20.544C404.184 20.544 404.744 20.784 405.192 21.264C405.672 21.712 405.912 22.272 405.912 22.944C405.912 23.584 405.672 24.144 405.192 24.624C404.744 25.104 404.184 25.344 403.512 25.344ZM405.288 29.952V54H401.736V29.952H405.288ZM411.496 54V29.952H415.048V32.592C415.944 31.568 416.984 30.8 418.168 30.288C419.352 29.744 420.664 29.472 422.104 29.472C423.768 29.472 425.256 29.872 426.568 30.672C427.912 31.44 428.952 32.496 429.688 33.84C430.68 32.368 431.864 31.28 433.24 30.576C434.648 29.84 436.216 29.472 437.944 29.472C440.536 29.472 442.648 30.336 444.28 32.064C445.944 33.792 446.776 36.032 446.776 38.784V54H443.272V39.504C443.272 37.392 442.712 35.712 441.592 34.464C440.472 33.216 438.952 32.592 437.032 32.592C435.72 32.592 434.52 32.928 433.432 33.6C432.344 34.272 431.416 35.248 430.648 36.528C430.712 36.88 430.76 37.248 430.792 37.632C430.856 37.984 430.888 38.368 430.888 38.784V54H427.384V39.504C427.384 37.392 426.824 35.712 425.704 34.464C424.584 33.216 423.08 32.592 421.192 32.592C419.912 32.592 418.744 32.896 417.688 33.504C416.664 34.08 415.784 34.944 415.048 36.096V54H411.496ZM454.672 25.344C454.032 25.344 453.472 25.104 452.992 24.624C452.512 24.144 452.272 23.584 452.272 22.944C452.272 22.272 452.512 21.712 452.992 21.264C453.472 20.784 454.032 20.544 454.672 20.544C455.344 20.544 455.904 20.784 456.352 21.264C456.832 21.712 457.072 22.272 457.072 22.944C457.072 23.584 456.832 24.144 456.352 24.624C455.904 25.104 455.344 25.344 454.672 25.344ZM456.448 29.952V54H452.896V29.952H456.448ZM461.119 54V51.216L475.615 33.12H461.263V29.952H479.935V32.688L465.391 50.832H480.079V54H461.119ZM492.608 54.432C489.984 54.432 487.84 53.76 486.176 52.416C484.544 51.072 483.728 49.328 483.728 47.184C483.728 44.944 484.592 43.168 486.32 41.856C488.048 40.512 490.384 39.84 493.328 39.84C494.608 39.84 495.84 39.984 497.024 40.272C498.24 40.56 499.36 40.96 500.384 41.472V38.304C500.384 36.384 499.84 34.944 498.752 33.984C497.664 32.992 496.08 32.496 494 32.496C492.816 32.496 491.616 32.672 490.4 33.024C489.216 33.344 487.904 33.872 486.464 34.608L485.12 31.872C486.848 31.04 488.448 30.432 489.92 30.048C491.392 29.664 492.864 29.472 494.336 29.472C497.376 29.472 499.712 30.192 501.344 31.632C503.008 33.072 503.84 35.136 503.84 37.824V54H500.384V51.648C499.296 52.576 498.096 53.28 496.784 53.76C495.504 54.208 494.112 54.432 492.608 54.432ZM487.136 47.088C487.136 48.432 487.696 49.536 488.816 50.4C489.968 51.232 491.44 51.648 493.232 51.648C494.672 51.648 495.984 51.424 497.168 50.976C498.352 50.528 499.424 49.824 500.384 48.864V44.352C499.392 43.68 498.32 43.2 497.168 42.912C496.048 42.592 494.8 42.432 493.424 42.432C491.504 42.432 489.968 42.864 488.816 43.728C487.696 44.56 487.136 45.68 487.136 47.088ZM511.962 48.624V32.976H506.778V29.952H511.962V23.856L515.466 22.944V29.952H522.714V32.976H515.466V47.712C515.466 48.992 515.754 49.92 516.33 50.496C516.906 51.04 517.85 51.312 519.162 51.312C519.834 51.312 520.426 51.264 520.938 51.168C521.482 51.072 522.058 50.912 522.666 50.688V53.808C522.058 54.032 521.37 54.192 520.602 54.288C519.866 54.384 519.146 54.432 518.442 54.432C516.362 54.432 514.762 53.936 513.642 52.944C512.522 51.952 511.962 50.512 511.962 48.624ZM528.444 25.344C527.804 25.344 527.244 25.104 526.764 24.624C526.284 24.144 526.044 23.584 526.044 22.944C526.044 22.272 526.284 21.712 526.764 21.264C527.244 20.784 527.804 20.544 528.444 20.544C529.116 20.544 529.676 20.784 530.124 21.264C530.604 21.712 530.844 22.272 530.844 22.944C530.844 23.584 530.604 24.144 530.124 24.624C529.676 25.104 529.116 25.344 528.444 25.344ZM530.22 29.952V54H526.668V29.952H530.22ZM535.323 41.952C535.323 40.224 535.643 38.592 536.283 37.056C536.923 35.52 537.787 34.192 538.875 33.072C539.995 31.952 541.307 31.072 542.811 30.432C544.315 29.792 545.915 29.472 547.611 29.472C549.307 29.472 550.891 29.792 552.363 30.432C553.867 31.072 555.163 31.952 556.251 33.072C557.371 34.192 558.251 35.52 558.891 37.056C559.531 38.592 559.851 40.224 559.851 41.952C559.851 43.712 559.531 45.36 558.891 46.896C558.251 48.432 557.371 49.76 556.251 50.88C555.163 52 553.867 52.88 552.363 53.52C550.891 54.16 549.307 54.48 547.611 54.48C545.915 54.48 544.315 54.16 542.811 53.52C541.307 52.88 539.995 52 538.875 50.88C537.787 49.76 536.923 48.432 536.283 46.896C535.643 45.36 535.323 43.712 535.323 41.952ZM547.611 51.312C548.827 51.312 549.963 51.072 551.019 50.592C552.107 50.112 553.035 49.456 553.803 48.624C554.603 47.76 555.227 46.768 555.675 45.648C556.123 44.496 556.347 43.264 556.347 41.952C556.347 40.64 556.123 39.424 555.675 38.304C555.227 37.152 554.603 36.16 553.803 35.328C553.035 34.496 552.107 33.84 551.019 33.36C549.963 32.88 548.827 32.64 547.611 32.64C546.395 32.64 545.243 32.88 544.155 33.36C543.099 33.84 542.171 34.496 541.371 35.328C540.603 36.16 539.979 37.152 539.499 38.304C539.051 39.424 538.827 40.64 538.827 41.952C538.827 43.264 539.051 44.496 539.499 45.648C539.947 46.768 540.555 47.76 541.323 48.624C542.123 49.456 543.067 50.112 544.155 50.592C545.243 51.072 546.395 51.312 547.611 51.312ZM564.936 54V29.952H568.488V32.784C569.416 31.696 570.52 30.88 571.8 30.336C573.08 29.76 574.504 29.472 576.072 29.472C578.792 29.472 581.016 30.336 582.744 32.064C584.472 33.792 585.336 36.032 585.336 38.784V54H581.832V39.504C581.832 37.392 581.224 35.712 580.008 34.464C578.792 33.216 577.16 32.592 575.112 32.592C573.672 32.592 572.376 32.912 571.224 33.552C570.104 34.192 569.192 35.104 568.488 36.288V54H564.936Z" fill="black" fill-opacity="0.66"/>
<path d="M382.219 173.031C385.08 173.031 387.406 170.705 387.406 167.844V141.906C387.406 139.045 385.08 136.719 382.219 136.719H321.662C314.25 118.036 296.104 105.594 275.875 105.594C248.7 105.594 226.594 127.7 226.594 154.875C226.594 177.812 242.369 197.083 263.622 202.551C263.163 203.892 262.906 205.303 262.906 206.75V258.625C262.906 262.915 266.397 266.406 270.688 266.406H281.062C285.353 266.406 288.844 262.915 288.844 258.625V206.75C288.844 205.31 288.592 203.907 288.136 202.571C293.961 201.075 299.47 198.528 304.406 195.016V214.531C304.406 217.392 306.733 219.719 309.594 219.719H382.219C385.08 219.719 387.406 217.392 387.406 214.531V188.594C387.406 185.733 385.08 183.406 382.219 183.406H316.029C318.322 180.19 320.184 176.712 321.642 173.031H382.219ZM288.844 173.031H304.271C298.127 182.597 287.399 188.594 275.875 188.594C257.283 188.594 242.156 173.467 242.156 154.875C242.156 136.283 257.283 121.156 275.875 121.156C287.399 121.156 298.127 127.153 304.271 136.719H288.844C285.983 136.719 283.656 139.045 283.656 141.906V167.844C283.656 170.705 285.983 173.031 288.844 173.031ZM288.844 167.844V141.906H319.969V167.844H288.844ZM382.221 167.844H325.156V141.906H382.219L382.221 167.844ZM281.062 261.219H270.688C269.258 261.219 268.094 260.054 268.094 258.625V219.719H283.656V258.625C283.656 260.054 282.492 261.219 281.062 261.219ZM283.656 206.75V214.531H268.094V206.75C268.094 205.645 268.34 204.576 268.781 203.586C271.105 203.923 273.46 204.156 275.875 204.156C278.269 204.156 280.632 203.933 282.972 203.593C283.412 204.582 283.656 205.648 283.656 206.75ZM309.594 188.594H345.906V214.531H309.594V188.594ZM382.219 214.531H351.094V188.594H382.219V214.531ZM309.43 183.422C306.702 183.51 304.51 185.702 304.424 188.433C296.456 195.216 286.375 198.969 275.875 198.969C251.561 198.969 231.781 179.189 231.781 154.875C231.781 130.561 251.561 110.781 275.875 110.781C293.282 110.781 308.984 121.065 316.06 136.719H310.266C303.566 124.069 290.26 115.969 275.875 115.969C254.422 115.969 236.969 133.422 236.969 154.875C236.969 176.328 254.422 193.781 275.875 193.781C290.26 193.781 303.566 185.681 310.266 173.031H316.044C314.351 176.784 312.125 180.257 309.43 183.422Z" fill="black" fill-opacity="0.66"/>
<path d="M371.844 152.281H377.031V157.469H371.844V152.281Z" fill="black" fill-opacity="0.66"/>
<path d="M361.469 152.281H366.656V157.469H361.469V152.281Z" fill="black" fill-opacity="0.66"/>
<path d="M351.094 152.281H356.281V157.469H351.094V152.281Z" fill="black" fill-opacity="0.66"/>
<path d="M340.719 152.281H345.906V157.469H340.719V152.281Z" fill="black" fill-opacity="0.66"/>
<path d="M330.344 152.281H335.531V157.469H330.344V152.281Z" fill="black" fill-opacity="0.66"/>
<path d="M312.947 145.26L299.219 158.989L295.865 155.635L292.197 159.303L299.219 166.324L316.615 148.928L312.947 145.26Z" fill="black" fill-opacity="0.66"/>
<path d="M371.844 230.094H299.219C296.358 230.094 294.031 232.42 294.031 235.281V261.219C294.031 264.08 296.358 266.406 299.219 266.406H371.844C374.705 266.406 377.031 264.08 377.031 261.219V235.281C377.031 232.42 374.705 230.094 371.844 230.094ZM299.219 235.281H330.344V261.219H299.219V235.281ZM335.531 261.219V235.281H371.844L371.846 261.219H335.531Z" fill="black" fill-opacity="0.66"/>
<path d="M361.469 245.656H366.656V250.844H361.469V245.656Z" fill="black" fill-opacity="0.66"/>
<path d="M351.094 245.656H356.281V250.844H351.094V245.656Z" fill="black" fill-opacity="0.66"/>
<path d="M340.719 245.656H345.906V250.844H340.719V245.656Z" fill="black" fill-opacity="0.66"/>
<path d="M314.781 198.969H319.969V204.156H314.781V198.969Z" fill="black" fill-opacity="0.66"/>
<path d="M325.156 198.969H330.344V204.156H325.156V198.969Z" fill="black" fill-opacity="0.66"/>
<path d="M335.531 198.969H340.719V204.156H335.531V198.969Z" fill="black" fill-opacity="0.66"/>
<path d="M323.322 238.635L309.594 252.364L306.24 249.01L302.572 252.678L309.594 259.699L326.99 242.303L323.322 238.635Z" fill="black" fill-opacity="0.66"/>
<path d="M357.041 207.51L360.709 211.178L366.656 205.23L372.604 211.178L376.271 207.51L370.324 201.562L376.271 195.615L372.604 191.947L366.656 197.895L360.709 191.947L357.041 195.615L362.989 201.562L357.041 207.51Z" fill="black" fill-opacity="0.66"/>
</svg>
